<svg xmlns="http://www.w3.org/2000/svg" xmlns:xlink="http://www.w3.org/1999/xlink" version="1.1" width="1240pt" height="790pt" viewBox="0 0 1240 790">
<defs>
<clipPath id="clip_0">
<path transform="matrix(1,0,0,-1,0,790)" d="M0 790H1240V0H0Z"/>
</clipPath>
<clipPath id="clip_1">
<path transform="matrix(1,0,0,-1,0,790)" d="M0 790H1240V0H0Z"/>
</clipPath>
<clipPath id="clip_2">
<path transform="matrix(1,0,0,-1,0,790)" d="M904.918 629.441H930.905V646.073H904.918Z"/>
</clipPath>
<clipPath id="clip_3">
<path transform="matrix(1,0,0,-1,0,790)" d="M952.389 628.401H976.298V645.032H952.389Z"/>
</clipPath>
<clipPath id="clip_4">
<path transform="matrix(1,0,0,-1,0,790)" d="M930.307 580.841H947.632V599.206H930.307Z"/>
</clipPath>
<clipPath id="clip_5">
<path transform="matrix(1,0,0,-1,0,790)" d="M0 790H1240V0H0Z"/>
</clipPath>
<clipPath id="clip_6">
<path transform="matrix(1,0,0,-1,0,790)" d="M0 790H1240V0H0Z"/>
</clipPath>
<clipPath id="clip_7">
<path transform="matrix(1,0,0,-1,0,790)" d="M0 790H1240V0H0Z"/>
</clipPath>
</defs>
<g id="layer_1" data-name="">
<g clip-path="url(#clip_0)">
<path transform="matrix(1,0,0,-1,0,790)" stroke-width="1" stroke-linecap="butt" stroke-miterlimit="10" stroke-linejoin="miter" fill="none" stroke="#231f20" d="M1241-1H1V789H1241Z"/>
</g>
<text xml:space="preserve" transform="matrix(1 0 -0 1 0 790)" font-size="18" font-family="OpenSans" font-weight="bold"><tspan y="-758" x="466.8794 478.7774 486.5354 497.5334 504.6074 509.6294 518.53939 523.21939 534.41537 544.85537 549.8773 559.5073 569.8753 574.5553 581.5753 586.2553 597.6673 608.6653 620.0827 631.2967 642.7267 647.74868 654.82266 659.5026 673.66867 684.8826 693.6486 704.0166 711.7746 721.4046 731.8446 738.9186 743.94058 754.93856 766.3685">Arotic Valve / Conduit Observations</tspan></text>
<path transform="matrix(1,0,0,-1,426.1211,144.38483)" d="M0 0 2.16 8.399 1.439 8.64-.721 .239Z"/>
<path transform="matrix(1,0,0,-1,425.6406,144.625)" d="M0 0-9.84 4.56-9.359 5.279 .24 .72Z"/>
<path transform="matrix(1,0,0,-1,343.8008,177.50592)" d="M0 0-6 5.281-5.52 5.762 .48 .721Z"/>
<path transform="matrix(1,0,0,-1,345.2402,178.22461)" d="M0 0 7.201 8.4 6.721 8.879-.719 .48Z"/>
<g clip-path="url(#clip_1)">
<path transform="matrix(1,0,0,-1,396.8096,83.140628)" stroke-width="1" stroke-linecap="butt" stroke-miterlimit="10" stroke-linejoin="miter" fill="none" stroke="#000000" d="M0 0C0-2.462-4.049-4.458-9.043-4.458-14.038-4.458-18.087-2.462-18.087 0-18.087 2.462-14.038 4.458-9.043 4.458-4.049 4.458 0 2.462 0 0Z"/>
<path transform="matrix(1,0,0,-1,395.1113,83.12402)" stroke-width="1" stroke-linecap="butt" stroke-miterlimit="10" stroke-linejoin="miter" fill="none" stroke="#000000" d="M0 0C0-1.815-3.288-3.287-7.345-3.287-11.403-3.287-14.691-1.815-14.691 0-14.691 1.816-11.403 3.288-7.345 3.288-3.288 3.288 0 1.816 0 0Z"/>
<path transform="matrix(1,0,0,-1,429.9219,88.34473)" stroke-width="1" stroke-linecap="butt" stroke-miterlimit="10" stroke-linejoin="miter" fill="none" stroke="#000000" d="M0 0C-.865-1.649-3.978-1.721-6.952-.16-9.927 1.401-11.636 4.004-10.77 5.653-9.903 7.304-6.792 7.375-3.816 5.812-.841 4.253 .866 1.649 0 0Z"/>
<path transform="matrix(1,0,0,-1,447.8975,109.018619)" stroke-width="1" stroke-linecap="butt" stroke-miterlimit="10" stroke-linejoin="miter" fill="none" stroke="#000000" d="M0 0C-1.188-1.125-4.024-.059-6.332 2.382-8.641 4.823-9.548 7.713-8.357 8.837-7.167 9.963-4.333 8.896-2.024 6.454 .285 4.015 1.189 1.125 0 0Z"/>
<path transform="matrix(1,0,0,-1,446.0371,106.84473)" stroke-width="1" stroke-linecap="butt" stroke-miterlimit="10" stroke-linejoin="miter" fill="none" stroke="#000000" d="M0 0C-.659-.624-2.232-.032-3.514 1.322-4.795 2.676-5.297 4.279-4.637 4.903-3.977 5.528-2.403 4.937-1.123 3.581 .158 2.228 .66 .625 0 0Z"/>
<path transform="matrix(1,0,0,-1,427.9219,87.002017)" stroke-width="1" stroke-linecap="butt" stroke-miterlimit="10" stroke-linejoin="miter" fill="none" stroke="#000000" d="M0 0C-.543-1.037-2.5-1.082-4.37-.101-6.24 .881-7.314 2.517-6.771 3.554-6.227 4.592-4.27 4.637-2.399 3.654-.528 2.674 .545 1.037 0 0Z"/>
<path transform="matrix(1,0,0,-1,437.4062,150.89063)" stroke-width="1" stroke-linecap="butt" stroke-miterlimit="10" stroke-linejoin="miter" fill="none" stroke="#000000" d="M0 0C0 3.24-5.986 5.866-13.369 5.866-20.752 5.866-26.738 3.24-26.738 0-26.738-3.239-20.752-5.865-13.369-5.865-5.986-5.865 0-3.239 0 0Z"/>
<path transform="matrix(1,0,0,-1,434.2393,151.07129)" stroke-width="1" stroke-linecap="butt" stroke-miterlimit="10" stroke-linejoin="miter" fill="none" stroke="#000000" d="M0 0C0 2.128-4.683 3.852-10.458 3.852-16.232 3.852-20.916 2.128-20.916 0-20.916-2.127-16.232-3.852-10.458-3.852-4.683-3.852 0-2.127 0 0Z"/>
<path transform="matrix(1,0,0,-1,381.8428,182.03607)" stroke-width="1" stroke-linecap="butt" stroke-miterlimit="10" stroke-linejoin="miter" fill="none" stroke="#000000" d="M0 0C-.534-1.284-1.748-1.999-2.712-1.598-3.675-1.196-4.024 .17-3.488 1.453-2.955 2.737-1.74 3.454-.776 3.053 .188 2.651 .536 1.284 0 0Z"/>
<path transform="matrix(1,0,0,-1,382.2676,182.11823)" stroke-width="1" stroke-linecap="butt" stroke-miterlimit="10" stroke-linejoin="miter" fill="none" stroke="#000000" d="M0 0C-.687-1.648-2.244-2.567-3.482-2.052-4.719-1.537-5.167 .217-4.479 1.865-3.794 3.514-2.234 4.434-.996 3.919 .242 3.403 .688 1.648 0 0Z"/>
<path transform="matrix(1,0,0,-1,431.8232,121.21973)" stroke-width="1" stroke-linecap="butt" stroke-miterlimit="10" stroke-linejoin="miter" fill="none" stroke="#000000" d="M0 0 15.667 12 15.512 12.203C13.837 11.75 11.51 12.604 9.697 14.521 7.937 16.382 7.196 18.674 7.651 20.314L-6.423 8.5C-12.179 4.667-16.022 9.667-16.022 9.667-18.712 11.667-14.833 15.667-14.833 15.667L-1.833 32.5-1.893 32.536C-2.98 31.211-5.84 31.233-8.604 32.685-11.234 34.065-12.872 36.258-12.618 37.888L-27.334 19.334C-34.168 11.501-34.667 20.334-34.667 20.334V37.5H-35.097C-35.232 35.097-39.219 33.167-44.127 33.167-48.283 33.167-51.775 34.551-52.834 36.434V25.167C-52.834 16.167-59.167 13.794-59.167 13.794-96.167 2.754-98.834-49.5-98.834-49.5-106.334-49-109.411-52.083-109.411-52.083L-109.39-52.161C-109.05-51.956-108.673-51.833-108.271-51.833-106.81-51.833-105.625-53.349-105.625-55.218-105.625-56.83-106.507-58.173-107.687-58.515L-107.668-58.583-101.084-56.766C-99.167-58.031-106.167-65.166-106.167-65.166-116.501-76.499-98.838-99.333-98.838-99.333-93.176-108.166-98.834-117.5-98.834-117.5-99.168-127.5-77.667-125.666-77.667-125.666-48.834-121.999-46-107.166-46-107.166-45.613-105.813-46.545-103.857-46.992-102.625-47.761-100.509-48.665-98.448-49.582-96.393-50.137-95.149-50.673-93.868-51.337-92.679-51.502-92.383-50.325-90.256-50.173-89.869-49.813-88.964-49.474-88.051-49.18-87.122-48.654-85.464-48.267-83.75-48.205-82.007-48.099-79.045-49.043-76.255-50.534-73.727-51.871-71.46-53.547-69.369-55.425-67.526-56.969-66.011-58.681-64.678-60.515-63.53-61.334-63.018-62.179-62.553-63.022-62.081-63.07-62.055-63.117-62.023-63.167-62-65.501-59.833-67-56.286-67-56.286L-54-62-53.935-61.854C-54.306-61.069-54.319-60-53.89-58.971-53.435-57.874-52.591-57.112-51.713-56.868L-51.667-56.766-63.834-49.5C-59.834-25.333-52.834-18.846-52.834-18.846-29.512 1.531-22.456-23.498-21.099-29.794-20.532-26.783-14.794-24.416-7.786-24.416-1.659-24.416 3.494-26.228 5.073-28.694L5.166-28.686C3.832-19.038-1.167-6.5-1.167-6.5-4.167-1.333 0 0 0 0Z"/>
<path transform="matrix(1,0,0,-1,326.2549,176.32709)" stroke-width="1" stroke-linecap="butt" stroke-miterlimit="10" stroke-linejoin="miter" fill="none" stroke="#000000" d="M0 0C0-1.869-1.118-3.386-2.498-3.386-3.876-3.386-4.994-1.869-4.994 0-4.994 1.869-3.876 3.386-2.498 3.386-1.118 3.386 0 1.869 0 0Z"/>
<path transform="matrix(1,0,0,-1,325.5439,176.32709)" stroke-width="1" stroke-linecap="butt" stroke-miterlimit="10" stroke-linejoin="miter" fill="none" stroke="#000000" d="M0 0C0-1.433-.856-2.594-1.914-2.594-2.97-2.594-3.826-1.433-3.826 0-3.826 1.433-2.97 2.594-1.914 2.594-.856 2.594 0 1.433 0 0Z"/>
<path transform="matrix(1,0,0,-1,326.625,210.2334)" stroke-width="1" stroke-linecap="butt" stroke-miterlimit="10" stroke-linejoin="miter" fill="none" stroke="#000000" d="M0 0C0 0-2.615 17.264 14.416 22.264 14.416 22.264 40.566 31.24 56.84 5.127"/>
<path transform="matrix(1,0,0,-1,326.2549,185.75592)" stroke-width="1" stroke-linecap="butt" stroke-miterlimit="10" stroke-linejoin="miter" fill="none" stroke="#000000" d="M0 0C0 0 14.319 15.536 42.401 2.536"/>
<path transform="matrix(1,0,0,-1,374.4834,187.06049)" stroke-width="1" stroke-linecap="butt" stroke-miterlimit="10" stroke-linejoin="miter" fill="none" stroke="#000000" d="M0 0C0 0 2.414-3.753 2.314-9.644"/>
<path transform="matrix(1,0,0,-1,368.0605,182.94733)" stroke-width="1" stroke-linecap="butt" stroke-miterlimit="10" stroke-linejoin="miter" fill="none" stroke="#000000" d="M0 0C0 0 2.714-3.312 2.071-8.563"/>
<path transform="matrix(1,0,0,-1,362.374,180.69043)" stroke-width="1" stroke-linecap="butt" stroke-miterlimit="10" stroke-linejoin="miter" fill="none" stroke="#000000" d="M0 0C0 0 2.247-1.332 1.89-7.993"/>
<path transform="matrix(1,0,0,-1,355.9951,178.94043)" stroke-width="1" stroke-linecap="butt" stroke-miterlimit="10" stroke-linejoin="miter" fill="none" stroke="#000000" d="M0 0C0 0 2.609-1.087 2.614-8.183"/>
<path transform="matrix(1,0,0,-1,350.2812,178.05573)" stroke-width="1" stroke-linecap="butt" stroke-miterlimit="10" stroke-linejoin="miter" fill="none" stroke="#000000" d="M0 0C0 0 2.778-1.702 2.16-8.433"/>
<path transform="matrix(1,0,0,-1,345.4043,178.0332)" stroke-width="1" stroke-linecap="butt" stroke-miterlimit="10" stroke-linejoin="miter" fill="none" stroke="#000000" d="M0 0C0 0 .3-5.88 2.797-8.596"/>
<path transform="matrix(1,0,0,-1,339.9268,178.81348)" stroke-width="1" stroke-linecap="butt" stroke-miterlimit="10" stroke-linejoin="miter" fill="none" stroke="#000000" d="M0 0C0 0-1.08-4.501 2.741-8.703"/>
<path transform="matrix(1,0,0,-1,335.0967,180.25782)" stroke-width="1" stroke-linecap="butt" stroke-miterlimit="10" stroke-linejoin="miter" fill="none" stroke="#000000" d="M0 0C0 0-.878-4.801 2.903-8.818"/>
<path transform="matrix(1,0,0,-1,330.0781,182.76947)" stroke-width="1" stroke-linecap="butt" stroke-miterlimit="10" stroke-linejoin="miter" fill="none" stroke="#000000" d="M0 0C0 0-1.257-4.9 3.307-9.112"/>
<path transform="matrix(1,0,0,-1,326.4805,185.52832)" stroke-width="1" stroke-linecap="butt" stroke-miterlimit="10" stroke-linejoin="miter" fill="none" stroke="#000000" d="M0 0C0 0-1.462-5.089 4.065-9.286"/>
<path transform="matrix(1,0,0,-1,323.6309,189.4375)" stroke-width="1" stroke-linecap="butt" stroke-miterlimit="10" stroke-linejoin="miter" fill="none" stroke="#000000" d="M0 0C0 0-.197-8.072 3.914-11.219"/>
<path transform="matrix(1,0,0,-1,338.3848,222.57318)" stroke-width="1" stroke-linecap="butt" stroke-miterlimit="10" stroke-linejoin="miter" fill="none" stroke="#000000" d="M0 0C0 0-3.438 9.75-5.812 11.563-8.188 13.375-9.875 22.562-5 26.875-5 26.875 1.062 34.875 23.5 31.937 23.5 31.937 37.875 28.937 40.25 9.25 40.25 9.25 39.75 9.313 38.813 11.563 38.813 11.563 36.75 29.752 19.312 31.063 19.312 31.063-.562 33.684-5.812 24.217-5.812 24.217-9.5 18.5-4.562 11.688-4.562 11.688-.75 6.312 1 0H0Z"/>
<path transform="matrix(1,0,0,-1,371.2598,201.13568)" stroke-width="1" stroke-linecap="butt" stroke-miterlimit="10" stroke-linejoin="miter" fill="none" stroke="#000000" d="M0 0C0 0-.309-1.187-1.029-1.375"/>
<path transform="matrix(1,0,0,-1,372.2891,202.94532)" stroke-width="1" stroke-linecap="butt" stroke-miterlimit="10" stroke-linejoin="miter" fill="none" stroke="#000000" d="M0 0C0 0-.309-1.187-1.029-1.375"/>
<path transform="matrix(1,0,0,-1,373.3184,205.10639)" stroke-width="1" stroke-linecap="butt" stroke-miterlimit="10" stroke-linejoin="miter" fill="none" stroke="#000000" d="M0 0C0 0-.309-1.187-1.029-1.375"/>
<path transform="matrix(1,0,0,-1,373.833,207.50293)" stroke-width="1" stroke-linecap="butt" stroke-miterlimit="10" stroke-linejoin="miter" fill="none" stroke="#000000" d="M0 0C0 0-.309-1.187-1.029-1.375"/>
<path transform="matrix(1,0,0,-1,374.998,209.5459)" stroke-width="1" stroke-linecap="butt" stroke-miterlimit="10" stroke-linejoin="miter" fill="none" stroke="#000000" d="M0 0C0 0-.309-1.187-1.029-1.375"/>
<path transform="matrix(1,0,0,-1,375.6416,211.4707)" stroke-width="1" stroke-linecap="butt" stroke-miterlimit="10" stroke-linejoin="miter" fill="none" stroke="#000000" d="M0 0C0 0-.309-1.187-1.029-1.375"/>
<path transform="matrix(1,0,0,-1,333.5195,201.21973)" stroke-width="1" stroke-linecap="butt" stroke-miterlimit="10" stroke-linejoin="miter" fill="none" stroke="#000000" d="M0 0C0 0 .937-.793 1.634-.531"/>
<path transform="matrix(1,0,0,-1,333.7217,203.29199)" stroke-width="1" stroke-linecap="butt" stroke-miterlimit="10" stroke-linejoin="miter" fill="none" stroke="#000000" d="M0 0C0 0 .937-.793 1.634-.531"/>
<path transform="matrix(1,0,0,-1,334.127,205.65143)" stroke-width="1" stroke-linecap="butt" stroke-miterlimit="10" stroke-linejoin="miter" fill="none" stroke="#000000" d="M0 0C0 0 .936-.793 1.633-.53"/>
<path transform="matrix(1,0,0,-1,335.0879,207.90631)" stroke-width="1" stroke-linecap="butt" stroke-miterlimit="10" stroke-linejoin="miter" fill="none" stroke="#000000" d="M0 0C0 0 .936-.793 1.634-.53"/>
<path transform="matrix(1,0,0,-1,335.3135,210.24707)" stroke-width="1" stroke-linecap="butt" stroke-miterlimit="10" stroke-linejoin="miter" fill="none" stroke="#000000" d="M0 0C0 0 .937-.793 1.633-.53"/>
<path transform="matrix(1,0,0,-1,335.8965,212.1914)" stroke-width="1" stroke-linecap="butt" stroke-miterlimit="10" stroke-linejoin="miter" fill="none" stroke="#000000" d="M0 0C0 0 .937-.793 1.635-.531"/>
<path transform="matrix(1,0,0,-1,348.3848,234.19818)" stroke-width="1" stroke-linecap="butt" stroke-miterlimit="10" stroke-linejoin="miter" fill="none" stroke="#000000" d="M0 0V-3.313C0-3.313-.125-5.125-.75-5.312-1.375-5.5-.687-5.937-.375-6.625-.062-7.312 .812-7.437 1-6.625V-4.062L1.937-.875"/>
<path transform="matrix(1,0,0,-1,351.9062,234.96881)" stroke-width="1" stroke-linecap="butt" stroke-miterlimit="10" stroke-linejoin="miter" fill="none" stroke="#000000" d="M0 0C0 0 1-1.625 .5-4.417 .5-4.417 1-5.709 1.875-5.709 1.875-5.709 2.292-4.208 1.25-3.125L1.417-.209"/>
<path transform="matrix(1,0,0,-1,361.6143,232.51068)" stroke-width="1" stroke-linecap="butt" stroke-miterlimit="10" stroke-linejoin="miter" fill="none" stroke="#000000" d="M0 0C0 0 1.333-.958 .5-3.833 .5-3.833-.459-5.624 2.25-6.708 2.25-6.708 2.458-5.979 2.25-5.281 2.25-5.281 1.584-3.751 1.542-3.042L1.709 0"/>
<path transform="matrix(1,0,0,-1,370.6982,228.38568)" stroke-width="1" stroke-linecap="butt" stroke-miterlimit="10" stroke-linejoin="miter" fill="none" stroke="#000000" d="M0 0C0 0 1.666-2.125 1.916-4.125 1.916-4.125 1.832-5.541 2.416-6.583 2.416-6.583 2.982-7.792 4.429-7.792 4.429-7.792 4.612-6.583 3.785-5.812 3.785-5.812 2.086-3.374 2.105-3.083L1.708 .167"/>
<path transform="matrix(1,0,0,-1,345.0342,172.9414)" stroke-width="1" stroke-linecap="butt" stroke-miterlimit="10" stroke-linejoin="miter" fill="none" stroke="#000000" d="M0 0C0 0-4.927 61.157 54.431 52.481 54.431 52.481 72.136 49.976 81.087 29.516"/>
<path transform="matrix(1,0,0,-1,471.3672,592.3311)" stroke-width="1" stroke-linecap="butt" stroke-miterlimit="10" stroke-linejoin="miter" fill="none" stroke="#000000" d="M0 0C0-2.461-4.049-4.457-9.043-4.457-14.038-4.457-18.087-2.461-18.087 0-18.087 2.463-14.038 4.459-9.043 4.459-4.049 4.459 0 2.463 0 0Z"/>
<path transform="matrix(1,0,0,-1,469.6689,592.3135)" stroke-width="1" stroke-linecap="butt" stroke-miterlimit="10" stroke-linejoin="miter" fill="none" stroke="#000000" d="M0 0C0-1.816-3.288-3.287-7.345-3.287-11.403-3.287-14.691-1.816-14.691 0-14.691 1.816-11.403 3.287-7.345 3.287-3.288 3.287 0 1.816 0 0Z"/>
<path transform="matrix(1,0,0,-1,504.4795,597.5342)" stroke-width="1" stroke-linecap="butt" stroke-miterlimit="10" stroke-linejoin="miter" fill="none" stroke="#000000" d="M0 0C-.865-1.65-3.978-1.721-6.952-.16-9.927 1.4-11.636 4.004-10.77 5.652-9.903 7.303-6.792 7.375-3.816 5.812-.841 4.252 .866 1.648 0 0Z"/>
<path transform="matrix(1,0,0,-1,522.4551,618.208)" stroke-width="1" stroke-linecap="butt" stroke-miterlimit="10" stroke-linejoin="miter" fill="none" stroke="#000000" d="M0 0C-1.188-1.125-4.024-.059-6.332 2.381-8.641 4.822-9.548 7.713-8.357 8.836-7.167 9.963-4.333 8.896-2.024 6.453 .285 4.014 1.189 1.125 0 0Z"/>
<path transform="matrix(1,0,0,-1,520.5947,616.0342)" stroke-width="1" stroke-linecap="butt" stroke-miterlimit="10" stroke-linejoin="miter" fill="none" stroke="#000000" d="M0 0C-.659-.625-2.232-.033-3.514 1.322-4.795 2.676-5.297 4.279-4.637 4.902-3.977 5.527-2.403 4.936-1.123 3.58 .158 2.227 .66 .625 0 0Z"/>
<path transform="matrix(1,0,0,-1,502.4795,596.1924)" stroke-width="1" stroke-linecap="butt" stroke-miterlimit="10" stroke-linejoin="miter" fill="none" stroke="#000000" d="M0 0C-.543-1.037-2.5-1.082-4.37-.1-6.24 .881-7.314 2.518-6.771 3.555-6.227 4.592-4.27 4.637-2.399 3.654-.528 2.674 .545 1.037 0 0Z"/>
<path transform="matrix(1,0,0,-1,511.9639,660.0811)" stroke-width="1" stroke-linecap="butt" stroke-miterlimit="10" stroke-linejoin="miter" fill="none" stroke="#000000" d="M0 0C0 3.24-5.986 5.867-13.369 5.867-20.752 5.867-26.738 3.24-26.738 0-26.738-3.24-20.752-5.865-13.369-5.865-5.986-5.865 0-3.24 0 0Z"/>
<path transform="matrix(1,0,0,-1,508.7969,660.2607)" stroke-width="1" stroke-linecap="butt" stroke-miterlimit="10" stroke-linejoin="miter" fill="none" stroke="#000000" d="M0 0C0 2.127-4.683 3.852-10.458 3.852-16.232 3.852-20.916 2.127-20.916 0-20.916-2.129-16.232-3.852-10.458-3.852-4.683-3.852 0-2.129 0 0Z"/>
<path transform="matrix(1,0,0,-1,456.4004,691.2256)" stroke-width="1" stroke-linecap="butt" stroke-miterlimit="10" stroke-linejoin="miter" fill="none" stroke="#000000" d="M0 0C-.534-1.285-1.748-2-2.712-1.598-3.675-1.197-4.024 .168-3.488 1.453-2.955 2.736-1.74 3.453-.776 3.053 .188 2.65 .536 1.283 0 0Z"/>
<path transform="matrix(1,0,0,-1,456.8252,691.3096)" stroke-width="1" stroke-linecap="butt" stroke-miterlimit="10" stroke-linejoin="miter" fill="none" stroke="#000000" d="M0 0C-.687-1.648-2.244-2.566-3.482-2.051-4.719-1.535-5.167 .219-4.479 1.867-3.794 3.516-2.234 4.436-.996 3.92 .242 3.404 .688 1.65 0 0Z"/>
<path transform="matrix(1,0,0,-1,506.3809,630.4092)" stroke-width="1" stroke-linecap="butt" stroke-miterlimit="10" stroke-linejoin="miter" fill="none" stroke="#000000" d="M0 0 15.667 12 15.512 12.203C13.837 11.75 11.51 12.604 9.697 14.52 7.937 16.381 7.196 18.674 7.651 20.314L-6.423 8.5C-12.179 4.666-16.022 9.666-16.022 9.666-18.712 11.666-14.833 15.666-14.833 15.666L-1.833 32.5-1.893 32.535C-2.98 31.211-5.84 31.232-8.604 32.684-11.234 34.064-12.872 36.258-12.618 37.887L-27.334 19.334C-34.168 11.5-34.667 20.334-34.667 20.334V37.5H-35.097C-35.232 35.096-39.219 33.166-44.127 33.166-48.283 33.166-51.775 34.551-52.834 36.434V25.166C-52.834 16.166-59.167 13.793-59.167 13.793-96.167 2.752-98.834-49.5-98.834-49.5-106.334-49-109.411-52.084-109.411-52.084L-109.39-52.162C-109.05-51.957-108.673-51.834-108.271-51.834-106.81-51.834-105.625-53.35-105.625-55.219-105.625-56.83-106.507-58.174-107.687-58.516L-107.668-58.584-101.084-56.766C-99.167-58.031-106.167-65.168-106.167-65.168-116.501-76.5-98.838-99.334-98.838-99.334-93.176-108.168-98.834-117.502-98.834-117.502-99.168-127.502-77.667-125.668-77.667-125.668-48.834-122-46-107.168-46-107.168-45.613-105.814-46.545-103.859-46.992-102.627-47.761-100.51-48.665-98.449-49.582-96.395-50.137-95.15-50.673-93.869-51.337-92.68-51.502-92.385-50.325-90.258-50.173-89.871-49.813-88.965-49.474-88.053-49.18-87.123-48.654-85.465-48.267-83.752-48.205-82.008-48.099-79.047-49.043-76.256-50.534-73.729-51.871-71.461-53.547-69.369-55.425-67.527-56.969-66.012-58.681-64.678-60.515-63.531-61.334-63.018-62.179-62.553-63.022-62.082-63.07-62.055-63.117-62.025-63.167-62-65.501-59.834-67-56.287-67-56.287L-54-62-53.935-61.855C-54.306-61.07-54.319-60-53.89-58.973-53.435-57.875-52.591-57.113-51.713-56.869L-51.667-56.766-63.834-49.5C-59.834-25.334-52.834-18.848-52.834-18.848-29.512 1.531-22.456-23.5-21.099-29.795-20.532-26.783-14.794-24.418-7.786-24.418-1.659-24.418 3.494-26.229 5.073-28.695L5.166-28.687C3.832-19.039-1.167-6.5-1.167-6.5-4.167-1.334 0 0 0 0Z"/>
<path transform="matrix(1,0,0,-1,400.8125,685.5166)" stroke-width="1" stroke-linecap="butt" stroke-miterlimit="10" stroke-linejoin="miter" fill="none" stroke="#000000" d="M0 0C0-1.871-1.118-3.387-2.498-3.387-3.876-3.387-4.994-1.871-4.994 0-4.994 1.869-3.876 3.385-2.498 3.385-1.118 3.385 0 1.869 0 0Z"/>
<path transform="matrix(1,0,0,-1,400.1016,685.5166)" stroke-width="1" stroke-linecap="butt" stroke-miterlimit="10" stroke-linejoin="miter" fill="none" stroke="#000000" d="M0 0C0-1.434-.856-2.596-1.914-2.596-2.97-2.596-3.826-1.434-3.826 0-3.826 1.432-2.97 2.594-1.914 2.594-.856 2.594 0 1.432 0 0Z"/>
<path transform="matrix(1,0,0,-1,401.1826,719.4248)" stroke-width="1" stroke-linecap="butt" stroke-miterlimit="10" stroke-linejoin="miter" fill="none" stroke="#000000" d="M0 0C0 0-2.615 17.266 14.416 22.266 14.416 22.266 40.566 31.24 56.84 5.127"/>
<path transform="matrix(1,0,0,-1,400.8125,694.9463)" stroke-width="1" stroke-linecap="butt" stroke-miterlimit="10" stroke-linejoin="miter" fill="none" stroke="#000000" d="M0 0C0 0 14.319 15.537 42.401 2.537"/>
<path transform="matrix(1,0,0,-1,449.041,696.251)" stroke-width="1" stroke-linecap="butt" stroke-miterlimit="10" stroke-linejoin="miter" fill="none" stroke="#000000" d="M0 0C0 0 2.414-3.754 2.314-9.645"/>
<path transform="matrix(1,0,0,-1,442.6182,692.1377)" stroke-width="1" stroke-linecap="butt" stroke-miterlimit="10" stroke-linejoin="miter" fill="none" stroke="#000000" d="M0 0C0 0 2.714-3.313 2.071-8.563"/>
<path transform="matrix(1,0,0,-1,436.9316,689.8818)" stroke-width="1" stroke-linecap="butt" stroke-miterlimit="10" stroke-linejoin="miter" fill="none" stroke="#000000" d="M0 0C0 0 2.247-1.33 1.89-7.992"/>
<path transform="matrix(1,0,0,-1,430.5527,688.1318)" stroke-width="1" stroke-linecap="butt" stroke-miterlimit="10" stroke-linejoin="miter" fill="none" stroke="#000000" d="M0 0C0 0 2.609-1.086 2.614-8.182"/>
<path transform="matrix(1,0,0,-1,424.8389,687.2471)" stroke-width="1" stroke-linecap="butt" stroke-miterlimit="10" stroke-linejoin="miter" fill="none" stroke="#000000" d="M0 0C0 0 2.778-1.701 2.16-8.432"/>
<path transform="matrix(1,0,0,-1,419.9619,687.22366)" stroke-width="1" stroke-linecap="butt" stroke-miterlimit="10" stroke-linejoin="miter" fill="none" stroke="#000000" d="M0 0C0 0 .3-5.879 2.797-8.596"/>
<path transform="matrix(1,0,0,-1,414.4844,688.0049)" stroke-width="1" stroke-linecap="butt" stroke-miterlimit="10" stroke-linejoin="miter" fill="none" stroke="#000000" d="M0 0C0 0-1.08-4.5 2.741-8.703"/>
<path transform="matrix(1,0,0,-1,409.6543,689.4482)" stroke-width="1" stroke-linecap="butt" stroke-miterlimit="10" stroke-linejoin="miter" fill="none" stroke="#000000" d="M0 0C0 0-.878-4.801 2.903-8.818"/>
<path transform="matrix(1,0,0,-1,404.6357,691.96)" stroke-width="1" stroke-linecap="butt" stroke-miterlimit="10" stroke-linejoin="miter" fill="none" stroke="#000000" d="M0 0C0 0-1.257-4.9 3.307-9.113"/>
<path transform="matrix(1,0,0,-1,401.0381,694.7197)" stroke-width="1" stroke-linecap="butt" stroke-miterlimit="10" stroke-linejoin="miter" fill="none" stroke="#000000" d="M0 0C0 0-1.462-5.088 4.065-9.285"/>
<path transform="matrix(1,0,0,-1,398.1885,698.6279)" stroke-width="1" stroke-linecap="butt" stroke-miterlimit="10" stroke-linejoin="miter" fill="none" stroke="#000000" d="M0 0C0 0-.197-8.072 3.914-11.219"/>
<path transform="matrix(1,0,0,-1,412.9424,731.7646)" stroke-width="1" stroke-linecap="butt" stroke-miterlimit="10" stroke-linejoin="miter" fill="none" stroke="#000000" d="M0 0C0 0-3.438 9.75-5.812 11.563-8.188 13.375-9.875 22.562-5 26.875-5 26.875 1.062 34.875 23.5 31.937 23.5 31.937 37.875 28.937 40.25 9.25 40.25 9.25 39.75 9.313 38.813 11.563 38.813 11.563 36.75 29.752 19.312 31.064 19.312 31.064-.562 33.684-5.812 24.217-5.812 24.217-9.5 18.5-4.562 11.688-4.562 11.688-.75 6.312 1 0H0Z"/>
<path transform="matrix(1,0,0,-1,445.8174,710.3271)" stroke-width="1" stroke-linecap="butt" stroke-miterlimit="10" stroke-linejoin="miter" fill="none" stroke="#000000" d="M0 0C0 0-.309-1.187-1.029-1.375"/>
<path transform="matrix(1,0,0,-1,446.8467,712.1357)" stroke-width="1" stroke-linecap="butt" stroke-miterlimit="10" stroke-linejoin="miter" fill="none" stroke="#000000" d="M0 0C0 0-.309-1.187-1.029-1.375"/>
<path transform="matrix(1,0,0,-1,447.876,714.2979)" stroke-width="1" stroke-linecap="butt" stroke-miterlimit="10" stroke-linejoin="miter" fill="none" stroke="#000000" d="M0 0C0 0-.309-1.187-1.029-1.375"/>
<path transform="matrix(1,0,0,-1,448.3906,716.6943)" stroke-width="1" stroke-linecap="butt" stroke-miterlimit="10" stroke-linejoin="miter" fill="none" stroke="#000000" d="M0 0C0 0-.309-1.187-1.029-1.375"/>
<path transform="matrix(1,0,0,-1,449.5557,718.7373)" stroke-width="1" stroke-linecap="butt" stroke-miterlimit="10" stroke-linejoin="miter" fill="none" stroke="#000000" d="M0 0C0 0-.309-1.187-1.029-1.375"/>
<path transform="matrix(1,0,0,-1,450.1992,720.66116)" stroke-width="1" stroke-linecap="butt" stroke-miterlimit="10" stroke-linejoin="miter" fill="none" stroke="#000000" d="M0 0C0 0-.309-1.187-1.029-1.375"/>
<path transform="matrix(1,0,0,-1,408.0771,710.41116)" stroke-width="1" stroke-linecap="butt" stroke-miterlimit="10" stroke-linejoin="miter" fill="none" stroke="#000000" d="M0 0C0 0 .937-.793 1.634-.531"/>
<path transform="matrix(1,0,0,-1,408.2793,712.4834)" stroke-width="1" stroke-linecap="butt" stroke-miterlimit="10" stroke-linejoin="miter" fill="none" stroke="#000000" d="M0 0C0 0 .937-.793 1.634-.531"/>
<path transform="matrix(1,0,0,-1,408.6846,714.8428)" stroke-width="1" stroke-linecap="butt" stroke-miterlimit="10" stroke-linejoin="miter" fill="none" stroke="#000000" d="M0 0C0 0 .936-.793 1.633-.529"/>
<path transform="matrix(1,0,0,-1,409.6455,717.0967)" stroke-width="1" stroke-linecap="butt" stroke-miterlimit="10" stroke-linejoin="miter" fill="none" stroke="#000000" d="M0 0C0 0 .936-.793 1.634-.531"/>
<path transform="matrix(1,0,0,-1,409.8711,719.4385)" stroke-width="1" stroke-linecap="butt" stroke-miterlimit="10" stroke-linejoin="miter" fill="none" stroke="#000000" d="M0 0C0 0 .937-.793 1.633-.529"/>
<path transform="matrix(1,0,0,-1,410.4541,721.3818)" stroke-width="1" stroke-linecap="butt" stroke-miterlimit="10" stroke-linejoin="miter" fill="none" stroke="#000000" d="M0 0C0 0 .937-.793 1.635-.531"/>
<path transform="matrix(1,0,0,-1,422.9424,743.3896)" stroke-width="1" stroke-linecap="butt" stroke-miterlimit="10" stroke-linejoin="miter" fill="none" stroke="#000000" d="M0 0V-3.313C0-3.313-.125-5.125-.75-5.312-1.375-5.5-.687-5.937-.375-6.625-.062-7.312 .812-7.437 1-6.625V-4.062L1.937-.875"/>
<path transform="matrix(1,0,0,-1,426.4639,744.1592)" stroke-width="1" stroke-linecap="butt" stroke-miterlimit="10" stroke-linejoin="miter" fill="none" stroke="#000000" d="M0 0C0 0 1-1.625 .5-4.418 .5-4.418 1-5.709 1.875-5.709 1.875-5.709 2.292-4.209 1.25-3.125L1.417-.209"/>
<path transform="matrix(1,0,0,-1,436.1719,741.7021)" stroke-width="1" stroke-linecap="butt" stroke-miterlimit="10" stroke-linejoin="miter" fill="none" stroke="#000000" d="M0 0C0 0 1.333-.957 .5-3.832 .5-3.832-.459-5.623 2.25-6.707 2.25-6.707 2.458-5.979 2.25-5.281 2.25-5.281 1.584-3.75 1.542-3.041L1.709 0"/>
<path transform="matrix(1,0,0,-1,445.2559,737.5771)" stroke-width="1" stroke-linecap="butt" stroke-miterlimit="10" stroke-linejoin="miter" fill="none" stroke="#000000" d="M0 0C0 0 1.666-2.125 1.916-4.125 1.916-4.125 1.832-5.541 2.416-6.582 2.416-6.582 2.982-7.791 4.429-7.791 4.429-7.791 4.612-6.582 3.785-5.812 3.785-5.812 2.086-3.373 2.105-3.082L1.708 .168"/>
<path transform="matrix(1,0,0,-1,943.8193,135.33112)" stroke-width="1" stroke-linecap="butt" stroke-miterlimit="10" stroke-linejoin="miter" fill="none" stroke="#231f20" d="M0 0C0 0 20.638 17.772 36.401 0 36.401 0 63.634-34.969 30.956-46.147 30.956-46.147 37.262-59.333 25.51-64.493 25.51-64.493 11.178-81.118-21.499-70.511-21.499-70.511-37.837-65.926-33.249-53.026-33.249-53.026-61.628-44.143-52.456-23.503-52.456-23.503-36.117 28.377 0 0Z"/>
<path transform="matrix(1,0,0,-1,910.5703,188.35742)" stroke-width="1" stroke-linecap="butt" stroke-miterlimit="10" stroke-linejoin="miter" fill="none" stroke="#231f20" d="M0 0 33.965 21.562 64.205 6.879"/>
<path transform="matrix(1,0,0,-1,943.8193,135.33112)" stroke-width="1" stroke-linecap="butt" stroke-miterlimit="10" stroke-linejoin="miter" fill="none" stroke="#231f20" d="M0 0 .716-31.465"/>
</g>
<g clip-path="url(#clip_2)">
<text xml:space="preserve" transform="matrix(.9990522 0 -0 1.0009487 0 790)" font-size="15.924393" font-family="Calibri"><tspan y="-630.2283" x="905.7765 914.519 923.10226">RCC</tspan></text>
</g>
<g clip-path="url(#clip_3)">
<text xml:space="preserve" transform="matrix(.9990522 0 -0 1.0009487 0 790)" font-size="15.924393" font-family="Calibri"><tspan y="-629.18917" x="953.2931 959.99728 968.5168">LCC</tspan></text>
</g>
<text xml:space="preserve" transform="matrix(.9990522 0 -0 1.0009487 0 790)" font-size="15.924393" font-family="Calibri"><tspan y="-602.79147" x="931.18917 941.5081 949.9162 958.2446">Non-</tspan></text>
<g clip-path="url(#clip_4)">
<text xml:space="preserve" transform="matrix(.9990522 0 -0 1.0009487 0 790)" font-size="15.924393" font-family="Calibri"><tspan y="-583.4055" x="931.18917 939.852">CC</tspan></text>
</g>
<g clip-path="url(#clip_5)">
<path transform="matrix(1,0,0,-1,888.6309,169.22168)" d="M0 0 4.505 .346V1.385L0 1.038ZM7.623 .346H12.129V1.385H7.623ZM15.247 .346 19.752 .692V1.731H15.247ZM22.869 .692H27.374L27.029 1.731H22.869ZM30.493 1.038H34.65V2.078H30.493ZM38.117 1.038 42.274 1.385V2.426L38.117 2.078ZM45.74 1.385H49.898004V2.426H45.74ZM53.362 1.385 57.521 1.731V2.772L53.018 2.426ZM60.639 1.731H65.145V2.7719999H60.639ZM68.263 1.731 72.768 2.078V3.117H68.263ZM75.887 2.078H80.391V3.465L75.887 3.117ZM83.508 2.426H87.668V3.4650002H83.508ZM91.132 2.426 95.29 2.772V3.81L91.132 3.465ZM98.756 2.772H102.913997V3.809H98.756ZM106.379 2.772 108.111 3.117V4.156H106.379ZM1.387 4.851-6.93 .346 1.732-3.813ZM106.725-1.04 115.387 3.81 106.379 7.622Z"/>
<path transform="matrix(1,0,0,-1,886.9336,217.66699)" stroke-width="1" stroke-linecap="butt" stroke-miterlimit="10" stroke-linejoin="miter" fill="none" stroke="#000000" d="M0 0C0 0-6.256-.378-8.663 1.684-11.07 3.744-17.566 22.603-19.491 24.535-21.416 26.469-23.822 40.667-21.656 54.863-19.491 69.061-18.528 90.849-3.369 100.769 11.791 110.689 20.961 128.257 62.336 124.165 62.336 124.165 106.599 121.982 121.759 93.837 121.759 93.837 143.176 67.856 140.288 23.34 140.288 23.34 136.439 10.543 129.459 16.22 129.459 16.22 123.441 23.822 122.48 33.207 122.48 33.207 116.466 97.706 73.633 105.642 73.633 105.642 13.599 121.165-5.232 66.116-5.232 66.116-10.828 41.613 0 24.535 0 24.535 8.904 10.114 0 0Z"/>
<path transform="matrix(1,0,0,-1,877.3936,214.82318)" stroke-width="1" stroke-linecap="butt" stroke-miterlimit="10" stroke-linejoin="miter" fill="none" stroke="#000000" d="M0 0C0 0 1.289-37.252 0-43.749-1.288-50.246 16.518-65.406 36.009-71.903 36.009-71.903 83.462-83.455 103.409-73.107 103.409-73.107 114.695-73.417 124.079-61.471 124.079-61.471 147.364-32.479 147.181-8.858L141.913 11.972"/>
<path transform="matrix(1,0,0,-1,912.3789,254.3623)" stroke-width="1" stroke-linecap="butt" stroke-miterlimit="10" stroke-linejoin="miter" fill="none" stroke="#000000" d="M0 0C0 0 0-5.054-1.264-6.678-2.527-8.302-1.985-14.119 0-15.001 0-15.001 1.984-16.446 1.984-7.501 1.984 1.443 3.789-1.14 3.789-1.14"/>
<path transform="matrix(1,0,0,-1,944.0713,268.07814)" stroke-width="1" stroke-linecap="butt" stroke-miterlimit="10" stroke-linejoin="miter" fill="none" stroke="#000000" d="M0 0C0 0 2.434-2.888 1.884-5.414 1.334-7.941 1.876-11.009 4.041-11.189 4.041-11.189 6.218-7.472 4.041-5.595 4.041-5.595 .787-3.43 2.505 0"/>
<path transform="matrix(1,0,0,-1,953.707,260.6787)" stroke-width="1" stroke-linecap="butt" stroke-miterlimit="10" stroke-linejoin="miter" fill="none" stroke="#000000" d="M0 0C0 0-2.707-12.272 3.609-14.258 3.609-14.258 6.137-15.128 2.888-8.685L3.43-1.227"/>
<path transform="matrix(1,0,0,-1,961.1064,264.83009)" stroke-width="1" stroke-linecap="butt" stroke-miterlimit="10" stroke-linejoin="miter" fill="none" stroke="#000000" d="M0 0C0 0 1.985-2.93 1.263-4.533 .542-6.136-.902-7.949 2.526-11.464 2.526-11.464 3.79-10.987 2.526-7.76 2.526-7.76 .36-1.443 2.347 0"/>
<path transform="matrix(1,0,0,-1,991.7871,241.6416)" stroke-width="1" stroke-linecap="butt" stroke-miterlimit="10" stroke-linejoin="miter" fill="none" stroke="#000000" d="M0 0C0 0 2.707-4.211 3.248-6.932 3.789-9.653 1.984-14.345 8.302-15.608 8.302-15.608 8.302-13.623 7.038-10.375 7.038-10.375 3.789-7.668 4.15-5.141V0"/>
<path transform="matrix(1,0,0,-1,865.416,106.435489)" stroke-width="1" stroke-linecap="butt" stroke-miterlimit="10" stroke-linejoin="miter" fill="none" stroke="#000000" d="M0 0C2.23-2.188 1.924-6.278-.754-9.269-2.738-11.479-5.462-12.452-7.728-12.017L7.42-22.32C7.42-22.32 13.92-11.894 16.769-11.251L0 0Z"/>
<path transform="matrix(1,0,0,-1,864.6621,115.7041)" stroke-width="1" stroke-linecap="butt" stroke-miterlimit="10" stroke-linejoin="miter" fill="none" stroke="#000000" d="M0 0C-2.74-3.053-6.904-3.786-9.301-1.637-11.699 .511-11.422 4.729-8.684 7.784-5.945 10.843-1.781 11.575 .617 9.427 3.016 7.279 2.738 3.059 0 0Z"/>
<path transform="matrix(1,0,0,-1,863.4727,114.57709)" stroke-width="1" stroke-linecap="butt" stroke-miterlimit="10" stroke-linejoin="miter" fill="none" stroke="#000000" d="M0 0C-1.988-2.219-5.016-2.751-6.756-1.19-8.498 .37-8.299 3.436-6.308 5.656-4.319 7.878-1.293 8.41 .45 6.849 2.193 5.29 1.992 2.222 0 0Z"/>
<path transform="matrix(1,0,0,-1,1026.4805,114.93158)" stroke-width="1" stroke-linecap="butt" stroke-miterlimit="10" stroke-linejoin="miter" fill="none" stroke="#000000" d="M0 0C-2.538-1.824-2.857-5.913-.664-9.276 .96-11.763 3.505-13.14 5.811-13.053L-10.729-20.934C-10.729-20.934-15.566-9.639-18.285-8.569L0 0Z"/>
<path transform="matrix(1,0,0,-1,1025.8164,124.20801)" stroke-width="1" stroke-linecap="butt" stroke-miterlimit="10" stroke-linejoin="miter" fill="none" stroke="#000000" d="M0 0C2.242-3.435 6.247-4.792 8.941-3.032 11.639-1.275 12.008 2.936 9.766 6.372 7.525 9.813 3.52 11.17 .822 9.41-1.874 7.653-2.242 3.439 0 0Z"/>
<path transform="matrix(1,0,0,-1,1027.1621,123.27539)" stroke-width="1" stroke-linecap="butt" stroke-miterlimit="10" stroke-linejoin="miter" fill="none" stroke="#000000" d="M0 0C1.629-2.494 4.539-3.482 6.498-2.204 8.455-.927 8.725 2.133 7.096 4.632 5.469 7.13 2.557 8.115 .598 6.838-1.361 5.562-1.629 2.5 0 0Z"/>
<path transform="matrix(1,0,0,-1,976.6973,99.25)" stroke-width="1" stroke-linecap="butt" stroke-miterlimit="10" stroke-linejoin="miter" fill="none" stroke="#000000" d="M0 0 35.589-28.892"/>
<path transform="matrix(1,0,0,-1,952.6641,93.79883)" stroke-width="1" stroke-linecap="butt" stroke-miterlimit="10" stroke-linejoin="miter" fill="none" stroke="#000000" d="M0 0 69.426-56.934"/>
<path transform="matrix(1,0,0,-1,997.9258,144.6211)" stroke-width="1" stroke-linecap="butt" stroke-miterlimit="10" stroke-linejoin="miter" fill="none" stroke="#000000" d="M0 0 28.171-21.906"/>
<path transform="matrix(1,0,0,-1,931.6611,93.086917)" stroke-width="1" stroke-linecap="butt" stroke-miterlimit="10" stroke-linejoin="miter" fill="none" stroke="#000000" d="M0 0 22.926-17.829"/>
<path transform="matrix(1,0,0,-1,1006.166,167.02729)" stroke-width="1" stroke-linecap="butt" stroke-miterlimit="10" stroke-linejoin="miter" fill="none" stroke="#000000" d="M0 0 21.299-16.677"/>
<path transform="matrix(1,0,0,-1,915.5391,96.07031)" stroke-width="1" stroke-linecap="butt" stroke-miterlimit="10" stroke-linejoin="miter" fill="none" stroke="#000000" d="M0 0 18.291-14.321"/>
<path transform="matrix(1,0,0,-1,1009.25,184.66309)" stroke-width="1" stroke-linecap="butt" stroke-miterlimit="10" stroke-linejoin="miter" fill="none" stroke="#000000" d="M0 0 16.477-13.233"/>
<path transform="matrix(1,0,0,-1,904.9434,100.88281)" stroke-width="1" stroke-linecap="butt" stroke-miterlimit="10" stroke-linejoin="miter" fill="none" stroke="#000000" d="M0 0 15.148-12.166"/>
<path transform="matrix(1,0,0,-1,894.2656,108.600589)" stroke-width="1" stroke-linecap="butt" stroke-miterlimit="10" stroke-linejoin="miter" fill="none" stroke="#000000" d="M0 0 13.063-9.973"/>
<path transform="matrix(1,0,0,-1,886.3789,114.93158)" stroke-width="1" stroke-linecap="butt" stroke-miterlimit="10" stroke-linejoin="miter" fill="none" stroke="#000000" d="M0 0 11.717-10.466"/>
<path transform="matrix(1,0,0,-1,877.3281,122.4834)" stroke-width="1" stroke-linecap="butt" stroke-miterlimit="10" stroke-linejoin="miter" fill="none" stroke="#000000" d="M0 0 13.346-11.317"/>
<path transform="matrix(1,0,0,-1,871.29,133.03711)" stroke-width="1" stroke-linecap="butt" stroke-miterlimit="10" stroke-linejoin="miter" fill="none" stroke="#000000" d="M0 0 14.331-9.138"/>
<path transform="matrix(1,0,0,-1,868.168,143.92682)" stroke-width="1" stroke-linecap="butt" stroke-miterlimit="10" stroke-linejoin="miter" fill="none" stroke="#000000" d="M0 0 12.877-11.367"/>
<path transform="matrix(1,0,0,-1,865.8867,158.48053)" stroke-width="1" stroke-linecap="butt" stroke-miterlimit="10" stroke-linejoin="miter" fill="none" stroke="#000000" d="M0 0 14.432-10.868"/>
<path transform="matrix(1,0,0,-1,864.4219,171.34473)" stroke-width="1" stroke-linecap="butt" stroke-miterlimit="10" stroke-linejoin="miter" fill="none" stroke="#000000" d="M0 0 19.09-14.855"/>
<path transform="matrix(1,0,0,-1,865.3027,186.20117)" stroke-width="1" stroke-linecap="butt" stroke-miterlimit="10" stroke-linejoin="miter" fill="none" stroke="#000000" d="M0 0 25.371-19.434"/>
<path transform="matrix(1,0,0,-1,874.6064,208.16107)" stroke-width="1" stroke-linecap="butt" stroke-miterlimit="10" stroke-linejoin="miter" fill="none" stroke="#000000" d="M0 0 13.288-8.291"/>
</g>
<text xml:space="preserve" transform="matrix(1 0 -0 1 0 790)" font-size="14" font-family="Agenda"><tspan y="-225.8115" x="434.5562 443.22224 450.30625 455.20625 462.08024 466.85423 470.24223 477.9562 482.7302 485.9502 492.4042 497.1782 504.2622 511.34623">Anterior Trunk</tspan><tspan y="-708.2655" x="920.0482 928.71426 935.7982 940.6982 947.5722 952.3462 955.7342 963.4482">Anterior</tspan></text>
<text xml:space="preserve" transform="matrix(1 0 -0 1 0 790)" font-size="14" font-family="OpenSans"><tspan y="-708.2655" x="968.22219"> </tspan></text>
<text xml:space="preserve" transform="matrix(1 0 -0 1 0 790)" font-size="14" font-family="Agenda"><tspan y="-467.0035" x="929.75027 935.96627 943.59628 948.84628 953.7462 960.62026 965.3942 968.7822 976.4962">Posterior</tspan></text>
<text xml:space="preserve" transform="matrix(1 0 -0 1 0 790)" font-size="14" font-family="OpenSans"><tspan y="-467.0035" x="981.2702"> </tspan></text>
<text xml:space="preserve" transform="matrix(1 0 -0 1 0 790)" font-size="14" font-family="Agenda"><tspan y="-225.8115" x="758.1522 764.3682 771.9982 777.2482 782.1482 789.0222 793.7962 797.1842 804.8982 809.6722 812.89218 819.3461 824.1201 831.2041 838.2881">Posterior Trunk</tspan></text>
<text xml:space="preserve" transform="matrix(1 0 -0 1 0 790)" font-size="12" font-family="Agenda"><tspan y="-629.4414" x="1054.7774 1057.8613 1063.9334 1068.1333 1074.0253 1078.1173 1084.1893 1089.6614">Internal</tspan><tspan y="-615.0414" x="1054.1054 1061.5333 1067.6054 1073.6774 1079.7494 1082.9054 1088.9774">Annulus</tspan><tspan y="-529.3254" x="1037.0414 1044.4694 1050.5414 1054.7413 1060.6333 1064.7254 1067.6294 1074.2415 1078.3335 1081.0935 1091.0535 1093.9575 1098.2775 1102.1295 1107.6016">Anterior Mitral</tspan><tspan y="-514.92538" x="1037.0414 1042.4174 1048.2373 1053.7094 1057.8134 1060.9694 1066.8613">Leaflet</tspan><tspan y="-322.33735" x="389.2574 396.6854 402.7574 406.9574 412.8494 416.9414 419.8454 426.4574 430.5494 433.30943 443.2694 446.1734 450.4934 454.34544 459.81745">Anterior Mitral</tspan><tspan y="-307.93736" x="389.2574 394.6334 400.4534 405.9254 410.02943 413.18544 419.07743">Leaflet</tspan></text>
<text xml:space="preserve" transform="matrix(1 0 -0 1 0 790)" font-size="18" font-family="Agenda"><tspan y="-563.3613" x="516.3623 528.6203 534.3983 542.6063 548.63638 555.11636 566.22238 574.2864 583.0164 591.2244 597.37869 602.1127 610.9507 617.43069 621.5707 635.17868 644.2867 650.9287 659.7667 665.9047 673.8427 681.69076 688.1707 692.52676 702.44479">Graft/Leaflet Observation</tspan><tspan y="-541.76138" x="568.9763 580.11837 590.0364 596.38858 602.8685 607.22457 615.46859 619.6086 629.1126 637.3206 642.0546 650.08267">Aortic Valve</tspan><tspan y="-520.1614" x="562.5503 567.4103 571.7663 580.87429 587.17428 596.01229 602.15029 606.5063 616.4243 622.5623 626.70236 635.09036 639.44638 648.01437 660.48837">(interior view)</tspan></text>
<g clip-path="url(#clip_6)">
<path transform="matrix(1,0,0,-1,805.3008,591.2686)" stroke-width="1" stroke-linecap="butt" stroke-miterlimit="10" stroke-linejoin="miter" fill="none" stroke="#000000" d="M0 0C0-2.463 4.049-4.459 9.043-4.459 14.038-4.459 18.087-2.463 18.087 0 18.087 2.463 14.038 4.459 9.043 4.459 4.049 4.459 0 2.463 0 0Z"/>
<path transform="matrix(1,0,0,-1,806.999,591.251)" stroke-width="1" stroke-linecap="butt" stroke-miterlimit="10" stroke-linejoin="miter" fill="none" stroke="#000000" d="M0 0C0-1.816 3.288-3.287 7.345-3.287 11.403-3.287 14.691-1.816 14.691 0 14.691 1.814 11.403 3.287 7.345 3.287 3.288 3.287 0 1.814 0 0Z"/>
<path transform="matrix(1,0,0,-1,772.1885,596.47366)" stroke-width="1" stroke-linecap="butt" stroke-miterlimit="10" stroke-linejoin="miter" fill="none" stroke="#000000" d="M0 0C.865-1.648 3.978-1.721 6.952-.158 9.927 1.402 11.636 4.004 10.77 5.654 9.903 7.305 6.792 7.377 3.816 5.814 .841 4.254-.866 1.65 0 0Z"/>
<path transform="matrix(1,0,0,-1,754.2129,617.1475)" stroke-width="1" stroke-linecap="butt" stroke-miterlimit="10" stroke-linejoin="miter" fill="none" stroke="#000000" d="M0 0C1.188-1.125 4.024-.059 6.332 2.383 8.641 4.824 9.548 7.713 8.357 8.838 7.167 9.963 4.333 8.898 2.024 6.455-.285 4.016-1.189 1.125 0 0Z"/>
<path transform="matrix(1,0,0,-1,756.0732,614.97366)" stroke-width="1" stroke-linecap="butt" stroke-miterlimit="10" stroke-linejoin="miter" fill="none" stroke="#000000" d="M0 0C.659-.623 2.232-.031 3.514 1.322 4.795 2.678 5.297 4.281 4.637 4.904 3.977 5.529 2.403 4.937 1.123 3.582-.158 2.229-.66 .625 0 0Z"/>
<path transform="matrix(1,0,0,-1,774.1885,595.1299)" stroke-width="1" stroke-linecap="butt" stroke-miterlimit="10" stroke-linejoin="miter" fill="none" stroke="#000000" d="M0 0C.543-1.037 2.5-1.082 4.37-.102 6.24 .881 7.314 2.518 6.771 3.555 6.227 4.592 4.27 4.637 2.399 3.654 .528 2.674-.545 1.037 0 0Z"/>
<path transform="matrix(1,0,0,-1,764.7041,659.0205)" stroke-width="1" stroke-linecap="butt" stroke-miterlimit="10" stroke-linejoin="miter" fill="none" stroke="#000000" d="M0 0C0 3.24 5.986 5.867 13.369 5.867 20.752 5.867 26.738 3.24 26.738 0 26.738-3.238 20.752-5.865 13.369-5.865 5.986-5.865 0-3.238 0 0Z"/>
<path transform="matrix(1,0,0,-1,767.8711,659.2002)" stroke-width="1" stroke-linecap="butt" stroke-miterlimit="10" stroke-linejoin="miter" fill="none" stroke="#000000" d="M0 0C0 2.127 4.683 3.852 10.458 3.852 16.232 3.852 20.916 2.127 20.916 0 20.916-2.127 16.232-3.852 10.458-3.852 4.683-3.852 0-2.127 0 0Z"/>
<path transform="matrix(1,0,0,-1,820.2676,690.165)" stroke-width="1" stroke-linecap="butt" stroke-miterlimit="10" stroke-linejoin="miter" fill="none" stroke="#000000" d="M0 0C.534-1.285 1.748-2 2.712-1.598 3.675-1.197 4.024 .17 3.488 1.453 2.955 2.736 1.74 3.453 .776 3.053-.188 2.65-.536 1.283 0 0Z"/>
<path transform="matrix(1,0,0,-1,819.8428,690.2471)" stroke-width="1" stroke-linecap="butt" stroke-miterlimit="10" stroke-linejoin="miter" fill="none" stroke="#000000" d="M0 0C.687-1.648 2.244-2.568 3.482-2.053 4.719-1.537 5.167 .217 4.479 1.865 3.794 3.514 2.234 4.434 .996 3.918-.242 3.402-.688 1.648 0 0Z"/>
<path transform="matrix(1,0,0,-1,821.6904,707.0342)" stroke-width="1" stroke-linecap="butt" stroke-miterlimit="10" stroke-linejoin="miter" fill="none" stroke="#000000" d="M0 0C-1.134-2.707-3.305-1.359-3.198-4.322-3.137-6.064-2.749-7.779-2.224-9.438-1.93-10.365-1.59-11.279-1.23-12.184-1.078-12.57 .099-14.697-.066-14.994-.73-16.184-1.267-17.465-1.821-18.707-2.738-20.764-3.643-22.824-4.411-24.939-4.858-26.172-5.79-28.129-5.403-29.48-5.403-29.48-2.569-44.314 26.264-47.98 26.264-47.98 47.765-49.814 47.431-39.814 47.431-39.814 41.772-30.48 47.435-21.648 47.435-21.648 59.186-7.314 52.558 10.02 52.558 10.02 47.764 19.654 49.681 20.92L56.265 19.102 56.283 19.17C55.104 19.512 54.222 20.855 54.222 22.467 54.222 24.336 55.406 25.852 56.868 25.852 57.27 25.852 57.646 25.729 57.986 25.523L58.008 25.602C58.008 25.602 54.931 28.686 47.431 28.186 47.431 28.186 44.764 80.439 7.764 91.48 7.764 91.48 1.431 93.854 1.431 102.854V114.119C.372 112.238-3.12 110.854-7.276 110.854-12.185 110.854-16.171 112.783-16.307 115.188H-16.736V98.02C-16.736 98.02-17.235 89.188-24.069 97.02L-38.785 115.574C-38.531 113.945-40.169 111.752-42.799 110.371-45.563 108.92-48.423 108.898-49.511 110.223L-49.57 110.188-36.57 93.354C-36.57 93.354-32.691 89.354-35.381 87.354-35.381 87.354-39.225 82.354-44.98 86.188L-59.055 98C-58.6 96.361-59.341 94.068-61.101 92.207-62.913 90.291-65.24 89.438-66.915 89.891L-67.07 89.688-51.403 77.686C-51.403 77.686-47.236 76.352-50.236 71.186-50.236 71.186-55.235 58.646-56.569 49L-56.477 48.99C-54.897 51.457-49.744 53.27-43.617 53.27-36.609 53.27-30.871 50.902-30.305 47.891-28.947 54.188-21.892 79.217 1.431 58.84 1.431 58.84 8.431 52.352 12.431 28.186L.264 20.92 .31 20.816C1.187 20.572 2.031 19.811 2.486 18.715 2.916 17.686 2.902 16.615 2.531 15.832L2.597 15.686 11.557 20.033C11.557 20.033 11.723 18.193 11.057 16.52 10.391 14.846 2.171 5.187 0 0Z"/>
<path transform="matrix(1,0,0,-1,875.8555,684.4561)" stroke-width="1" stroke-linecap="butt" stroke-miterlimit="10" stroke-linejoin="miter" fill="none" stroke="#000000" d="M0 0C0-1.869 1.118-3.387 2.498-3.387 3.876-3.387 4.994-1.869 4.994 0 4.994 1.869 3.876 3.385 2.498 3.385 1.118 3.385 0 1.869 0 0Z"/>
<path transform="matrix(1,0,0,-1,876.5664,684.4561)" stroke-width="1" stroke-linecap="butt" stroke-miterlimit="10" stroke-linejoin="miter" fill="none" stroke="#000000" d="M0 0C0-1.434 .856-2.594 1.914-2.594 2.97-2.594 3.826-1.434 3.826 0 3.826 1.432 2.97 2.594 1.914 2.594 .856 2.594 0 1.432 0 0Z"/>
<path transform="matrix(1,0,0,-1,875.626,714.2158)" stroke-width="1" stroke-linecap="butt" stroke-miterlimit="10" stroke-linejoin="miter" fill="none" stroke="#000000" d="M0 0C0 0-19.396 15.045-57.071 2.045"/>
<path transform="matrix(1,0,0,-1,874.8115,717.4404)" stroke-width="1" stroke-linecap="butt" stroke-miterlimit="10" stroke-linejoin="miter" fill="none" stroke="#000000" d="M0 0C0 0-17.616 13.893-55.292 .893"/>
<path transform="matrix(1,0,0,-1,834.1211,678.84866)" stroke-width="1" stroke-linecap="butt" stroke-miterlimit="10" stroke-linejoin="miter" fill="none" stroke="#000000" d="M0 0-.874-8.152"/>
<path transform="matrix(1,0,0,-1,869.1211,678.84866)" stroke-width="1" stroke-linecap="butt" stroke-miterlimit="10" stroke-linejoin="miter" fill="none" stroke="#000000" d="M0 0 2.313-11.256"/>
<path transform="matrix(1,0,0,-1,848.335,706.8838)" stroke-width="1" stroke-linecap="butt" stroke-miterlimit="10" stroke-linejoin="miter" fill="none" stroke="#231f20" d="M0 0C0 0 .835-1.705 0-3.663"/>
<path transform="matrix(1,0,0,-1,858.0488,707.70706)" stroke-width="1" stroke-linecap="butt" stroke-miterlimit="10" stroke-linejoin="miter" fill="none" stroke="#231f20" d="M0 0C0 0 1.119-1.105-.715-3.285"/>
<path transform="matrix(1,0,0,-1,867.334,710.5469)" stroke-width="1" stroke-linecap="butt" stroke-miterlimit="10" stroke-linejoin="miter" fill="none" stroke="#231f20" d="M0 0C0 0 .086-1.559-1.124-2.842"/>
<path transform="matrix(1,0,0,-1,873.292,712.7471)" stroke-width="1" stroke-linecap="butt" stroke-miterlimit="10" stroke-linejoin="miter" fill="none" stroke="#231f20" d="M0 0C0 0 .646-2.201-1.323-2.979"/>
<path transform="matrix(1,0,0,-1,837.5,707.70706)" stroke-width="1" stroke-linecap="butt" stroke-miterlimit="10" stroke-linejoin="miter" fill="none" stroke="#231f20" d="M0 0C0 0-1.334-1.891 0-4.261"/>
<path transform="matrix(1,0,0,-1,827.5,709.8379)" stroke-width="1" stroke-linecap="butt" stroke-miterlimit="10" stroke-linejoin="miter" fill="none" stroke="#231f20" d="M0 0C0 0-1-1.102 0-3.551"/>
<path transform="matrix(1,0,0,-1,821,711.6133)" stroke-width="1" stroke-linecap="butt" stroke-miterlimit="10" stroke-linejoin="miter" fill="none" stroke="#231f20" d="M0 0C0 0-.311-2.321 1.012-4.106"/>
</g>
<text xml:space="preserve" transform="matrix(1 0 -0 1 0 790)" font-size="18" font-family="OpenSans"><tspan y="-413.4219" x="722.1958 733.3198">RC</tspan><tspan y="-411.8019" x="620.9998 630.3418">LC</tspan></text>
<g clip-path="url(#clip_7)">
<path transform="matrix(1,0,0,-1,473.6885,310.2686)" stroke-width="2" stroke-linecap="butt" stroke-miterlimit="10" stroke-linejoin="miter" fill="none" stroke="#231f20" d="M0 0C0 0 5.037 11.415 18.131 12.759 18.131 12.759 245.437 25.181 306.879 8.394 306.879 8.394 315.261-2.015 318.12-9.065L314.937-142.021 307.886-145.041H7.052L-2.321-140.008 0 0Z"/>
<path transform="matrix(1,0,0,-1,480.7402,455.3096)" stroke-width="2" stroke-linecap="butt" stroke-miterlimit="10" stroke-linejoin="miter" fill="none" stroke="#231f20" d="M0 0 2.351 138.998C2.351 138.998 5.709 148.062 19.809 150.077 19.809 150.077 250.808 162.5 293.784 144.369 293.784 144.369 302.178 135.976 303.521 131.946L300.834 0"/>
<path transform="matrix(1,0,0,-1,584.5801,374.915)" stroke-width="2" stroke-linecap="butt" stroke-miterlimit="10" stroke-linejoin="miter" fill="none" stroke="#231f20" d="M0 0C-5.945-37.591-26.319-65.287-50.539-65.287-74.974-65.287-95.495-37.097-101.233 1.007-101.23 .982-99.145-.399-99.108-.399-97.105-6.562-94.634-10.734-90.686-15.877-85.801-22.239-79.401-28.755-70.735-28.235-68.019-28.071-65.37-27.319-62.831-26.372-59.884-25.271-56.923-24.222-54.245-22.536-51.96-24.911-48.255-26.386-45.208-27.487-37.854-30.146-29.384-29.263-22.491-25.665-17.487-23.05-13.223-18.687-10.076-14.033-7.989-10.945-5.896-7.863-3.808-4.775-2.605-2.998-1.591-1.413 0 0Z"/>
<path transform="matrix(1,0,0,-1,685.458,375.207)" stroke-width="2" stroke-linecap="butt" stroke-miterlimit="10" stroke-linejoin="miter" fill="none" stroke="#231f20" d="M0 0C-5.926-37.59-26.228-65.286-50.363-65.286-74.711-65.286-94.133-36.805-99.851 1.299-99.848 1.274-98.797-.398-98.76-.398-96.765-6.562-94.303-10.733-90.367-15.876-85.499-22.236-79.123-28.752-70.487-28.234-65.01-27.904-58.675-25.457-54.056-22.539-51.721-24.928-48.143-26.363-45.051-27.486-37.724-30.145-29.281-29.262-22.412-25.662-17.428-23.049-13.178-18.687-10.042-14.032-7.962-10.944-5.875-7.862-3.797-4.776-2.598-2.999-1.588-1.411 0 0Z"/>
<path transform="matrix(1,0,0,-1,782.0625,376.5205)" stroke-width="2" stroke-linecap="butt" stroke-miterlimit="10" stroke-linejoin="miter" fill="none" stroke="#231f20" d="M0 0C-5.681-35.796-25.142-62.17-48.278-62.17-71.618-62.17-90.023-33.962-95.506 2.32-95.502 2.299-94.706-.38-94.671-.38-92.759-6.248-90.398-10.221-86.626-15.117-81.959-21.177-75.847-27.38-67.57-26.886-64.976-26.733-62.443-26.015-60.019-25.112-57.211-24.067-54.37-23.06-51.817-21.462-49.548-23.771-46.18-25.095-43.184-26.175-36.161-28.706-28.069-27.864-21.484-24.437-16.705-21.95-12.632-17.795-9.626-13.363-7.633-10.424-5.632-7.488-3.638-4.549-2.489-2.855-1.521-1.344 0 0Z"/>
<path transform="matrix(1,0,0,-1,783.2529,372.8838)" stroke-width="2" stroke-linecap="butt" stroke-miterlimit="10" stroke-linejoin="miter" fill="none" stroke="#231f20" d="M0 0 7.098-7.39"/>
<path transform="matrix(1,0,0,-1,783.2529,381.7607)" stroke-width="2" stroke-linecap="butt" stroke-miterlimit="10" stroke-linejoin="miter" fill="none" stroke="#231f20" d="M0 0 7.098-7.391"/>
<path transform="matrix(1,0,0,-1,782.8906,390.6768)" stroke-width="2" stroke-linecap="butt" stroke-miterlimit="10" stroke-linejoin="miter" fill="none" stroke="#231f20" d="M0 0 7.035-7.337"/>
<path transform="matrix(1,0,0,-1,782.8906,400.332)" stroke-width="2" stroke-linecap="butt" stroke-miterlimit="10" stroke-linejoin="miter" fill="none" stroke="#231f20" d="M0 0 7.035-7.461"/>
<path transform="matrix(1,0,0,-1,782.5049,409.6582)" stroke-width="2" stroke-linecap="butt" stroke-miterlimit="10" stroke-linejoin="miter" fill="none" stroke="#231f20" d="M0 0 6.654-6.932"/>
<path transform="matrix(1,0,0,-1,782.0625,418.8809)" stroke-width="2" stroke-linecap="butt" stroke-miterlimit="10" stroke-linejoin="miter" fill="none" stroke="#231f20" d="M0 0 7.097-7.394"/>
<path transform="matrix(1,0,0,-1,782.0625,427.2393)" stroke-width="2" stroke-linecap="butt" stroke-miterlimit="10" stroke-linejoin="miter" fill="none" stroke="#231f20" d="M0 0 7.097-7.387"/>
<path transform="matrix(1,0,0,-1,782.0625,436.7979)" stroke-width="2" stroke-linecap="butt" stroke-miterlimit="10" stroke-linejoin="miter" fill="none" stroke="#231f20" d="M0 0 6.765-7.047"/>
<path transform="matrix(1,0,0,-1,781.749,446.7744)" stroke-width="2" stroke-linecap="butt" stroke-miterlimit="10" stroke-linejoin="miter" fill="none" stroke="#231f20" d="M0 0 6.061-6.311"/>
<path transform="matrix(1,0,0,-1,482.0889,375.5615)" stroke-width="2" stroke-linecap="butt" stroke-miterlimit="10" stroke-linejoin="miter" fill="none" stroke="#231f20" d="M0 0-9.595-6.721"/>
<path transform="matrix(1,0,0,-1,482.0889,385.5107)" stroke-width="2" stroke-linecap="butt" stroke-miterlimit="10" stroke-linejoin="miter" fill="none" stroke="#231f20" d="M0 0-9.595-6.721"/>
<path transform="matrix(1,0,0,-1,482.0889,394.6182)" stroke-width="2" stroke-linecap="butt" stroke-miterlimit="10" stroke-linejoin="miter" fill="none" stroke="#231f20" d="M0 0-9.595-6.722"/>
<path transform="matrix(1,0,0,-1,481.5977,404.627)" stroke-width="2" stroke-linecap="butt" stroke-miterlimit="10" stroke-linejoin="miter" fill="none" stroke="#231f20" d="M0 0-9.589-7.035"/>
<path transform="matrix(1,0,0,-1,481.4365,414.1504)" stroke-width="2" stroke-linecap="butt" stroke-miterlimit="10" stroke-linejoin="miter" fill="none" stroke="#231f20" d="M0 0-9.593-7.332"/>
<path transform="matrix(1,0,0,-1,480.96,424.2881)" stroke-width="2" stroke-linecap="butt" stroke-miterlimit="10" stroke-linejoin="miter" fill="none" stroke="#231f20" d="M0 0-9.593-6.721"/>
<path transform="matrix(1,0,0,-1,480.96,433.7744)" stroke-width="2" stroke-linecap="butt" stroke-miterlimit="10" stroke-linejoin="miter" fill="none" stroke="#231f20" d="M0 0-9.593-6.719"/>
<path transform="matrix(1,0,0,-1,480.96,443.0127)" stroke-width="2" stroke-linecap="butt" stroke-miterlimit="10" stroke-linejoin="miter" fill="none" stroke="#231f20" d="M0 0-9.593-6.723"/>
<path transform="matrix(1,0,0,-1,490.6504,401.3398)" stroke-width="1" stroke-linecap="butt" stroke-miterlimit="10" stroke-linejoin="miter" fill="none" stroke="#000000" d="M0 0C0 0 11.23-64.163-5.425-83.163L14.055-66.327 11.971-94.163 30.235-66.327 32.328-94.163 52.92-71.163 60.92-94.163V-75.163L68.92-80.163 73.92-66.327 88.92-87.163C88.92-87.163 91.436-30.478 106.678-10.322"/>
<path transform="matrix(1,0,0,-1,495.5674,475.5654)" stroke-width="1" stroke-linecap="butt" stroke-miterlimit="10" stroke-linejoin="miter" fill="none" stroke="#000000" d="M0 0 1.336-11.938 8.252-3.932"/>
<path transform="matrix(1,0,0,-1,513.5742,478.8115)" stroke-width="1" stroke-linecap="butt" stroke-miterlimit="10" stroke-linejoin="miter" fill="none" stroke="#000000" d="M0 0V-12.691L8.354-2.723"/>
<path transform="matrix(1,0,0,-1,532.2412,485.1572)" stroke-width="1" stroke-linecap="butt" stroke-miterlimit="10" stroke-linejoin="miter" fill="none" stroke="#000000" d="M0 0V-13.346L7.996-6.346 11.662-9.014 15.73 0"/>
<path transform="matrix(1,0,0,-1,635.0391,387.2266)" stroke-width="1" stroke-linecap="butt" stroke-miterlimit="10" stroke-linejoin="miter" fill="none" stroke="#231f20" d="M0 0C0-1.985-2.173-3.595-4.854-3.595-7.533-3.595-9.705-1.985-9.705 0-9.705 1.986-7.533 3.595-4.854 3.595-2.173 3.595 0 1.986 0 0Z"/>
<path transform="matrix(1,0,0,-1,630.1855,383.1553)" stroke-width="1" stroke-linecap="butt" stroke-miterlimit="10" stroke-linejoin="miter" fill="none" stroke="#231f20" d="M0 0C0 0-.564 2.259 .783 2.882"/>
<path transform="matrix(1,0,0,-1,633.8506,384.875)" stroke-width="1" stroke-linecap="butt" stroke-miterlimit="10" stroke-linejoin="miter" fill="none" stroke="#231f20" d="M0 0C0 0 1.835 2.259 3.184 1.72"/>
<path transform="matrix(1,0,0,-1,635.0391,387.2266)" stroke-width="1" stroke-linecap="butt" stroke-miterlimit="10" stroke-linejoin="miter" fill="none" stroke="#231f20" d="M0 0C0 0 2.399 .017 2.804-1.461"/>
<path transform="matrix(1,0,0,-1,630.1855,390.8213)" stroke-width="1" stroke-linecap="butt" stroke-miterlimit="10" stroke-linejoin="miter" fill="none" stroke="#231f20" d="M0 0C0 0 .951-2.016-.117-2.683"/>
<path transform="matrix(1,0,0,-1,625.334,386.1709)" stroke-width="1" stroke-linecap="butt" stroke-miterlimit="10" stroke-linejoin="miter" fill="none" stroke="#231f20" d="M0 0C0 0-1.834 .092-2.5 1.296"/>
<path transform="matrix(1,0,0,-1,626.7354,389.7529)" stroke-width="1" stroke-linecap="butt" stroke-miterlimit="10" stroke-linejoin="miter" fill="none" stroke="#231f20" d="M0 0C0 0-1.568-1.719-3.901-1.068"/>
<path transform="matrix(1,0,0,-1,735.4004,387.5645)" stroke-width="1" stroke-linecap="butt" stroke-miterlimit="10" stroke-linejoin="miter" fill="none" stroke="#231f20" d="M0 0C0-1.985-2.172-3.595-4.852-3.595-7.532-3.595-9.705-1.985-9.705 0-9.705 1.986-7.532 3.595-4.852 3.595-2.172 3.595 0 1.986 0 0Z"/>
<path transform="matrix(1,0,0,-1,730.5488,383.4932)" stroke-width="1" stroke-linecap="butt" stroke-miterlimit="10" stroke-linejoin="miter" fill="none" stroke="#231f20" d="M0 0C0 0-.566 2.259 .781 2.882"/>
<path transform="matrix(1,0,0,-1,734.2129,385.2129)" stroke-width="1" stroke-linecap="butt" stroke-miterlimit="10" stroke-linejoin="miter" fill="none" stroke="#231f20" d="M0 0C0 0 1.836 2.259 3.184 1.72"/>
<path transform="matrix(1,0,0,-1,735.4004,387.5645)" stroke-width="1" stroke-linecap="butt" stroke-miterlimit="10" stroke-linejoin="miter" fill="none" stroke="#231f20" d="M0 0C0 0 2.4 .017 2.805-1.461"/>
<path transform="matrix(1,0,0,-1,730.5488,391.1592)" stroke-width="1" stroke-linecap="butt" stroke-miterlimit="10" stroke-linejoin="miter" fill="none" stroke="#231f20" d="M0 0C0 0 .95-2.016-.118-2.683"/>
<path transform="matrix(1,0,0,-1,725.6953,386.5088)" stroke-width="1" stroke-linecap="butt" stroke-miterlimit="10" stroke-linejoin="miter" fill="none" stroke="#231f20" d="M0 0C0 0-1.832 .092-2.5 1.296"/>
<path transform="matrix(1,0,0,-1,727.0977,390.0908)" stroke-width="1" stroke-linecap="butt" stroke-miterlimit="10" stroke-linejoin="miter" fill="none" stroke="#231f20" d="M0 0C0 0-1.568-1.719-3.902-1.068"/>
</g>
</g>
<path transform="matrix(1,0,0,-1,0,790)" d="M1044 611H1101.35V642.775H1044Z" fill="#ffffff"/>
<path transform="matrix(1,0,0,-1,0,790)" stroke-width="1.55" stroke-linecap="butt" stroke-miterlimit="10" stroke-linejoin="miter" fill="none" stroke="#ffffff" d="M1044 611H1101.35V642.775H1044Z"/>
</svg>
