<svg xmlns="http://www.w3.org/2000/svg" xmlns:xlink="http://www.w3.org/1999/xlink" version="1.1" width="1240pt" height="790pt" viewBox="0 0 1240 790">
<defs>
<clipPath id="clip_0">
<path transform="matrix(1,0,0,-1,0,790)" d="M0 790H1240V0H0Z"/>
</clipPath>
<clipPath id="clip_1">
<path transform="matrix(1,0,0,-1,0,790)" d="M0 790H1240V0H0Z"/>
</clipPath>
<clipPath id="clip_2">
<path transform="matrix(1,0,0,-1,0,790)" d="M0 790H1240V0H0Z"/>
</clipPath>
</defs>
<g id="layer_1" data-name="">
<path transform="matrix(1,0,0,-1,0,790)" d="M0 1H1239.223V790H0Z" fill="#ffffff"/>
<text xml:space="preserve" transform="matrix(1 0 -0 1 0 790)" font-size="18" font-family="OpenSans" font-weight="bold"><tspan y="-760" x="535.4434 547.34146 557.24148 568.65347 578.69747 592.79147 606.0034 611.4934 625.5874 638.6554 643.3354 655.2334 669.3994 680.9014 691.0894">ASCENDING AORTA</tspan></text>
<path transform="matrix(1,0,0,-1,424.3418,142.38483)" d="M0 0 2.16 8.399 1.439 8.64-.721 .239Z"/>
<path transform="matrix(1,0,0,-1,423.8613,142.625)" d="M0 0-9.84 4.56-9.359 5.279 .24 .72Z"/>
<path transform="matrix(1,0,0,-1,342.0215,175.50592)" d="M0 0-6 5.281-5.52 5.762 .48 .721Z"/>
<path transform="matrix(1,0,0,-1,343.4609,176.22461)" d="M0 0 7.201 8.4 6.721 8.879-.719 .48Z"/>
<g clip-path="url(#clip_0)">
<path transform="matrix(1,0,0,-1,395.0303,81.140628)" stroke-width="1" stroke-linecap="butt" stroke-miterlimit="10" stroke-linejoin="miter" fill="none" stroke="#000000" d="M0 0C0-2.462-4.049-4.458-9.043-4.458-14.038-4.458-18.087-2.462-18.087 0-18.087 2.462-14.038 4.458-9.043 4.458-4.049 4.458 0 2.462 0 0Z"/>
<path transform="matrix(1,0,0,-1,393.332,81.12402)" stroke-width="1" stroke-linecap="butt" stroke-miterlimit="10" stroke-linejoin="miter" fill="none" stroke="#000000" d="M0 0C0-1.815-3.288-3.287-7.345-3.287-11.403-3.287-14.691-1.815-14.691 0-14.691 1.816-11.403 3.288-7.345 3.288-3.288 3.288 0 1.816 0 0Z"/>
<path transform="matrix(1,0,0,-1,428.1426,86.34473)" stroke-width="1" stroke-linecap="butt" stroke-miterlimit="10" stroke-linejoin="miter" fill="none" stroke="#000000" d="M0 0C-.865-1.649-3.978-1.721-6.952-.16-9.927 1.401-11.636 4.004-10.77 5.653-9.903 7.304-6.792 7.375-3.816 5.812-.841 4.253 .866 1.649 0 0Z"/>
<path transform="matrix(1,0,0,-1,446.1182,107.018619)" stroke-width="1" stroke-linecap="butt" stroke-miterlimit="10" stroke-linejoin="miter" fill="none" stroke="#000000" d="M0 0C-1.188-1.125-4.024-.059-6.332 2.382-8.641 4.823-9.548 7.713-8.357 8.837-7.167 9.963-4.333 8.896-2.024 6.454 .285 4.015 1.189 1.125 0 0Z"/>
<path transform="matrix(1,0,0,-1,444.2578,104.84473)" stroke-width="1" stroke-linecap="butt" stroke-miterlimit="10" stroke-linejoin="miter" fill="none" stroke="#000000" d="M0 0C-.659-.624-2.232-.032-3.514 1.322-4.795 2.676-5.297 4.279-4.637 4.903-3.977 5.528-2.403 4.937-1.123 3.581 .158 2.228 .66 .625 0 0Z"/>
<path transform="matrix(1,0,0,-1,426.1426,85.002017)" stroke-width="1" stroke-linecap="butt" stroke-miterlimit="10" stroke-linejoin="miter" fill="none" stroke="#000000" d="M0 0C-.543-1.037-2.5-1.082-4.37-.101-6.24 .881-7.314 2.517-6.771 3.554-6.227 4.592-4.27 4.637-2.399 3.654-.528 2.674 .545 1.037 0 0Z"/>
<path transform="matrix(1,0,0,-1,435.627,148.89063)" stroke-width="1" stroke-linecap="butt" stroke-miterlimit="10" stroke-linejoin="miter" fill="none" stroke="#000000" d="M0 0C0 3.24-5.986 5.866-13.369 5.866-20.752 5.866-26.738 3.24-26.738 0-26.738-3.239-20.752-5.865-13.369-5.865-5.986-5.865 0-3.239 0 0Z"/>
<path transform="matrix(1,0,0,-1,432.46,149.07129)" stroke-width="1" stroke-linecap="butt" stroke-miterlimit="10" stroke-linejoin="miter" fill="none" stroke="#000000" d="M0 0C0 2.128-4.683 3.852-10.458 3.852-16.232 3.852-20.916 2.128-20.916 0-20.916-2.127-16.232-3.852-10.458-3.852-4.683-3.852 0-2.127 0 0Z"/>
<path transform="matrix(1,0,0,-1,380.0635,180.03607)" stroke-width="1" stroke-linecap="butt" stroke-miterlimit="10" stroke-linejoin="miter" fill="none" stroke="#000000" d="M0 0C-.534-1.284-1.748-1.999-2.712-1.598-3.675-1.196-4.024 .17-3.488 1.453-2.955 2.737-1.74 3.454-.776 3.053 .188 2.651 .536 1.284 0 0Z"/>
<path transform="matrix(1,0,0,-1,380.4883,180.11823)" stroke-width="1" stroke-linecap="butt" stroke-miterlimit="10" stroke-linejoin="miter" fill="none" stroke="#000000" d="M0 0C-.687-1.648-2.244-2.567-3.482-2.052-4.719-1.537-5.167 .217-4.479 1.865-3.794 3.514-2.234 4.434-.996 3.919 .242 3.403 .688 1.648 0 0Z"/>
<path transform="matrix(1,0,0,-1,430.0439,119.21973)" stroke-width="1" stroke-linecap="butt" stroke-miterlimit="10" stroke-linejoin="miter" fill="none" stroke="#000000" d="M0 0 15.667 12 15.512 12.203C13.837 11.75 11.51 12.604 9.697 14.521 7.937 16.382 7.196 18.674 7.651 20.314L-6.423 8.5C-12.179 4.667-16.022 9.667-16.022 9.667-18.712 11.667-14.833 15.667-14.833 15.667L-1.833 32.5-1.893 32.536C-2.98 31.211-5.84 31.233-8.604 32.685-11.234 34.065-12.872 36.258-12.618 37.888L-27.334 19.334C-34.168 11.501-34.667 20.334-34.667 20.334V37.5H-35.097C-35.232 35.097-39.219 33.167-44.127 33.167-48.283 33.167-51.775 34.551-52.834 36.434V25.167C-52.834 16.167-59.167 13.794-59.167 13.794-96.167 2.754-98.834-49.5-98.834-49.5-106.334-49-109.411-52.083-109.411-52.083L-109.39-52.161C-109.05-51.956-108.673-51.833-108.271-51.833-106.81-51.833-105.625-53.349-105.625-55.218-105.625-56.83-106.507-58.173-107.687-58.515L-107.668-58.583-101.084-56.766C-99.167-58.031-106.167-65.166-106.167-65.166-116.501-76.499-98.838-99.333-98.838-99.333-93.176-108.166-98.834-117.5-98.834-117.5-99.168-127.5-77.667-125.666-77.667-125.666-48.834-121.999-46-107.166-46-107.166-45.613-105.813-46.545-103.857-46.992-102.625-47.761-100.509-48.665-98.448-49.582-96.393-50.137-95.149-50.673-93.868-51.337-92.679-51.502-92.383-50.325-90.256-50.173-89.869-49.813-88.964-49.474-88.051-49.18-87.122-48.654-85.464-48.267-83.75-48.205-82.007-48.099-79.045-49.043-76.255-50.534-73.727-51.871-71.46-53.547-69.369-55.425-67.526-56.969-66.011-58.681-64.678-60.515-63.53-61.334-63.018-62.179-62.553-63.022-62.081-63.07-62.055-63.117-62.023-63.167-62-65.501-59.833-67-56.286-67-56.286L-54-62-53.935-61.854C-54.306-61.069-54.319-60-53.89-58.971-53.435-57.874-52.591-57.112-51.713-56.868L-51.667-56.766-63.834-49.5C-59.834-25.333-52.834-18.846-52.834-18.846-29.512 1.531-22.456-23.498-21.099-29.794-20.532-26.783-14.794-24.416-7.786-24.416-1.659-24.416 3.494-26.228 5.073-28.694L5.166-28.686C3.832-19.038-1.167-6.5-1.167-6.5-4.167-1.333 0 0 0 0Z"/>
<path transform="matrix(1,0,0,-1,324.4756,174.32709)" stroke-width="1" stroke-linecap="butt" stroke-miterlimit="10" stroke-linejoin="miter" fill="none" stroke="#000000" d="M0 0C0-1.869-1.118-3.386-2.498-3.386-3.876-3.386-4.994-1.869-4.994 0-4.994 1.869-3.876 3.386-2.498 3.386-1.118 3.386 0 1.869 0 0Z"/>
<path transform="matrix(1,0,0,-1,323.7646,174.32709)" stroke-width="1" stroke-linecap="butt" stroke-miterlimit="10" stroke-linejoin="miter" fill="none" stroke="#000000" d="M0 0C0-1.433-.856-2.594-1.914-2.594-2.97-2.594-3.826-1.433-3.826 0-3.826 1.433-2.97 2.594-1.914 2.594-.856 2.594 0 1.433 0 0Z"/>
<path transform="matrix(1,0,0,-1,324.8457,208.2334)" stroke-width="1" stroke-linecap="butt" stroke-miterlimit="10" stroke-linejoin="miter" fill="none" stroke="#000000" d="M0 0C0 0-2.615 17.264 14.416 22.264 14.416 22.264 40.566 31.24 56.84 5.127"/>
<path transform="matrix(1,0,0,-1,324.4756,183.75592)" stroke-width="1" stroke-linecap="butt" stroke-miterlimit="10" stroke-linejoin="miter" fill="none" stroke="#000000" d="M0 0C0 0 14.319 15.536 42.401 2.536"/>
<path transform="matrix(1,0,0,-1,372.7041,185.06049)" stroke-width="1" stroke-linecap="butt" stroke-miterlimit="10" stroke-linejoin="miter" fill="none" stroke="#000000" d="M0 0C0 0 2.414-3.753 2.314-9.644"/>
<path transform="matrix(1,0,0,-1,366.2812,180.94733)" stroke-width="1" stroke-linecap="butt" stroke-miterlimit="10" stroke-linejoin="miter" fill="none" stroke="#000000" d="M0 0C0 0 2.714-3.312 2.071-8.563"/>
<path transform="matrix(1,0,0,-1,360.5947,178.69043)" stroke-width="1" stroke-linecap="butt" stroke-miterlimit="10" stroke-linejoin="miter" fill="none" stroke="#000000" d="M0 0C0 0 2.247-1.332 1.89-7.993"/>
<path transform="matrix(1,0,0,-1,354.2158,176.94043)" stroke-width="1" stroke-linecap="butt" stroke-miterlimit="10" stroke-linejoin="miter" fill="none" stroke="#000000" d="M0 0C0 0 2.609-1.087 2.614-8.183"/>
<path transform="matrix(1,0,0,-1,348.502,176.05573)" stroke-width="1" stroke-linecap="butt" stroke-miterlimit="10" stroke-linejoin="miter" fill="none" stroke="#000000" d="M0 0C0 0 2.778-1.702 2.16-8.433"/>
<path transform="matrix(1,0,0,-1,343.625,176.0332)" stroke-width="1" stroke-linecap="butt" stroke-miterlimit="10" stroke-linejoin="miter" fill="none" stroke="#000000" d="M0 0C0 0 .3-5.88 2.797-8.596"/>
<path transform="matrix(1,0,0,-1,338.1475,176.81348)" stroke-width="1" stroke-linecap="butt" stroke-miterlimit="10" stroke-linejoin="miter" fill="none" stroke="#000000" d="M0 0C0 0-1.08-4.501 2.741-8.703"/>
<path transform="matrix(1,0,0,-1,333.3174,178.25782)" stroke-width="1" stroke-linecap="butt" stroke-miterlimit="10" stroke-linejoin="miter" fill="none" stroke="#000000" d="M0 0C0 0-.878-4.801 2.903-8.818"/>
<path transform="matrix(1,0,0,-1,328.2988,180.76947)" stroke-width="1" stroke-linecap="butt" stroke-miterlimit="10" stroke-linejoin="miter" fill="none" stroke="#000000" d="M0 0C0 0-1.257-4.9 3.307-9.112"/>
<path transform="matrix(1,0,0,-1,324.7012,183.52832)" stroke-width="1" stroke-linecap="butt" stroke-miterlimit="10" stroke-linejoin="miter" fill="none" stroke="#000000" d="M0 0C0 0-1.462-5.089 4.065-9.286"/>
<path transform="matrix(1,0,0,-1,321.8516,187.4375)" stroke-width="1" stroke-linecap="butt" stroke-miterlimit="10" stroke-linejoin="miter" fill="none" stroke="#000000" d="M0 0C0 0-.197-8.072 3.914-11.219"/>
<path transform="matrix(1,0,0,-1,336.6055,220.57318)" stroke-width="1" stroke-linecap="butt" stroke-miterlimit="10" stroke-linejoin="miter" fill="none" stroke="#000000" d="M0 0C0 0-3.438 9.75-5.812 11.563-8.188 13.375-9.875 22.562-5 26.875-5 26.875 1.062 34.875 23.5 31.937 23.5 31.937 37.875 28.937 40.25 9.25 40.25 9.25 39.75 9.313 38.813 11.563 38.813 11.563 36.75 29.752 19.312 31.063 19.312 31.063-.562 33.684-5.812 24.217-5.812 24.217-9.5 18.5-4.562 11.688-4.562 11.688-.75 6.312 1 0H0Z"/>
<path transform="matrix(1,0,0,-1,369.4805,199.13568)" stroke-width="1" stroke-linecap="butt" stroke-miterlimit="10" stroke-linejoin="miter" fill="none" stroke="#000000" d="M0 0C0 0-.309-1.187-1.029-1.375"/>
<path transform="matrix(1,0,0,-1,370.5098,200.94532)" stroke-width="1" stroke-linecap="butt" stroke-miterlimit="10" stroke-linejoin="miter" fill="none" stroke="#000000" d="M0 0C0 0-.309-1.187-1.029-1.375"/>
<path transform="matrix(1,0,0,-1,371.5391,203.10639)" stroke-width="1" stroke-linecap="butt" stroke-miterlimit="10" stroke-linejoin="miter" fill="none" stroke="#000000" d="M0 0C0 0-.309-1.187-1.029-1.375"/>
<path transform="matrix(1,0,0,-1,372.0537,205.50293)" stroke-width="1" stroke-linecap="butt" stroke-miterlimit="10" stroke-linejoin="miter" fill="none" stroke="#000000" d="M0 0C0 0-.309-1.187-1.029-1.375"/>
<path transform="matrix(1,0,0,-1,373.2187,207.5459)" stroke-width="1" stroke-linecap="butt" stroke-miterlimit="10" stroke-linejoin="miter" fill="none" stroke="#000000" d="M0 0C0 0-.309-1.187-1.029-1.375"/>
<path transform="matrix(1,0,0,-1,373.8623,209.4707)" stroke-width="1" stroke-linecap="butt" stroke-miterlimit="10" stroke-linejoin="miter" fill="none" stroke="#000000" d="M0 0C0 0-.309-1.187-1.029-1.375"/>
<path transform="matrix(1,0,0,-1,331.7402,199.21973)" stroke-width="1" stroke-linecap="butt" stroke-miterlimit="10" stroke-linejoin="miter" fill="none" stroke="#000000" d="M0 0C0 0 .937-.793 1.634-.531"/>
<path transform="matrix(1,0,0,-1,331.9424,201.29199)" stroke-width="1" stroke-linecap="butt" stroke-miterlimit="10" stroke-linejoin="miter" fill="none" stroke="#000000" d="M0 0C0 0 .937-.793 1.634-.531"/>
<path transform="matrix(1,0,0,-1,332.3477,203.65143)" stroke-width="1" stroke-linecap="butt" stroke-miterlimit="10" stroke-linejoin="miter" fill="none" stroke="#000000" d="M0 0C0 0 .936-.793 1.633-.53"/>
<path transform="matrix(1,0,0,-1,333.3086,205.90631)" stroke-width="1" stroke-linecap="butt" stroke-miterlimit="10" stroke-linejoin="miter" fill="none" stroke="#000000" d="M0 0C0 0 .936-.793 1.634-.53"/>
<path transform="matrix(1,0,0,-1,333.5342,208.24707)" stroke-width="1" stroke-linecap="butt" stroke-miterlimit="10" stroke-linejoin="miter" fill="none" stroke="#000000" d="M0 0C0 0 .937-.793 1.633-.53"/>
<path transform="matrix(1,0,0,-1,334.1172,210.1914)" stroke-width="1" stroke-linecap="butt" stroke-miterlimit="10" stroke-linejoin="miter" fill="none" stroke="#000000" d="M0 0C0 0 .937-.793 1.635-.531"/>
<path transform="matrix(1,0,0,-1,346.6055,232.19818)" stroke-width="1" stroke-linecap="butt" stroke-miterlimit="10" stroke-linejoin="miter" fill="none" stroke="#000000" d="M0 0V-3.313C0-3.313-.125-5.125-.75-5.312-1.375-5.5-.687-5.937-.375-6.625-.062-7.312 .812-7.437 1-6.625V-4.062L1.937-.875"/>
<path transform="matrix(1,0,0,-1,350.127,232.96881)" stroke-width="1" stroke-linecap="butt" stroke-miterlimit="10" stroke-linejoin="miter" fill="none" stroke="#000000" d="M0 0C0 0 1-1.625 .5-4.417 .5-4.417 1-5.709 1.875-5.709 1.875-5.709 2.292-4.208 1.25-3.125L1.417-.209"/>
<path transform="matrix(1,0,0,-1,359.835,230.51068)" stroke-width="1" stroke-linecap="butt" stroke-miterlimit="10" stroke-linejoin="miter" fill="none" stroke="#000000" d="M0 0C0 0 1.333-.958 .5-3.833 .5-3.833-.459-5.624 2.25-6.708 2.25-6.708 2.458-5.979 2.25-5.281 2.25-5.281 1.584-3.751 1.542-3.042L1.709 0"/>
<path transform="matrix(1,0,0,-1,368.9189,226.38568)" stroke-width="1" stroke-linecap="butt" stroke-miterlimit="10" stroke-linejoin="miter" fill="none" stroke="#000000" d="M0 0C0 0 1.666-2.125 1.916-4.125 1.916-4.125 1.832-5.541 2.416-6.583 2.416-6.583 2.982-7.792 4.429-7.792 4.429-7.792 4.612-6.583 3.785-5.812 3.785-5.812 2.086-3.374 2.105-3.083L1.708 .167"/>
<path transform="matrix(1,0,0,-1,343.2549,170.9414)" stroke-width="1" stroke-linecap="butt" stroke-miterlimit="10" stroke-linejoin="miter" fill="none" stroke="#000000" d="M0 0C0 0-4.927 61.157 54.431 52.481 54.431 52.481 72.136 49.976 81.087 29.516"/>
<path transform="matrix(1,0,0,-1,188.2646,552.4326)" stroke-width="1" stroke-linecap="butt" stroke-miterlimit="10" stroke-linejoin="miter" fill="none" stroke="#000000" d="M0 0C0-3.003-4.94-5.438-11.034-5.438-17.129-5.438-22.07-3.003-22.07 0-22.07 3.005-17.129 5.44-11.034 5.44-4.94 5.44 0 3.005 0 0Z"/>
<path transform="matrix(1,0,0,-1,186.1924,552.41116)" stroke-width="1" stroke-linecap="butt" stroke-miterlimit="10" stroke-linejoin="miter" fill="none" stroke="#000000" d="M0 0C0-2.217-4.012-4.012-8.962-4.012-13.914-4.012-17.927-2.217-17.927 0-17.927 2.216-13.914 4.011-8.962 4.011-4.012 4.011 0 2.216 0 0Z"/>
<path transform="matrix(1,0,0,-1,228.668,558.7822)" stroke-width="1" stroke-linecap="butt" stroke-miterlimit="10" stroke-linejoin="miter" fill="none" stroke="#000000" d="M0 0C-1.056-2.014-4.854-2.099-8.483-.195-12.112 1.709-14.198 4.886-13.141 6.897-12.084 8.911-8.288 8.999-4.657 7.093-1.026 5.188 1.057 2.012 0 0Z"/>
<path transform="matrix(1,0,0,-1,250.6016,584.0078)" stroke-width="1" stroke-linecap="butt" stroke-miterlimit="10" stroke-linejoin="miter" fill="none" stroke="#000000" d="M0 0C-1.45-1.373-4.91-.071-7.727 2.905-10.543 5.884-11.65 9.411-10.197 10.781-8.745 12.156-5.287 10.855-2.47 7.874 .348 4.897 1.451 1.373 0 0Z"/>
<path transform="matrix(1,0,0,-1,248.3311,581.35549)" stroke-width="1" stroke-linecap="butt" stroke-miterlimit="10" stroke-linejoin="miter" fill="none" stroke="#000000" d="M0 0C-.804-.763-2.724-.04-4.287 1.613-5.85 3.265-6.463 5.222-5.657 5.982-4.852 6.744-2.932 6.022-1.37 4.368 .193 2.717 .807 .763 0 0Z"/>
<path transform="matrix(1,0,0,-1,226.2275,557.14456)" stroke-width="1" stroke-linecap="butt" stroke-miterlimit="10" stroke-linejoin="miter" fill="none" stroke="#000000" d="M0 0C-.662-1.266-3.051-1.32-5.332-.121-7.614 1.075-8.925 3.072-8.262 4.338-7.598 5.603-5.21 5.658-2.928 4.459-.645 3.263 .665 1.266 0 0Z"/>
<path transform="matrix(1,0,0,-1,237.7998,635.10159)" stroke-width="1" stroke-linecap="butt" stroke-miterlimit="10" stroke-linejoin="miter" fill="none" stroke="#000000" d="M0 0C0 3.954-7.304 7.159-16.312 7.159-25.32 7.159-32.625 3.954-32.625 0-32.625-3.953-25.32-7.156-16.312-7.156-7.304-7.156 0-3.953 0 0Z"/>
<path transform="matrix(1,0,0,-1,233.9365,635.3203)" stroke-width="1" stroke-linecap="butt" stroke-miterlimit="10" stroke-linejoin="miter" fill="none" stroke="#000000" d="M0 0C0 2.596-5.715 4.699-12.762 4.699-19.808 4.699-25.522 2.596-25.522 0-25.522-2.598-19.808-4.699-12.762-4.699-5.715-4.699 0-2.598 0 0Z"/>
<path transform="matrix(1,0,0,-1,170.002,673.1035)" stroke-width="1" stroke-linecap="butt" stroke-miterlimit="10" stroke-linejoin="miter" fill="none" stroke="#000000" d="M0 0C-.651-1.568-2.133-2.44-3.309-1.949-4.483-1.461-4.91 .205-4.257 1.773-3.605 3.339-2.123 4.214-.947 3.725 .229 3.234 .654 1.565 0 0Z"/>
<path transform="matrix(1,0,0,-1,170.5205,673.2061)" stroke-width="1" stroke-linecap="butt" stroke-miterlimit="10" stroke-linejoin="miter" fill="none" stroke="#000000" d="M0 0C-.838-2.012-2.738-3.132-4.249-2.502-5.758-1.873-6.305 .267-5.465 2.278-4.629 4.29-2.727 5.412-1.216 4.783 .295 4.154 .84 2.014 0 0Z"/>
<path transform="matrix(1,0,0,-1,230.9883,598.8955)" stroke-width="1" stroke-linecap="butt" stroke-miterlimit="10" stroke-linejoin="miter" fill="none" stroke="#000000" d="M0 0 19.116 14.643 18.927 14.89C16.884 14.337 14.044 15.379 11.832 17.717 9.685 19.987 8.78 22.785 9.336 24.787L-7.837 10.371C-14.86 5.693-19.551 11.794-19.551 11.794-22.833 14.234-18.1 19.115-18.1 19.115L-2.237 39.656-2.31 39.699C-3.637 38.083-7.126 38.109-10.499 39.88-13.708 41.565-15.707 44.241-15.397 46.229L-33.353 23.591C-41.692 14.032-42.301 24.812-42.301 24.812V45.757H-42.825C-42.991 42.823-47.854 40.469-53.844 40.469-58.915 40.469-63.177 42.158-64.468 44.456V30.707C-64.468 19.726-72.195 16.83-72.195 16.83-117.343 3.357-120.597-60.399-120.597-60.399-129.749-59.79-133.503-63.553-133.503-63.553L-133.478-63.648C-133.062-63.397-132.603-63.248-132.112-63.248-130.329-63.248-128.884-65.097-128.884-67.378-128.884-69.344-129.96-70.983-131.399-71.4L-131.376-71.484-123.343-69.266C-121.003-70.81-129.545-79.518-129.545-79.518-142.154-93.345-120.602-121.207-120.602-121.207-113.692-131.986-120.597-143.375-120.597-143.375-121.005-155.577-94.769-153.34-94.769-153.34-59.587-148.864-56.129-130.766-56.129-130.766-55.657-129.114-56.794-126.729-57.34-125.225-58.278-122.642-59.381-120.127-60.5-117.62-61.177-116.103-61.831-114.539-62.642-113.087-62.843-112.728-61.407-110.132-61.221-109.66-60.782-108.555-60.368-107.441-60.009-106.308-59.368-104.284-58.896-102.193-58.819-100.065-58.69-96.453-59.843-93.047-61.662-89.963-63.293-87.196-65.338-84.644-67.63-82.396-69.513-80.547-71.603-78.92-73.84-77.521-74.84-76.894-75.87-76.327-76.899-75.752-76.958-75.719-77.016-75.684-77.076-75.652-79.925-73.009-81.753-68.682-81.753-68.682L-65.891-75.652-65.812-75.476C-66.264-74.518-66.28-73.212-65.756-71.958-65.201-70.619-64.171-69.689-63.101-69.392L-63.044-69.266-77.89-60.399C-73.01-30.912-64.468-22.998-64.468-22.998-36.011 1.868-27.401-28.675-25.745-36.355-25.054-32.681-18.052-29.795-9.501-29.795-2.024-29.795 4.263-32.004 6.19-35.014L6.304-35.005C4.676-23.231-1.425-7.932-1.425-7.932-5.085-1.628 0 0 0 0Z"/>
<path transform="matrix(1,0,0,-1,102.1738,666.1377)" stroke-width="1" stroke-linecap="butt" stroke-miterlimit="10" stroke-linejoin="miter" fill="none" stroke="#000000" d="M0 0C0-2.283-1.364-4.132-3.048-4.132-4.729-4.132-6.094-2.283-6.094 0-6.094 2.281-4.729 4.13-3.048 4.13-1.364 4.13 0 2.281 0 0Z"/>
<path transform="matrix(1,0,0,-1,101.3066,666.1377)" stroke-width="1" stroke-linecap="butt" stroke-miterlimit="10" stroke-linejoin="miter" fill="none" stroke="#000000" d="M0 0C0-1.749-1.045-3.167-2.336-3.167-3.624-3.167-4.669-1.749-4.669 0-4.669 1.747-3.624 3.165-2.336 3.165-1.045 3.165 0 1.747 0 0Z"/>
<path transform="matrix(1,0,0,-1,102.626,707.5117)" stroke-width="1" stroke-linecap="butt" stroke-miterlimit="10" stroke-linejoin="miter" fill="none" stroke="#000000" d="M0 0C0 0-3.191 21.067 17.59 27.168 17.59 27.168 49.498 38.119 69.355 6.256"/>
<path transform="matrix(1,0,0,-1,102.1738,677.6436)" stroke-width="1" stroke-linecap="butt" stroke-miterlimit="10" stroke-linejoin="miter" fill="none" stroke="#000000" d="M0 0C0 0 17.473 18.958 51.738 3.096"/>
<path transform="matrix(1,0,0,-1,161.0225,679.2354)" stroke-width="1" stroke-linecap="butt" stroke-miterlimit="10" stroke-linejoin="miter" fill="none" stroke="#000000" d="M0 0C0 0 2.945-4.581 2.824-11.769"/>
<path transform="matrix(1,0,0,-1,153.1846,674.2168)" stroke-width="1" stroke-linecap="butt" stroke-miterlimit="10" stroke-linejoin="miter" fill="none" stroke="#000000" d="M0 0C0 0 3.313-4.042 2.527-10.447"/>
<path transform="matrix(1,0,0,-1,146.2461,671.46389)" stroke-width="1" stroke-linecap="butt" stroke-miterlimit="10" stroke-linejoin="miter" fill="none" stroke="#000000" d="M0 0C0 0 2.742-1.623 2.306-9.752"/>
<path transform="matrix(1,0,0,-1,138.4629,669.3281)" stroke-width="1" stroke-linecap="butt" stroke-miterlimit="10" stroke-linejoin="miter" fill="none" stroke="#000000" d="M0 0C0 0 3.185-1.325 3.19-9.983"/>
<path transform="matrix(1,0,0,-1,131.4912,668.249)" stroke-width="1" stroke-linecap="butt" stroke-miterlimit="10" stroke-linejoin="miter" fill="none" stroke="#000000" d="M0 0C0 0 3.39-2.075 2.636-10.288"/>
<path transform="matrix(1,0,0,-1,125.54,668.2207)" stroke-width="1" stroke-linecap="butt" stroke-miterlimit="10" stroke-linejoin="miter" fill="none" stroke="#000000" d="M0 0C0 0 .365-7.173 3.413-10.488"/>
<path transform="matrix(1,0,0,-1,118.8564,669.1738)" stroke-width="1" stroke-linecap="butt" stroke-miterlimit="10" stroke-linejoin="miter" fill="none" stroke="#000000" d="M0 0C0 0-1.318-5.49 3.345-10.619"/>
<path transform="matrix(1,0,0,-1,112.9629,670.9346)" stroke-width="1" stroke-linecap="butt" stroke-miterlimit="10" stroke-linejoin="miter" fill="none" stroke="#000000" d="M0 0C0 0-1.071-5.858 3.542-10.761"/>
<path transform="matrix(1,0,0,-1,106.8389,674)" stroke-width="1" stroke-linecap="butt" stroke-miterlimit="10" stroke-linejoin="miter" fill="none" stroke="#000000" d="M0 0C0 0-1.533-5.979 4.035-11.119"/>
<path transform="matrix(1,0,0,-1,102.4492,677.3672)" stroke-width="1" stroke-linecap="butt" stroke-miterlimit="10" stroke-linejoin="miter" fill="none" stroke="#000000" d="M0 0C0 0-1.784-6.208 4.961-11.329"/>
<path transform="matrix(1,0,0,-1,98.9717,682.1357)" stroke-width="1" stroke-linecap="butt" stroke-miterlimit="10" stroke-linejoin="miter" fill="none" stroke="#000000" d="M0 0C0 0-.24-9.85 4.776-13.689"/>
<path transform="matrix(1,0,0,-1,116.9746,722.5693)" stroke-width="1" stroke-linecap="butt" stroke-miterlimit="10" stroke-linejoin="miter" fill="none" stroke="#000000" d="M0 0C0 0-4.194 11.897-7.092 14.108-9.99 16.32-12.049 27.531-6.101 32.793-6.101 32.793 1.297 42.555 28.675 38.971 28.675 38.971 46.215 35.31 49.113 11.287 49.113 11.287 48.503 11.363 47.359 14.108 47.359 14.108 44.843 36.304 23.565 37.905 23.565 37.905-.687 41.101-7.092 29.55-7.092 29.55-11.592 22.574-5.567 14.262-5.567 14.262-.915 7.703 1.221 0H0Z"/>
<path transform="matrix(1,0,0,-1,157.0889,696.41116)" stroke-width="1" stroke-linecap="butt" stroke-miterlimit="10" stroke-linejoin="miter" fill="none" stroke="#000000" d="M0 0C0 0-.377-1.449-1.256-1.678"/>
<path transform="matrix(1,0,0,-1,158.3447,698.6182)" stroke-width="1" stroke-linecap="butt" stroke-miterlimit="10" stroke-linejoin="miter" fill="none" stroke="#000000" d="M0 0C0 0-.377-1.449-1.256-1.678"/>
<path transform="matrix(1,0,0,-1,159.6006,701.2559)" stroke-width="1" stroke-linecap="butt" stroke-miterlimit="10" stroke-linejoin="miter" fill="none" stroke="#000000" d="M0 0C0 0-.377-1.449-1.256-1.678"/>
<path transform="matrix(1,0,0,-1,160.2285,704.1807)" stroke-width="1" stroke-linecap="butt" stroke-miterlimit="10" stroke-linejoin="miter" fill="none" stroke="#000000" d="M0 0C0 0-.376-1.448-1.256-1.678"/>
<path transform="matrix(1,0,0,-1,161.6504,706.6729)" stroke-width="1" stroke-linecap="butt" stroke-miterlimit="10" stroke-linejoin="miter" fill="none" stroke="#000000" d="M0 0C0 0-.377-1.449-1.256-1.678"/>
<path transform="matrix(1,0,0,-1,162.4355,709.0205)" stroke-width="1" stroke-linecap="butt" stroke-miterlimit="10" stroke-linejoin="miter" fill="none" stroke="#000000" d="M0 0C0 0-.377-1.449-1.256-1.678"/>
<path transform="matrix(1,0,0,-1,111.0381,696.5137)" stroke-width="1" stroke-linecap="butt" stroke-miterlimit="10" stroke-linejoin="miter" fill="none" stroke="#000000" d="M0 0C0 0 1.145-.968 1.994-.648"/>
<path transform="matrix(1,0,0,-1,111.2852,699.042)" stroke-width="1" stroke-linecap="butt" stroke-miterlimit="10" stroke-linejoin="miter" fill="none" stroke="#000000" d="M0 0C0 0 1.143-.968 1.993-.648"/>
<path transform="matrix(1,0,0,-1,111.7793,701.9209)" stroke-width="1" stroke-linecap="butt" stroke-miterlimit="10" stroke-linejoin="miter" fill="none" stroke="#000000" d="M0 0C0 0 1.142-.968 1.992-.646"/>
<path transform="matrix(1,0,0,-1,112.9521,704.6709)" stroke-width="1" stroke-linecap="butt" stroke-miterlimit="10" stroke-linejoin="miter" fill="none" stroke="#000000" d="M0 0C0 0 1.142-.968 1.993-.648"/>
<path transform="matrix(1,0,0,-1,113.2275,707.5283)" stroke-width="1" stroke-linecap="butt" stroke-miterlimit="10" stroke-linejoin="miter" fill="none" stroke="#000000" d="M0 0C0 0 1.143-.968 1.992-.646"/>
<path transform="matrix(1,0,0,-1,113.9385,709.9004)" stroke-width="1" stroke-linecap="butt" stroke-miterlimit="10" stroke-linejoin="miter" fill="none" stroke="#000000" d="M0 0C0 0 1.145-.967 1.995-.647"/>
<path transform="matrix(1,0,0,-1,129.1768,736.7539)" stroke-width="1" stroke-linecap="butt" stroke-miterlimit="10" stroke-linejoin="miter" fill="none" stroke="#000000" d="M0 0V-4.042C0-4.042-.152-6.253-.915-6.482-1.678-6.711-.839-7.245-.457-8.084-.076-8.923 .991-9.075 1.221-8.084V-4.957L2.364-1.067"/>
<path transform="matrix(1,0,0,-1,133.4736,737.6924)" stroke-width="1" stroke-linecap="butt" stroke-miterlimit="10" stroke-linejoin="miter" fill="none" stroke="#000000" d="M0 0C0 0 1.221-1.983 .61-5.392 .61-5.392 1.221-6.967 2.288-6.967 2.288-6.967 2.797-5.136 1.525-3.813L1.729-.255"/>
<path transform="matrix(1,0,0,-1,145.3193,734.6943)" stroke-width="1" stroke-linecap="butt" stroke-miterlimit="10" stroke-linejoin="miter" fill="none" stroke="#000000" d="M0 0C0 0 1.627-1.168 .61-4.676 .61-4.676-.561-6.861 2.745-8.185 2.745-8.185 2.999-7.295 2.745-6.444 2.745-6.444 1.933-4.576 1.882-3.711L2.085 0"/>
<path transform="matrix(1,0,0,-1,156.4033,729.6611)" stroke-width="1" stroke-linecap="butt" stroke-miterlimit="10" stroke-linejoin="miter" fill="none" stroke="#000000" d="M0 0C0 0 2.033-2.593 2.338-5.033 2.338-5.033 2.235-6.762 2.948-8.031 2.948-8.031 3.64-9.507 5.404-9.507 5.404-9.507 5.628-8.031 4.619-7.093 4.619-7.093 2.545-4.116 2.569-3.761L2.084 .205"/>
<path transform="matrix(1,0,0,-1,942.04,133.33112)" stroke-width="1" stroke-linecap="butt" stroke-miterlimit="10" stroke-linejoin="miter" fill="none" stroke="#231f20" d="M0 0C0 0 20.638 17.772 36.401 0 36.401 0 63.634-34.969 30.956-46.147 30.956-46.147 37.262-59.333 25.51-64.493 25.51-64.493 11.178-81.118-21.499-70.511-21.499-70.511-37.837-65.926-33.249-53.026-33.249-53.026-61.628-44.143-52.456-23.503-52.456-23.503-36.117 28.377 0 0Z"/>
<path transform="matrix(1,0,0,-1,908.791,186.35742)" stroke-width="1" stroke-linecap="butt" stroke-miterlimit="10" stroke-linejoin="miter" fill="none" stroke="#231f20" d="M0 0 33.965 21.562 64.205 6.879"/>
<path transform="matrix(1,0,0,-1,942.04,133.33112)" stroke-width="1" stroke-linecap="butt" stroke-miterlimit="10" stroke-linejoin="miter" fill="none" stroke="#231f20" d="M0 0 .716-31.465"/>
<path transform="matrix(1,0,0,-1,885.1543,215.66699)" stroke-width="1" stroke-linecap="butt" stroke-miterlimit="10" stroke-linejoin="miter" fill="none" stroke="#000000" d="M0 0C0 0-6.256-.378-8.663 1.684-11.07 3.744-17.566 22.603-19.491 24.535-21.416 26.469-23.822 40.667-21.656 54.863-19.491 69.061-18.528 90.849-3.369 100.769 11.791 110.689 20.961 128.257 62.336 124.165 62.336 124.165 106.599 121.982 121.759 93.837 121.759 93.837 143.176 67.856 140.288 23.34 140.288 23.34 136.439 10.543 129.459 16.22 129.459 16.22 123.441 23.822 122.48 33.207 122.48 33.207 116.466 97.706 73.633 105.642 73.633 105.642 13.599 121.165-5.232 66.116-5.232 66.116-10.828 41.613 0 24.535 0 24.535 8.904 10.114 0 0Z"/>
<path transform="matrix(1,0,0,-1,875.6143,212.82318)" stroke-width="1" stroke-linecap="butt" stroke-miterlimit="10" stroke-linejoin="miter" fill="none" stroke="#000000" d="M0 0C0 0 1.289-37.252 0-43.749-1.288-50.246 16.518-65.406 36.009-71.903 36.009-71.903 83.462-83.455 103.409-73.107 103.409-73.107 114.695-73.417 124.079-61.471 124.079-61.471 147.364-32.479 147.181-8.858L141.913 11.972"/>
<path transform="matrix(1,0,0,-1,910.5996,252.3623)" stroke-width="1" stroke-linecap="butt" stroke-miterlimit="10" stroke-linejoin="miter" fill="none" stroke="#000000" d="M0 0C0 0 0-5.054-1.264-6.678-2.527-8.302-1.985-14.119 0-15.001 0-15.001 1.984-16.446 1.984-7.501 1.984 1.443 3.789-1.14 3.789-1.14"/>
<path transform="matrix(1,0,0,-1,942.292,266.07814)" stroke-width="1" stroke-linecap="butt" stroke-miterlimit="10" stroke-linejoin="miter" fill="none" stroke="#000000" d="M0 0C0 0 2.434-2.888 1.884-5.414 1.334-7.941 1.876-11.009 4.041-11.189 4.041-11.189 6.218-7.472 4.041-5.595 4.041-5.595 .787-3.43 2.505 0"/>
<path transform="matrix(1,0,0,-1,951.9277,258.6787)" stroke-width="1" stroke-linecap="butt" stroke-miterlimit="10" stroke-linejoin="miter" fill="none" stroke="#000000" d="M0 0C0 0-2.707-12.272 3.609-14.258 3.609-14.258 6.137-15.128 2.888-8.685L3.43-1.227"/>
<path transform="matrix(1,0,0,-1,959.3271,262.83009)" stroke-width="1" stroke-linecap="butt" stroke-miterlimit="10" stroke-linejoin="miter" fill="none" stroke="#000000" d="M0 0C0 0 1.985-2.93 1.263-4.533 .542-6.136-.902-7.949 2.526-11.464 2.526-11.464 3.79-10.987 2.526-7.76 2.526-7.76 .36-1.443 2.347 0"/>
<path transform="matrix(1,0,0,-1,990.0078,239.6416)" stroke-width="1" stroke-linecap="butt" stroke-miterlimit="10" stroke-linejoin="miter" fill="none" stroke="#000000" d="M0 0C0 0 2.707-4.211 3.248-6.932 3.789-9.653 1.984-14.345 8.302-15.608 8.302-15.608 8.302-13.623 7.038-10.375 7.038-10.375 3.789-7.668 4.15-5.141V0"/>
<path transform="matrix(1,0,0,-1,863.6367,104.435489)" stroke-width="1" stroke-linecap="butt" stroke-miterlimit="10" stroke-linejoin="miter" fill="none" stroke="#000000" d="M0 0C2.23-2.188 1.924-6.278-.754-9.269-2.738-11.479-5.462-12.452-7.728-12.017L7.42-22.32C7.42-22.32 13.92-11.894 16.769-11.251L0 0Z"/>
<path transform="matrix(1,0,0,-1,862.8828,113.7041)" stroke-width="1" stroke-linecap="butt" stroke-miterlimit="10" stroke-linejoin="miter" fill="none" stroke="#000000" d="M0 0C-2.74-3.053-6.904-3.786-9.301-1.637-11.699 .511-11.422 4.729-8.684 7.784-5.945 10.843-1.781 11.575 .617 9.427 3.016 7.279 2.738 3.059 0 0Z"/>
<path transform="matrix(1,0,0,-1,861.6934,112.57709)" stroke-width="1" stroke-linecap="butt" stroke-miterlimit="10" stroke-linejoin="miter" fill="none" stroke="#000000" d="M0 0C-1.988-2.219-5.016-2.751-6.756-1.19-8.498 .37-8.299 3.436-6.308 5.656-4.319 7.878-1.293 8.41 .45 6.849 2.193 5.29 1.992 2.222 0 0Z"/>
<path transform="matrix(1,0,0,-1,1024.7012,112.93158)" stroke-width="1" stroke-linecap="butt" stroke-miterlimit="10" stroke-linejoin="miter" fill="none" stroke="#000000" d="M0 0C-2.538-1.824-2.857-5.913-.664-9.276 .96-11.763 3.505-13.14 5.811-13.053L-10.729-20.934C-10.729-20.934-15.566-9.639-18.285-8.569L0 0Z"/>
<path transform="matrix(1,0,0,-1,1024.0371,122.20801)" stroke-width="1" stroke-linecap="butt" stroke-miterlimit="10" stroke-linejoin="miter" fill="none" stroke="#000000" d="M0 0C2.242-3.435 6.247-4.792 8.941-3.032 11.639-1.275 12.008 2.936 9.766 6.372 7.525 9.813 3.52 11.17 .822 9.41-1.874 7.653-2.242 3.439 0 0Z"/>
<path transform="matrix(1,0,0,-1,1025.3828,121.27539)" stroke-width="1" stroke-linecap="butt" stroke-miterlimit="10" stroke-linejoin="miter" fill="none" stroke="#000000" d="M0 0C1.629-2.494 4.539-3.482 6.498-2.204 8.455-.927 8.725 2.133 7.096 4.632 5.469 7.13 2.557 8.115 .598 6.838-1.361 5.562-1.629 2.5 0 0Z"/>
<path transform="matrix(1,0,0,-1,974.918,97.25)" stroke-width="1" stroke-linecap="butt" stroke-miterlimit="10" stroke-linejoin="miter" fill="none" stroke="#000000" d="M0 0 35.589-28.892"/>
<path transform="matrix(1,0,0,-1,950.8848,91.79883)" stroke-width="1" stroke-linecap="butt" stroke-miterlimit="10" stroke-linejoin="miter" fill="none" stroke="#000000" d="M0 0 69.426-56.934"/>
<path transform="matrix(1,0,0,-1,996.1465,142.6211)" stroke-width="1" stroke-linecap="butt" stroke-miterlimit="10" stroke-linejoin="miter" fill="none" stroke="#000000" d="M0 0 28.171-21.906"/>
<path transform="matrix(1,0,0,-1,929.8818,91.086917)" stroke-width="1" stroke-linecap="butt" stroke-miterlimit="10" stroke-linejoin="miter" fill="none" stroke="#000000" d="M0 0 22.926-17.829"/>
<path transform="matrix(1,0,0,-1,1004.3867,165.02729)" stroke-width="1" stroke-linecap="butt" stroke-miterlimit="10" stroke-linejoin="miter" fill="none" stroke="#000000" d="M0 0 21.299-16.677"/>
<path transform="matrix(1,0,0,-1,913.7598,94.07031)" stroke-width="1" stroke-linecap="butt" stroke-miterlimit="10" stroke-linejoin="miter" fill="none" stroke="#000000" d="M0 0 18.291-14.321"/>
<path transform="matrix(1,0,0,-1,1007.4707,182.66309)" stroke-width="1" stroke-linecap="butt" stroke-miterlimit="10" stroke-linejoin="miter" fill="none" stroke="#000000" d="M0 0 16.477-13.233"/>
<path transform="matrix(1,0,0,-1,903.1641,98.88281)" stroke-width="1" stroke-linecap="butt" stroke-miterlimit="10" stroke-linejoin="miter" fill="none" stroke="#000000" d="M0 0 15.148-12.166"/>
<path transform="matrix(1,0,0,-1,892.4863,106.600589)" stroke-width="1" stroke-linecap="butt" stroke-miterlimit="10" stroke-linejoin="miter" fill="none" stroke="#000000" d="M0 0 13.063-9.973"/>
<path transform="matrix(1,0,0,-1,884.5996,112.93158)" stroke-width="1" stroke-linecap="butt" stroke-miterlimit="10" stroke-linejoin="miter" fill="none" stroke="#000000" d="M0 0 11.717-10.466"/>
<path transform="matrix(1,0,0,-1,875.5488,120.4834)" stroke-width="1" stroke-linecap="butt" stroke-miterlimit="10" stroke-linejoin="miter" fill="none" stroke="#000000" d="M0 0 13.346-11.317"/>
<path transform="matrix(1,0,0,-1,869.5107,131.03711)" stroke-width="1" stroke-linecap="butt" stroke-miterlimit="10" stroke-linejoin="miter" fill="none" stroke="#000000" d="M0 0 14.331-9.138"/>
<path transform="matrix(1,0,0,-1,866.3887,141.92682)" stroke-width="1" stroke-linecap="butt" stroke-miterlimit="10" stroke-linejoin="miter" fill="none" stroke="#000000" d="M0 0 12.877-11.367"/>
<path transform="matrix(1,0,0,-1,864.1074,156.48053)" stroke-width="1" stroke-linecap="butt" stroke-miterlimit="10" stroke-linejoin="miter" fill="none" stroke="#000000" d="M0 0 14.432-10.868"/>
<path transform="matrix(1,0,0,-1,862.6426,169.34473)" stroke-width="1" stroke-linecap="butt" stroke-miterlimit="10" stroke-linejoin="miter" fill="none" stroke="#000000" d="M0 0 19.09-14.855"/>
<path transform="matrix(1,0,0,-1,863.5234,184.20117)" stroke-width="1" stroke-linecap="butt" stroke-miterlimit="10" stroke-linejoin="miter" fill="none" stroke="#000000" d="M0 0 25.371-19.434"/>
<path transform="matrix(1,0,0,-1,872.8271,206.16107)" stroke-width="1" stroke-linecap="butt" stroke-miterlimit="10" stroke-linejoin="miter" fill="none" stroke="#000000" d="M0 0 13.288-8.291"/>
<path transform="matrix(1,0,0,-1,622.6611,330.8633)" stroke-width="1" stroke-linecap="butt" stroke-miterlimit="10" stroke-linejoin="miter" fill="none" stroke="#231f20" d="M0 0C0 0 25.335 21.817 44.687 0 44.687 0 78.116-42.928 38.001-56.65 38.001-56.65 45.742-72.837 31.315-79.172 31.315-79.172 13.722-99.58-26.392-86.559-26.392-86.559-46.448-80.931-40.816-65.095-40.816-65.095-75.654-54.189-64.395-28.853-64.395-28.853-44.337 34.835 0 0Z"/>
<path transform="matrix(1,0,0,-1,581.8447,395.958)" stroke-width="1" stroke-linecap="butt" stroke-miterlimit="10" stroke-linejoin="miter" fill="none" stroke="#231f20" d="M0 0 41.695 26.469 78.817 8.444"/>
<path transform="matrix(1,0,0,-1,622.6611,330.8633)" stroke-width="1" stroke-linecap="butt" stroke-miterlimit="10" stroke-linejoin="miter" fill="none" stroke="#231f20" d="M0 0 .879-38.626"/>
<path transform="matrix(1,0,0,-1,552.8281,431.9385)" stroke-width="1" stroke-linecap="butt" stroke-miterlimit="10" stroke-linejoin="miter" fill="none" stroke="#000000" d="M0 0C0 0-7.68-.464-10.635 2.066-13.59 4.597-21.564 27.747-23.927 30.119-26.289 32.493-29.244 49.923-26.584 67.35-23.927 84.778-22.744 111.525-4.136 123.703 14.475 135.882 25.732 157.447 76.523 152.424 76.523 152.424 130.86 149.745 149.471 115.193 149.471 115.193 175.762 83.3 172.217 28.651 172.217 28.651 167.492 12.942 158.924 19.911 158.924 19.911 151.536 29.244 150.356 40.765 150.356 40.765 142.973 119.943 90.392 129.685 90.392 129.685 16.694 148.741-6.423 81.164-6.423 81.164-13.292 51.084 0 30.119 0 30.119 10.932 12.416 0 0Z"/>
<path transform="matrix(1,0,0,-1,541.1172,428.4473)" stroke-width="1" stroke-linecap="butt" stroke-miterlimit="10" stroke-linejoin="miter" fill="none" stroke="#000000" d="M0 0C0 0 1.582-45.73 0-53.706-1.581-61.682 20.277-80.293 44.204-88.269 44.204-88.269 102.457-102.449 126.944-89.746 126.944-89.746 140.799-90.127 152.318-75.461 152.318-75.461 180.903-39.872 180.678-10.875L174.212 14.696"/>
<path transform="matrix(1,0,0,-1,584.0654,476.9854)" stroke-width="1" stroke-linecap="butt" stroke-miterlimit="10" stroke-linejoin="miter" fill="none" stroke="#000000" d="M0 0C0 0 0-6.204-1.552-8.197-3.103-10.191-2.438-17.333 0-18.415 0-18.415 2.436-20.189 2.436-9.208 2.436 1.771 4.651-1.399 4.651-1.399"/>
<path transform="matrix(1,0,0,-1,622.9707,493.8232)" stroke-width="1" stroke-linecap="butt" stroke-miterlimit="10" stroke-linejoin="miter" fill="none" stroke="#000000" d="M0 0C0 0 2.987-3.545 2.313-6.646 1.638-9.749 2.303-13.514 4.961-13.735 4.961-13.735 7.633-9.172 4.961-6.868 4.961-6.868 .966-4.21 3.074 0"/>
<path transform="matrix(1,0,0,-1,634.7988,484.7393)" stroke-width="1" stroke-linecap="butt" stroke-miterlimit="10" stroke-linejoin="miter" fill="none" stroke="#000000" d="M0 0C0 0-3.322-15.065 4.432-17.503 4.432-17.503 7.534-18.571 3.545-10.661L4.211-1.506"/>
<path transform="matrix(1,0,0,-1,643.8828,489.8359)" stroke-width="1" stroke-linecap="butt" stroke-miterlimit="10" stroke-linejoin="miter" fill="none" stroke="#000000" d="M0 0C0 0 2.438-3.596 1.55-5.564 .665-7.532-1.107-9.758 3.102-14.072 3.102-14.072 4.652-13.487 3.102-9.525 3.102-9.525 .442-1.771 2.881 0"/>
<path transform="matrix(1,0,0,-1,681.5459,461.3701)" stroke-width="1" stroke-linecap="butt" stroke-miterlimit="10" stroke-linejoin="miter" fill="none" stroke="#000000" d="M0 0C0 0 3.323-5.169 3.987-8.509 4.651-11.85 2.437-17.609 10.191-19.16 10.191-19.16 10.191-16.724 8.64-12.735 8.64-12.735 4.651-9.413 5.095-6.311V0"/>
<path transform="matrix(1,0,0,-1,526.4141,295.3916)" stroke-width="1" stroke-linecap="butt" stroke-miterlimit="10" stroke-linejoin="miter" fill="none" stroke="#000000" d="M0 0C2.738-2.685 2.361-7.707-.926-11.378-3.361-14.092-6.705-15.286-9.486-14.751L9.108-27.4C9.108-27.4 17.088-14.601 20.585-13.812L0 0Z"/>
<path transform="matrix(1,0,0,-1,525.4883,306.7695)" stroke-width="1" stroke-linecap="butt" stroke-miterlimit="10" stroke-linejoin="miter" fill="none" stroke="#000000" d="M0 0C-3.363-3.748-8.476-4.648-11.418-2.009-14.361 .627-14.021 5.805-10.66 9.556-7.299 13.311-2.187 14.209 .758 11.572 3.702 8.936 3.361 3.755 0 0Z"/>
<path transform="matrix(1,0,0,-1,524.0283,305.3862)" stroke-width="1" stroke-linecap="butt" stroke-miterlimit="10" stroke-linejoin="miter" fill="none" stroke="#000000" d="M0 0C-2.44-2.724-6.157-3.377-8.294-1.461-10.433 .455-10.188 4.218-7.743 6.944-5.303 9.671-1.587 10.324 .553 8.408 2.692 6.494 2.445 2.728 0 0Z"/>
<path transform="matrix(1,0,0,-1,724.1357,305.8213)" stroke-width="1" stroke-linecap="butt" stroke-miterlimit="10" stroke-linejoin="miter" fill="none" stroke="#000000" d="M0 0C-3.116-2.239-3.508-7.259-.815-11.388 1.179-14.44 4.302-16.13 7.133-16.023L-13.171-25.698C-13.171-25.698-19.109-11.833-22.447-10.52L0 0Z"/>
<path transform="matrix(1,0,0,-1,723.3203,317.209)" stroke-width="1" stroke-linecap="butt" stroke-miterlimit="10" stroke-linejoin="miter" fill="none" stroke="#000000" d="M0 0C2.752-4.216 7.669-5.882 10.977-3.722 14.287-1.565 14.74 3.604 11.988 7.822 9.238 12.046 4.32 13.712 1.01 11.552-2.301 9.396-2.752 4.222 0 0Z"/>
<path transform="matrix(1,0,0,-1,724.9727,316.064)" stroke-width="1" stroke-linecap="butt" stroke-miterlimit="10" stroke-linejoin="miter" fill="none" stroke="#000000" d="M0 0C1.999-3.062 5.572-4.275 7.977-2.706 10.379-1.138 10.71 2.618 8.71 5.686 6.713 8.752 3.139 9.962 .733 8.394-1.672 6.829-2 3.069 0 0Z"/>
<path transform="matrix(1,0,0,-1,663.0215,286.5708)" stroke-width="1" stroke-linecap="butt" stroke-miterlimit="10" stroke-linejoin="miter" fill="none" stroke="#000000" d="M0 0 43.689-35.467"/>
<path transform="matrix(1,0,0,-1,633.5195,279.8789)" stroke-width="1" stroke-linecap="butt" stroke-miterlimit="10" stroke-linejoin="miter" fill="none" stroke="#000000" d="M0 0 85.227-69.891"/>
<path transform="matrix(1,0,0,-1,689.082,342.2681)" stroke-width="1" stroke-linecap="butt" stroke-miterlimit="10" stroke-linejoin="miter" fill="none" stroke="#000000" d="M0 0 34.582-26.892"/>
<path transform="matrix(1,0,0,-1,607.7363,279.0049)" stroke-width="1" stroke-linecap="butt" stroke-miterlimit="10" stroke-linejoin="miter" fill="none" stroke="#000000" d="M0 0 28.143-21.887"/>
<path transform="matrix(1,0,0,-1,699.1973,369.7734)" stroke-width="1" stroke-linecap="butt" stroke-miterlimit="10" stroke-linejoin="miter" fill="none" stroke="#000000" d="M0 0 26.146-20.473"/>
<path transform="matrix(1,0,0,-1,587.9443,282.667)" stroke-width="1" stroke-linecap="butt" stroke-miterlimit="10" stroke-linejoin="miter" fill="none" stroke="#000000" d="M0 0 22.454-17.581"/>
<path transform="matrix(1,0,0,-1,702.9834,391.4229)" stroke-width="1" stroke-linecap="butt" stroke-miterlimit="10" stroke-linejoin="miter" fill="none" stroke="#000000" d="M0 0 20.227-16.245"/>
<path transform="matrix(1,0,0,-1,574.9375,288.5752)" stroke-width="1" stroke-linecap="butt" stroke-miterlimit="10" stroke-linejoin="miter" fill="none" stroke="#000000" d="M0 0 18.596-14.935"/>
<path transform="matrix(1,0,0,-1,561.8291,298.0493)" stroke-width="1" stroke-linecap="butt" stroke-miterlimit="10" stroke-linejoin="miter" fill="none" stroke="#000000" d="M0 0 16.036-12.242"/>
<path transform="matrix(1,0,0,-1,552.1475,305.8213)" stroke-width="1" stroke-linecap="butt" stroke-miterlimit="10" stroke-linejoin="miter" fill="none" stroke="#000000" d="M0 0 14.384-12.848"/>
<path transform="matrix(1,0,0,-1,541.0371,315.0918)" stroke-width="1" stroke-linecap="butt" stroke-miterlimit="10" stroke-linejoin="miter" fill="none" stroke="#000000" d="M0 0 16.383-13.893"/>
<path transform="matrix(1,0,0,-1,533.625,328.0474)" stroke-width="1" stroke-linecap="butt" stroke-miterlimit="10" stroke-linejoin="miter" fill="none" stroke="#000000" d="M0 0 17.593-11.217"/>
<path transform="matrix(1,0,0,-1,529.792,341.4155)" stroke-width="1" stroke-linecap="butt" stroke-miterlimit="10" stroke-linejoin="miter" fill="none" stroke="#000000" d="M0 0 15.808-13.954"/>
<path transform="matrix(1,0,0,-1,526.9922,359.2813)" stroke-width="1" stroke-linecap="butt" stroke-miterlimit="10" stroke-linejoin="miter" fill="none" stroke="#000000" d="M0 0 17.716-13.342"/>
<path transform="matrix(1,0,0,-1,525.1934,375.0732)" stroke-width="1" stroke-linecap="butt" stroke-miterlimit="10" stroke-linejoin="miter" fill="none" stroke="#000000" d="M0 0 23.435-18.237"/>
<path transform="matrix(1,0,0,-1,526.2744,393.3115)" stroke-width="1" stroke-linecap="butt" stroke-miterlimit="10" stroke-linejoin="miter" fill="none" stroke="#000000" d="M0 0 31.146-23.856"/>
<path transform="matrix(1,0,0,-1,537.6953,420.2695)" stroke-width="1" stroke-linecap="butt" stroke-miterlimit="10" stroke-linejoin="miter" fill="none" stroke="#000000" d="M0 0 16.312-10.178"/>
</g>
<text xml:space="preserve" transform="matrix(1 0 -0 1 0 790)" font-size="18" font-family="Agenda"><tspan y="-274.3096" x="134.7695 145.9115 155.0195 161.3195 170.1575 176.2955 180.6515 190.5695 196.7075 200.8475 209.14551 215.28351 224.39151 233.49951">Anterior Trunk</tspan></text>
<text xml:space="preserve" transform="matrix(1 0 -0 1 0 790)" font-size="14" font-family="Agenda"><tspan y="-710.2705" x="918.4805 927.14657 934.2305 939.1305 946.0045 950.7785 954.1665 961.8805 966.6545">Anterior </tspan><tspan y="-522.6005" x="597.06857 605.73458 612.81857 617.7185 624.5925 629.3665 632.7545 640.4685">Anterior</tspan></text>
<text xml:space="preserve" transform="matrix(1 0 -0 1 0 790)" font-size="14" font-family="OpenSans"><tspan y="-522.6005" x="645.2425"> </tspan></text>
<text xml:space="preserve" transform="matrix(1 0 -0 1 0 790)" font-size="14" font-family="Agenda"><tspan y="-468.99455" x="928.1825 934.3985 942.0285 947.2785 952.1799 959.0539 963.8279 967.2159 974.9299 979.70388">Posterior </tspan></text>
<text xml:space="preserve" transform="matrix(1 0 -0 1 0 790)" font-size="18" font-family="Agenda"><tspan y="-276.9482" x="982.6709 990.6629 1000.47299 1007.22299 1013.52297 1022.36099 1028.499 1032.855 1042.773 1048.9109 1053.0509 1061.3489 1067.4868 1076.5949 1085.7029">Posterior Trunk</tspan><tspan y="-230.88622" x="600.0269 604.6529 613.76089 620.06088 628.89889 635.03689 639.3929 649.3109 655.4489 659.5889 669.63296 673.98898 682.55697">Interior View</tspan></text>
<text xml:space="preserve" transform="matrix(1 0 -0 1 0 790)" font-size="14" font-family="Agenda"><tspan y="-531.3203" x="1035.2695 1043.9356 1051.0195 1055.9196 1062.7936 1067.5676 1070.9556 1078.6696 1083.4436 1086.6636 1098.2836 1101.6715 1106.7116 1111.2042 1117.5883">Anterior Mitral</tspan><tspan y="-514.5203" x="1035.2695 1041.5415 1048.3316 1054.7156 1059.5036 1063.1856 1070.0596">Leaflet</tspan></text>
<text xml:space="preserve" transform="matrix(1 0 -0 1 0 790)" font-size="18" font-family="OpenSans" font-weight="bold"><tspan y="-580.3613" x="500.6709 513.7389 521.4969 531.9369 538.4709 545.54489 552.5649 562.32089 572.68887 583.12887 594.6849 605.05288 612.12686 616.8068 630.97286 642.1868 650.9528 661.3208 669.0788 678.7088 689.1488 696.2228 701.24478 712.24276">Graft/Lea&#xfb02;et Observation</tspan></text>
<text xml:space="preserve" transform="matrix(1 0 -0 1 0 790)" font-size="18" font-family="OpenSans"><tspan y="-558.76138" x="509.3469 514.67489 520.77688 528.12088 538.99288 555.73287 560.41287 569.43087 579.5289 590.5809 596.9349 604.2789 608.8329 617.4009 628.4529 633.0069 643.0149 650.3589 655.0389 665.0469 673.6329 684.6669 694.7649 703.3329 709.6869">(from ventricular aspect)</tspan></text>
<text xml:space="preserve" transform="matrix(1 0 -0 1 0 790)" font-size="14" font-family="Agenda"><tspan y="-485.8301" x="412.3418 420.1118 423.4998 429.9398 437.09379 442.1338 445.3538 453.61378 461.32777 465.82176 473.53575 480.61976 487.00376 491.77775">Right Coronary</tspan><tspan y="-471.8301" x="412.3418 421.0078 425.9498 430.8498 437.7238 442.49778">Artery</tspan><tspan y="-477.7521" x="751.00186 757.2738 764.1478 768.8378 773.8778 777.0978 785.3578 793.0718 797.5644 805.2784 812.36239 818.74636 823.5203">Left Coronary</tspan><tspan y="-463.7521" x="751.00186 759.66787 764.60989 769.5098 776.38388 781.15786">Artery</tspan><tspan y="-642.32217" x="456.21784 464.4778 472.1918 479.27583 486.80784 493.89186 497.27986 502.31986 505.53987 511.81187 518.68588 525.76986 532.20986 537.2498">Conduit Length</tspan><tspan y="-510.10615" x="701.6798 710.07986 717.1638 722.4138 729.8618 735.1118 738.3318 746.1018 752.9758 763.9238 771.3578 777.60177 784.47579">Cusps Removed</tspan></text>
<text xml:space="preserve" transform="matrix(1 0 -0 1 0 790)" font-size="24" font-family="Agenda" font-weight="bold"><tspan y="-426.8896" x="587.9443 645.7843">XX</tspan><tspan y="-89.929599" x="529.7923">X</tspan><tspan y="-90.96159" x="635.8243 731.0083">XX</tspan><tspan y="-388.1776" x="617.0323">X</tspan></text>
<g clip-path="url(#clip_1)">
<path transform="matrix(1,0,0,-1,1064.1445,553.4922)" stroke-width="1" stroke-linecap="butt" stroke-miterlimit="10" stroke-linejoin="miter" fill="none" stroke="#000000" d="M0 0C0-2.96 4.867-5.359 10.869-5.359 16.873-5.359 21.74-2.96 21.74 0 21.74 2.96 16.873 5.359 10.869 5.359 4.867 5.359 0 2.96 0 0Z"/>
<path transform="matrix(1,0,0,-1,1066.1856,553.4707)" stroke-width="1" stroke-linecap="butt" stroke-miterlimit="10" stroke-linejoin="miter" fill="none" stroke="#000000" d="M0 0C0-2.184 3.953-3.951 8.828-3.951 13.707-3.951 17.659-2.184 17.659 0 17.659 2.181 13.707 3.95 8.828 3.95 3.953 3.95 0 2.181 0 0Z"/>
<path transform="matrix(1,0,0,-1,1024.3447,559.749)" stroke-width="1" stroke-linecap="butt" stroke-miterlimit="10" stroke-linejoin="miter" fill="none" stroke="#000000" d="M0 0C1.04-1.981 4.78-2.068 8.356-.189 11.932 1.686 13.985 4.812 12.944 6.797 11.903 8.78 8.163 8.867 4.587 6.989 1.011 5.113-1.041 1.984 0 0Z"/>
<path transform="matrix(1,0,0,-1,1002.7383,584.59866)" stroke-width="1" stroke-linecap="butt" stroke-miterlimit="10" stroke-linejoin="miter" fill="none" stroke="#000000" d="M0 0C1.429-1.352 4.838-.07 7.611 2.864 10.386 5.799 11.477 9.271 10.045 10.623 8.615 11.976 5.209 10.696 2.434 7.76-.343 4.827-1.43 1.353 0 0Z"/>
<path transform="matrix(1,0,0,-1,1004.9746,581.9854)" stroke-width="1" stroke-linecap="butt" stroke-miterlimit="10" stroke-linejoin="miter" fill="none" stroke="#000000" d="M0 0C.792-.749 2.684-.037 4.223 1.59 5.764 3.219 6.367 5.146 5.573 5.895 4.779 6.646 2.889 5.935 1.35 4.306-.19 2.679-.793 .751 0 0Z"/>
<path transform="matrix(1,0,0,-1,1026.748,558.1338)" stroke-width="1" stroke-linecap="butt" stroke-miterlimit="10" stroke-linejoin="miter" fill="none" stroke="#000000" d="M0 0C.653-1.246 3.006-1.301 5.254-.122 7.501 1.059 8.793 3.026 8.139 4.273 7.484 5.52 5.133 5.573 2.885 4.393 .636 3.214-.654 1.247 0 0Z"/>
<path transform="matrix(1,0,0,-1,1015.3486,634.9287)" stroke-width="1" stroke-linecap="butt" stroke-miterlimit="10" stroke-linejoin="miter" fill="none" stroke="#000000" d="M0 0C0 3.895 7.195 7.053 16.069 7.053 24.943 7.053 32.139 3.895 32.139 0 32.139-3.893 24.943-7.05 16.069-7.05 7.195-7.05 0-3.893 0 0Z"/>
<path transform="matrix(1,0,0,-1,1019.1553,635.14456)" stroke-width="1" stroke-linecap="butt" stroke-miterlimit="10" stroke-linejoin="miter" fill="none" stroke="#000000" d="M0 0C0 2.557 5.628 4.63 12.57 4.63 19.511 4.63 25.141 2.557 25.141 0 25.141-2.557 19.511-4.63 12.57-4.63 5.628-4.63 0-2.557 0 0Z"/>
<path transform="matrix(1,0,0,-1,1082.1348,672.3633)" stroke-width="1" stroke-linecap="butt" stroke-miterlimit="10" stroke-linejoin="miter" fill="none" stroke="#000000" d="M0 0C.643-1.545 2.102-2.404 3.26-1.921 4.417-1.439 4.837 .204 4.193 1.746 3.552 3.289 2.092 4.15 .934 3.669-.227 3.186-.645 1.542 0 0Z"/>
<path transform="matrix(1,0,0,-1,1081.624,672.4619)" stroke-width="1" stroke-linecap="butt" stroke-miterlimit="10" stroke-linejoin="miter" fill="none" stroke="#000000" d="M0 0C.825-1.981 2.697-3.087 4.186-2.468 5.672-1.848 6.21 .261 5.383 2.242 4.56 4.223 2.686 5.329 1.197 4.709-.291 4.089-.827 1.981 0 0Z"/>
<path transform="matrix(1,0,0,-1,1083.8447,692.6396)" stroke-width="1" stroke-linecap="butt" stroke-miterlimit="10" stroke-linejoin="miter" fill="none" stroke="#000000" d="M0 0C-1.362-3.254-3.972-1.634-3.845-5.195-3.771-7.289-3.304-9.351-2.673-11.344-2.319-12.459-1.911-13.558-1.479-14.645-1.296-15.109 .118-17.666-.079-18.022-.878-19.452-1.522-20.992-2.188-22.485-3.291-24.958-4.378-27.435-5.302-29.977-5.839-31.458-6.96-33.811-6.495-35.436-6.495-35.436-3.089-53.266 31.568-57.672 31.568-57.672 57.412-59.876 57.011-47.856 57.011-47.856 50.21-36.637 57.015-26.021 57.015-26.021 71.14-8.792 63.173 12.043 63.173 12.043 57.411 23.624 59.716 25.146L67.629 22.959 67.651 23.042C66.233 23.452 65.173 25.067 65.173 27.004 65.173 29.251 66.597 31.072 68.354 31.072 68.837 31.072 69.29 30.925 69.698 30.679L69.724 30.772C69.724 30.772 66.025 34.479 57.011 33.878 57.011 33.878 53.806 96.687 9.332 109.957 9.332 109.957 1.72 112.81 1.72 123.627V137.168C.447 134.907-3.75 133.243-8.746 133.243-14.646 133.243-19.437 135.562-19.601 138.452H-20.116V117.817C-20.116 117.817-20.716 107.201-28.931 116.615L-46.618 138.917C-46.313 136.959-48.282 134.323-51.442 132.663-54.767 130.919-58.203 130.894-59.511 132.484L-59.582 132.442-43.956 112.209C-43.956 112.209-39.294 107.4-42.526 104.997-42.526 104.997-47.147 98.986-54.065 103.595L-70.982 117.794C-70.435 115.824-71.326 113.067-73.441 110.83-75.62 108.527-78.417 107.502-80.431 108.046L-80.616 107.802-61.786 93.376C-61.786 93.376-56.776 91.772-60.383 85.563-60.383 85.563-66.392 70.491-67.995 58.896L-67.884 58.885C-65.985 61.85-59.791 64.028-52.427 64.028-44.003 64.028-37.106 61.184-36.425 57.563-34.794 65.132-26.313 95.217 1.72 70.724 1.72 70.724 10.134 62.925 14.941 33.878L.317 25.146 .372 25.021C1.427 24.728 2.441 23.812 2.989 22.494 3.505 21.258 3.489 19.971 3.042 19.029L3.121 18.854 13.892 24.079C13.892 24.079 14.091 21.868 13.29 19.855 12.489 17.844 2.609 6.235 0 0Z"/>
<path transform="matrix(1,0,0,-1,1148.9492,665.501)" stroke-width="1" stroke-linecap="butt" stroke-miterlimit="10" stroke-linejoin="miter" fill="none" stroke="#000000" d="M0 0C0-2.247 1.345-4.071 3.004-4.071 4.66-4.071 6.004-2.247 6.004 0 6.004 2.246 4.66 4.068 3.004 4.068 1.345 4.068 0 2.246 0 0Z"/>
<path transform="matrix(1,0,0,-1,1149.8047,665.501)" stroke-width="1" stroke-linecap="butt" stroke-miterlimit="10" stroke-linejoin="miter" fill="none" stroke="#000000" d="M0 0C0-1.724 1.029-3.118 2.301-3.118 3.569-3.118 4.599-1.724 4.599 0 4.599 1.721 3.569 3.117 2.301 3.117 1.029 3.117 0 1.721 0 0Z"/>
<path transform="matrix(1,0,0,-1,1148.6738,701.2725)" stroke-width="1" stroke-linecap="butt" stroke-miterlimit="10" stroke-linejoin="miter" fill="none" stroke="#000000" d="M0 0C0 0-23.312 18.084-68.598 2.458"/>
<path transform="matrix(1,0,0,-1,1147.6953,705.1475)" stroke-width="1" stroke-linecap="butt" stroke-miterlimit="10" stroke-linejoin="miter" fill="none" stroke="#000000" d="M0 0C0 0-21.174 16.698-66.46 1.072"/>
<path transform="matrix(1,0,0,-1,1098.7861,658.7617)" stroke-width="1" stroke-linecap="butt" stroke-miterlimit="10" stroke-linejoin="miter" fill="none" stroke="#000000" d="M0 0-1.05-9.799"/>
<path transform="matrix(1,0,0,-1,1140.8555,658.7617)" stroke-width="1" stroke-linecap="butt" stroke-miterlimit="10" stroke-linejoin="miter" fill="none" stroke="#000000" d="M0 0 2.781-13.529"/>
<path transform="matrix(1,0,0,-1,1141.5137,697.3984)" stroke-width="1" stroke-linecap="butt" stroke-miterlimit="10" stroke-linejoin="miter" fill="none" stroke="#000000" d="M0 0C0 0 .477-2.813-.658-3.874"/>
<path transform="matrix(1,0,0,-1,1134.123,694.8672)" stroke-width="1" stroke-linecap="butt" stroke-miterlimit="10" stroke-linejoin="miter" fill="none" stroke="#000000" d="M0 0C0 0 1.376-2.138-.097-4.469"/>
<path transform="matrix(1,0,0,-1,1123.8945,692.9434)" stroke-width="1" stroke-linecap="butt" stroke-miterlimit="10" stroke-linejoin="miter" fill="none" stroke="#000000" d="M0 0C0 0 1.007-1.187 0-4.455"/>
<path transform="matrix(1,0,0,-1,1114.375,692.9434)" stroke-width="1" stroke-linecap="butt" stroke-miterlimit="10" stroke-linejoin="miter" fill="none" stroke="#000000" d="M0 0V-4.158"/>
<path transform="matrix(1,0,0,-1,1104.3594,693.0996)" stroke-width="1" stroke-linecap="butt" stroke-miterlimit="10" stroke-linejoin="miter" fill="none" stroke="#000000" d="M0 0C0 0-1.528-2.595 0-5.248"/>
<path transform="matrix(1,0,0,-1,1093.2881,695.0225)" stroke-width="1" stroke-linecap="butt" stroke-miterlimit="10" stroke-linejoin="miter" fill="none" stroke="#000000" d="M0 0C0 0-.933-1.653 0-5.482"/>
<path transform="matrix(1,0,0,-1,1085.3984,697.1016)" stroke-width="1" stroke-linecap="butt" stroke-miterlimit="10" stroke-linejoin="miter" fill="none" stroke="#000000" d="M0 0C0 0-1.489-.479 0-5.605"/>
</g>
<text xml:space="preserve" transform="matrix(1 0 -0 1 0 790)" font-size="14" font-family="Agenda"><tspan y="-39.5293" x="375.6875 384.35353 391.43754 396.33753 403.21153 407.9855 411.3735 419.0875 423.86149 427.08149 438.70149 442.08949 447.1295 451.62208 458.00608">Anterior Mitral</tspan><tspan y="-22.7293" x="375.6875 383.0795 389.4635 393.1455 399.3895">Valve</tspan></text>
<text xml:space="preserve" transform="matrix(1 0 -0 1 0 790)" font-size="18" font-family="OpenSans"><tspan y="-140.9971" x="727.4902 738.6142">RC</tspan><tspan y="-139.3771" x="626.2942 635.63619">LC</tspan></text>
<g clip-path="url(#clip_2)">
<path transform="matrix(1,0,0,-1,478.9824,582.6934)" stroke-width="2" stroke-linecap="butt" stroke-miterlimit="10" stroke-linejoin="miter" fill="none" stroke="#231f20" d="M0 0C0 0 5.037 11.415 18.131 12.759 18.131 12.759 245.437 25.181 306.879 8.394 306.879 8.394 315.262-2.015 318.121-9.065L314.937-142.021 307.887-145.041H7.053L-2.32-140.008 0 0Z"/>
<path transform="matrix(1,0,0,-1,486.0352,727.7344)" stroke-width="2" stroke-linecap="butt" stroke-miterlimit="10" stroke-linejoin="miter" fill="none" stroke="#231f20" d="M0 0 2.35 138.998C2.35 138.998 5.709 148.062 19.809 150.077 19.809 150.077 250.807 162.5 293.783 144.369 293.783 144.369 302.178 135.976 303.52 131.946L300.834 0"/>
<path transform="matrix(1,0,0,-1,589.875,647.3398)" stroke-width="2" stroke-linecap="butt" stroke-miterlimit="10" stroke-linejoin="miter" fill="none" stroke="#231f20" d="M0 0C-5.945-37.591-26.32-65.287-50.539-65.287-74.975-65.287-95.496-37.097-101.234 1.007-101.23 .982-99.145-.399-99.109-.399-97.105-6.562-94.635-10.734-90.686-15.877-85.801-22.239-79.402-28.755-70.736-28.235-68.02-28.071-65.371-27.319-62.832-26.372-59.885-25.271-56.924-24.222-54.246-22.536-51.961-24.911-48.256-26.386-45.209-27.487-37.855-30.146-29.385-29.263-22.492-25.665-17.488-23.05-13.223-18.687-10.076-14.033-7.99-10.945-5.896-7.863-3.809-4.775-2.605-2.998-1.592-1.413 0 0Z"/>
<path transform="matrix(1,0,0,-1,690.752,647.63186)" stroke-width="2" stroke-linecap="butt" stroke-miterlimit="10" stroke-linejoin="miter" fill="none" stroke="#231f20" d="M0 0C-5.926-37.59-26.227-65.286-50.363-65.286-74.711-65.286-94.133-36.805-99.85 1.299-99.848 1.274-98.797-.398-98.76-.398-96.764-6.562-94.303-10.733-90.367-15.876-85.498-22.236-79.123-28.752-70.486-28.234-65.01-27.904-58.674-25.457-54.055-22.539-51.721-24.928-48.143-26.363-45.051-27.486-37.723-30.145-29.281-29.262-22.412-25.662-17.428-23.049-13.178-18.687-10.041-14.032-7.961-10.944-5.875-7.862-3.797-4.776-2.598-2.999-1.588-1.411 0 0Z"/>
<path transform="matrix(1,0,0,-1,787.3574,648.9453)" stroke-width="2" stroke-linecap="butt" stroke-miterlimit="10" stroke-linejoin="miter" fill="none" stroke="#231f20" d="M0 0C-5.682-35.796-25.143-62.17-48.279-62.17-71.619-62.17-90.023-33.962-95.506 2.32-95.502 2.299-94.707-.38-94.672-.38-92.76-6.248-90.398-10.221-86.627-15.117-81.959-21.177-75.848-27.38-67.57-26.886-64.977-26.733-62.443-26.015-60.02-25.112-57.211-24.067-54.371-23.06-51.818-21.462-49.549-23.771-46.18-25.095-43.184-26.175-36.162-28.706-28.07-27.864-21.484-24.437-16.705-21.95-12.633-17.795-9.627-13.363-7.633-10.424-5.633-7.488-3.639-4.549-2.49-2.855-1.521-1.344 0 0Z"/>
<path transform="matrix(1,0,0,-1,788.5469,645.3086)" stroke-width="2" stroke-linecap="butt" stroke-miterlimit="10" stroke-linejoin="miter" fill="none" stroke="#231f20" d="M0 0 7.098-7.39"/>
<path transform="matrix(1,0,0,-1,788.5469,654.1855)" stroke-width="2" stroke-linecap="butt" stroke-miterlimit="10" stroke-linejoin="miter" fill="none" stroke="#231f20" d="M0 0 7.098-7.391"/>
<path transform="matrix(1,0,0,-1,788.1855,663.1016)" stroke-width="2" stroke-linecap="butt" stroke-miterlimit="10" stroke-linejoin="miter" fill="none" stroke="#231f20" d="M0 0 7.035-7.337"/>
<path transform="matrix(1,0,0,-1,788.1855,672.7568)" stroke-width="2" stroke-linecap="butt" stroke-miterlimit="10" stroke-linejoin="miter" fill="none" stroke="#231f20" d="M0 0 7.035-7.461"/>
<path transform="matrix(1,0,0,-1,787.7988,682.083)" stroke-width="2" stroke-linecap="butt" stroke-miterlimit="10" stroke-linejoin="miter" fill="none" stroke="#231f20" d="M0 0 6.654-6.932"/>
<path transform="matrix(1,0,0,-1,787.3574,691.3057)" stroke-width="2" stroke-linecap="butt" stroke-miterlimit="10" stroke-linejoin="miter" fill="none" stroke="#231f20" d="M0 0 7.096-7.394"/>
<path transform="matrix(1,0,0,-1,787.3574,699.6641)" stroke-width="2" stroke-linecap="butt" stroke-miterlimit="10" stroke-linejoin="miter" fill="none" stroke="#231f20" d="M0 0 7.096-7.387"/>
<path transform="matrix(1,0,0,-1,787.3574,709.2227)" stroke-width="2" stroke-linecap="butt" stroke-miterlimit="10" stroke-linejoin="miter" fill="none" stroke="#231f20" d="M0 0 6.764-7.047"/>
<path transform="matrix(1,0,0,-1,787.043,719.1992)" stroke-width="2" stroke-linecap="butt" stroke-miterlimit="10" stroke-linejoin="miter" fill="none" stroke="#231f20" d="M0 0 6.061-6.311"/>
<path transform="matrix(1,0,0,-1,487.3828,647.9863)" stroke-width="2" stroke-linecap="butt" stroke-miterlimit="10" stroke-linejoin="miter" fill="none" stroke="#231f20" d="M0 0-9.594-6.721"/>
<path transform="matrix(1,0,0,-1,487.3828,657.9355)" stroke-width="2" stroke-linecap="butt" stroke-miterlimit="10" stroke-linejoin="miter" fill="none" stroke="#231f20" d="M0 0-9.594-6.721"/>
<path transform="matrix(1,0,0,-1,487.3828,667.04299)" stroke-width="2" stroke-linecap="butt" stroke-miterlimit="10" stroke-linejoin="miter" fill="none" stroke="#231f20" d="M0 0-9.594-6.722"/>
<path transform="matrix(1,0,0,-1,486.8926,677.0518)" stroke-width="2" stroke-linecap="butt" stroke-miterlimit="10" stroke-linejoin="miter" fill="none" stroke="#231f20" d="M0 0-9.59-7.035"/>
<path transform="matrix(1,0,0,-1,486.7305,686.5752)" stroke-width="2" stroke-linecap="butt" stroke-miterlimit="10" stroke-linejoin="miter" fill="none" stroke="#231f20" d="M0 0-9.592-7.332"/>
<path transform="matrix(1,0,0,-1,486.2539,696.7129)" stroke-width="2" stroke-linecap="butt" stroke-miterlimit="10" stroke-linejoin="miter" fill="none" stroke="#231f20" d="M0 0-9.592-6.721"/>
<path transform="matrix(1,0,0,-1,486.2539,706.1992)" stroke-width="2" stroke-linecap="butt" stroke-miterlimit="10" stroke-linejoin="miter" fill="none" stroke="#231f20" d="M0 0-9.592-6.719"/>
<path transform="matrix(1,0,0,-1,486.2539,715.4375)" stroke-width="2" stroke-linecap="butt" stroke-miterlimit="10" stroke-linejoin="miter" fill="none" stroke="#231f20" d="M0 0-9.592-6.723"/>
<path transform="matrix(1,0,0,-1,495.9453,673.7646)" stroke-width="1" stroke-linecap="butt" stroke-miterlimit="10" stroke-linejoin="miter" fill="none" stroke="#000000" d="M0 0C0 0 11.23-64.163-5.426-83.163L14.055-66.327 11.971-94.163 30.234-66.327 32.328-94.163 52.92-71.163 60.92-94.163V-75.163L68.92-80.163 73.92-66.327 88.92-87.163C88.92-87.163 91.436-30.478 106.678-10.322"/>
<path transform="matrix(1,0,0,-1,500.8613,747.9902)" stroke-width="1" stroke-linecap="butt" stroke-miterlimit="10" stroke-linejoin="miter" fill="none" stroke="#000000" d="M0 0 1.336-11.938 8.252-3.932"/>
<path transform="matrix(1,0,0,-1,518.8691,751.2363)" stroke-width="1" stroke-linecap="butt" stroke-miterlimit="10" stroke-linejoin="miter" fill="none" stroke="#000000" d="M0 0V-12.691L8.354-2.723"/>
<path transform="matrix(1,0,0,-1,537.5352,757.58206)" stroke-width="1" stroke-linecap="butt" stroke-miterlimit="10" stroke-linejoin="miter" fill="none" stroke="#000000" d="M0 0V-13.346L7.996-6.346 11.662-9.014 15.73 0"/>
<path transform="matrix(1,0,0,-1,640.333,659.65139)" stroke-width="1" stroke-linecap="butt" stroke-miterlimit="10" stroke-linejoin="miter" fill="none" stroke="#231f20" d="M0 0C0-1.985-2.173-3.595-4.853-3.595-7.532-3.595-9.705-1.985-9.705 0-9.705 1.986-7.532 3.595-4.853 3.595-2.173 3.595 0 1.986 0 0Z"/>
<path transform="matrix(1,0,0,-1,635.4805,655.5801)" stroke-width="1" stroke-linecap="butt" stroke-miterlimit="10" stroke-linejoin="miter" fill="none" stroke="#231f20" d="M0 0C0 0-.565 2.26 .782 2.882"/>
<path transform="matrix(1,0,0,-1,639.1445,657.2998)" stroke-width="1" stroke-linecap="butt" stroke-miterlimit="10" stroke-linejoin="miter" fill="none" stroke="#231f20" d="M0 0C0 0 1.836 2.259 3.184 1.72"/>
<path transform="matrix(1,0,0,-1,640.333,659.65139)" stroke-width="1" stroke-linecap="butt" stroke-miterlimit="10" stroke-linejoin="miter" fill="none" stroke="#231f20" d="M0 0C0 0 2.399 .017 2.804-1.461"/>
<path transform="matrix(1,0,0,-1,635.4805,663.2461)" stroke-width="1" stroke-linecap="butt" stroke-miterlimit="10" stroke-linejoin="miter" fill="none" stroke="#231f20" d="M0 0C0 0 .951-2.016-.117-2.683"/>
<path transform="matrix(1,0,0,-1,630.6279,658.5957)" stroke-width="1" stroke-linecap="butt" stroke-miterlimit="10" stroke-linejoin="miter" fill="none" stroke="#231f20" d="M0 0C0 0-1.833 .092-2.5 1.296"/>
<path transform="matrix(1,0,0,-1,632.0293,662.1777)" stroke-width="1" stroke-linecap="butt" stroke-miterlimit="10" stroke-linejoin="miter" fill="none" stroke="#231f20" d="M0 0C0 0-1.568-1.719-3.901-1.068"/>
<path transform="matrix(1,0,0,-1,740.6953,659.9893)" stroke-width="1" stroke-linecap="butt" stroke-miterlimit="10" stroke-linejoin="miter" fill="none" stroke="#231f20" d="M0 0C0-1.985-2.172-3.595-4.853-3.595-7.533-3.595-9.705-1.985-9.705 0-9.705 1.986-7.533 3.595-4.853 3.595-2.172 3.595 0 1.986 0 0Z"/>
<path transform="matrix(1,0,0,-1,735.8428,655.91799)" stroke-width="1" stroke-linecap="butt" stroke-miterlimit="10" stroke-linejoin="miter" fill="none" stroke="#231f20" d="M0 0C0 0-.565 2.26 .782 2.882"/>
<path transform="matrix(1,0,0,-1,739.5078,657.6377)" stroke-width="1" stroke-linecap="butt" stroke-miterlimit="10" stroke-linejoin="miter" fill="none" stroke="#231f20" d="M0 0C0 0 1.835 2.259 3.184 1.72"/>
<path transform="matrix(1,0,0,-1,740.6953,659.9893)" stroke-width="1" stroke-linecap="butt" stroke-miterlimit="10" stroke-linejoin="miter" fill="none" stroke="#231f20" d="M0 0C0 0 2.4 .017 2.805-1.461"/>
<path transform="matrix(1,0,0,-1,735.8428,663.584)" stroke-width="1" stroke-linecap="butt" stroke-miterlimit="10" stroke-linejoin="miter" fill="none" stroke="#231f20" d="M0 0C0 0 .95-2.016-.118-2.683"/>
<path transform="matrix(1,0,0,-1,730.9902,658.9336)" stroke-width="1" stroke-linecap="butt" stroke-miterlimit="10" stroke-linejoin="miter" fill="none" stroke="#231f20" d="M0 0C0 0-1.833 .092-2.5 1.296"/>
<path transform="matrix(1,0,0,-1,732.3926,662.5156)" stroke-width="1" stroke-linecap="butt" stroke-miterlimit="10" stroke-linejoin="miter" fill="none" stroke="#231f20" d="M0 0C0 0-1.568-1.719-3.902-1.068"/>
</g>
</g>
<path transform="matrix(1,0,0,-1,0,790)" d="M451 638H550.975V654.275H451Z" fill="#ffffff"/>
<path transform="matrix(1,0,0,-1,0,790)" stroke-width="1.55" stroke-linecap="butt" stroke-miterlimit="10" stroke-linejoin="miter" fill="none" stroke="#ffffff" d="M451 638H550.975V654.275H451Z"/>
<path transform="matrix(1,0,0,-1,0,790)" d="M697 507H796.2V522.5H697Z" fill="#ffffff"/>
<path transform="matrix(1,0,0,-1,0,790)" stroke-width="1.55" stroke-linecap="butt" stroke-miterlimit="10" stroke-linejoin="miter" fill="none" stroke="#ffffff" d="M697 507H796.2V522.5H697Z"/>
</svg>
