<svg xmlns="http://www.w3.org/2000/svg" xmlns:xlink="http://www.w3.org/1999/xlink" version="1.1" width="1240pt" height="790pt" viewBox="0 0 1240 790">
<defs>
<clipPath id="clip_0">
<path transform="matrix(1,0,0,-1,0,790)" d="M0 790H1240V0H0Z"/>
</clipPath>
<clipPath id="clip_1">
<path transform="matrix(1,0,0,-1,0,790)" d="M0 790H1240V0H0Z"/>
</clipPath>
<clipPath id="clip_2">
<path transform="matrix(1,0,0,-1,0,790)" d="M0 790H1240V0H0Z"/>
</clipPath>
<clipPath id="clip_3">
<path transform="matrix(1,0,0,-1,0,790)" d="M0 790H1240V0H0Z"/>
</clipPath>
<clipPath id="clip_4">
<path transform="matrix(1,0,0,-1,0,790)" d="M0 790H1240V0H0Z"/>
</clipPath>
</defs>
<g id="layer_1" data-name="">
<g clip-path="url(#clip_0)">
<path transform="matrix(1,0,0,-1,276.5293,119.20209)" stroke-width="2" stroke-linecap="butt" stroke-miterlimit="10" stroke-linejoin="miter" fill="none" stroke="#000000" d="M0 0C9.402-6.887 18.35-14.507 29.309-18.828 42.506-24.032 56.729-25.556 70.506-28.528 85.998-31.87 101.199-36.079 116.832-38.987 131.264-41.673 143.758-37.614 157.621-33.661 166.4-31.159 175.459-28.23 183.248-23.389 187.789-20.566 190.916-16.296 193.852-11.933 195.402-9.626 198.51-2.2 201.5-1.802 203.43-1.544 222.988-5.404 220.93-16.341L204.33-40.276C204.33-40.276 203.172-43.362 207.033-45.292 207.033-45.292 233.41-56.101 233.797-62.021 233.797-62.021 230.58-81.448 216.039-80.42 215-80.347 212.613-77.692 211.764-77.102 208.684-74.956 205.383-73.006 201.904-71.584 193.635-68.202 184.992-68.128 176.682-71.464 169.365-74.403 160.26-77.131 156.684-84.886 152.898-93.089 155.59-103.541 155.695-112.222 155.879-127.487 156.047-142.743 156.09-158.011 156.098-160.755 156.078-163.5 156.078-166.244 156.078-166.244 163.283-183.614 163.154-187.089 163.027-190.563 163.154-203.302 163.154-203.302 163.154-203.302 159.852-223.46 112.459-221.702 112.459-221.702 60.99-222.216 64.336-197.254 64.336-197.254 66.523-174.479 70.512-168.432 71.387-167.104 70.18-161.404 70.104-159.734 69.961-156.579 69.822-153.423 69.691-150.267 69.451-144.489 69.213-138.712 68.996-132.933 68.635-123.294 68.352-113.62 68.455-103.962 68.551-94.953 73.006-83.188 65.639-75.746 59.564-69.609 48.479-69.208 40.576-66.937 31.15-64.228 25.6-60.7 15.895-64.372 9.592-66.756 2.746-75.249-4.246-75.016-4.246-75.016-18.658-69.354-16.986-58.804-16.986-58.804-15.955-56.229-12.354-54.042-12.354-54.042 12.352-40.532 7.076-32.812 7.076-32.812-15.055-17.886-14.926-11.838-14.926-11.838-10.809 .128 0 0Z"/>
<path transform="matrix(1,0,0,-1,272.3457,129.17578)" stroke-width="2" stroke-linecap="butt" stroke-miterlimit="10" stroke-linejoin="miter" fill="none" stroke="#000000" d="M0 0C-3.262-3.271-7.006-4.826-8.365-3.473-9.723-2.119-8.182 1.631-4.92 4.902-1.66 8.174 2.086 9.729 3.443 8.375 4.803 7.021 3.26 3.271 0 0Z"/>
<path transform="matrix(1,0,0,-1,262.3945,133.47357)" stroke-width="2" stroke-linecap="butt" stroke-miterlimit="10" stroke-linejoin="miter" fill="none" stroke="#000000" d="M0 0C0 0 7.787-6.358 16.584 12.472"/>
<path transform="matrix(1,0,0,-1,438.1406,320.8311)" stroke-width="2" stroke-linecap="butt" stroke-miterlimit="10" stroke-linejoin="miter" fill="none" stroke="#000000" d="M0 0C0-10.233-21.287-18.528-47.545-18.528-73.803-18.528-95.088-10.233-95.088 0-95.088 10.233-73.803 18.528-47.545 18.528-21.287 18.528 0 10.233 0 0Z"/>
<path transform="matrix(1,0,0,-1,426.4492,321.1895)" stroke-width="2" stroke-linecap="butt" stroke-miterlimit="10" stroke-linejoin="miter" fill="none" stroke="#000000" d="M0 0C0-6.522-16.422-11.811-36.682-11.811-45.049-11.811-53.809-11.133-61.842-8.624-66.938-7.032-78.352-1.416-70.371 4.694-61.504 11.484-47.387 11.811-36.68 11.811-16.422 11.811 0 6.521 0 0Z"/>
<path transform="matrix(1,0,0,-1,347.041,287.6338)" stroke-width="2" stroke-linecap="butt" stroke-miterlimit="10" stroke-linejoin="miter" fill="none" stroke="#000000" d="M0 0C0 0 41.174 27.793 85.566 2.188"/>
<path transform="matrix(1,0,0,-1,355.2461,282.8828)" stroke-width="2" stroke-linecap="butt" stroke-miterlimit="10" stroke-linejoin="miter" fill="none" stroke="#000000" d="M0 0C0 0-4.346-14.225-5.76-28.637"/>
<path transform="matrix(1,0,0,-1,365.9551,278.6328)" stroke-width="2" stroke-linecap="butt" stroke-miterlimit="10" stroke-linejoin="miter" fill="none" stroke="#000000" d="M0 0C0 0-1.926-16.034 .646-26.199"/>
<path transform="matrix(1,0,0,-1,381.1152,275.15229)" stroke-width="2" stroke-linecap="butt" stroke-miterlimit="10" stroke-linejoin="miter" fill="none" stroke="#000000" d="M0 0C0 0 7.486-12.609 9.48-27.15"/>
<path transform="matrix(1,0,0,-1,400.1934,274.79304)" stroke-width="2" stroke-linecap="butt" stroke-miterlimit="10" stroke-linejoin="miter" fill="none" stroke="#000000" d="M0 0C0 0 10.025-8.466 10.539-28.925"/>
<path transform="matrix(1,0,0,-1,420.1719,279.5273)" stroke-width="2" stroke-linecap="butt" stroke-miterlimit="10" stroke-linejoin="miter" fill="none" stroke="#000000" d="M0 0C0 0 8.131-13.104 7.23-29.574"/>
<path transform="matrix(1,0,0,-1,410.0605,190.10059)" stroke-width="2" stroke-linecap="butt" stroke-miterlimit="10" stroke-linejoin="miter" fill="none" stroke="#000000" d="M0 0-.229-2.745"/>
<path transform="matrix(1,0,0,-1,413.2422,189.11432)" stroke-width="2" stroke-linecap="butt" stroke-miterlimit="10" stroke-linejoin="miter" fill="none" stroke="#000000" d="M0 0 2.467-1.973"/>
<path transform="matrix(1,0,0,-1,493.9238,131.45313)" stroke-width="2" stroke-linecap="butt" stroke-miterlimit="10" stroke-linejoin="miter" fill="none" stroke="#000000" d="M0 0C-.9-1.609-5.115-1.729-9.193 .554-13.27 2.836-15.846 5.99-14.945 7.6-14.045 9.209-10.01 8.663-5.932 6.381-1.854 4.099 .9 1.608 0 0Z"/>
<path transform="matrix(1,0,0,-1,476.25,122.41211)" stroke-width="2" stroke-linecap="butt" stroke-miterlimit="10" stroke-linejoin="miter" fill="none" stroke="#000000" d="M0 0C0 0 .025-14.271 21.256-12.856"/>
<path transform="matrix(1,0,0,-1,270.1855,183.14362)" stroke-width="2" stroke-linecap="butt" stroke-miterlimit="10" stroke-linejoin="miter" fill="none" stroke="#000000" d="M0 0C2.93-2.905 4.191-6.386 2.816-7.772 1.443-9.159-2.049-7.929-4.98-5.023-7.91-2.118-9.172 1.361-7.797 2.749-6.422 4.136-2.932 2.905 0 0Z"/>
<path transform="matrix(1,0,0,-1,260.1094,177.35639)" stroke-width="2" stroke-linecap="butt" stroke-miterlimit="10" stroke-linejoin="miter" fill="none" stroke="#000000" d="M0 0C0 0 3.088 .901 6.562-.901 10.037-2.702 17.514-8.948 14.771-16.26"/>
<path transform="matrix(1,0,0,-1,495.748,195.81452)" stroke-width="2" stroke-linecap="butt" stroke-miterlimit="10" stroke-linejoin="miter" fill="none" stroke="#000000" d="M0 0C1.9-1.247 5.654 1.117 8.387 5.281 11.119 9.444 11.795 13.831 9.895 15.078 7.994 16.324 4.238 13.959 1.506 9.796-1.225 5.633-1.898 1.246 0 0Z"/>
<path transform="matrix(1,0,0,-1,508.8828,178.60639)" stroke-width="2" stroke-linecap="butt" stroke-miterlimit="10" stroke-linejoin="miter" fill="none" stroke="#000000" d="M0 0C0 0-7.221 2.359-13.449-6.09-13.449-6.09-21.17-17.928-14.994-21.016"/>
<path transform="matrix(1,0,0,-1,408.5,175.48828)" stroke-width="2" stroke-linecap="butt" stroke-miterlimit="10" stroke-linejoin="miter" fill="none" stroke="#000000" d="M0 0C.568-.922-.168-2.408-1.645-3.32-3.121-4.23-4.779-4.22-5.35-3.297-5.918-2.375-5.182-.889-3.705 .023-2.227 .934-.568 .924 0 0Z"/>
<path transform="matrix(1,0,0,-1,406.9004,194.18848)" stroke-width="2" stroke-linecap="butt" stroke-miterlimit="10" stroke-linejoin="miter" fill="none" stroke="#000000" d="M0 0C0 0 2.143 3.125 .449 7.075L-2.773 14.252C-2.773 14.252-1.197 14.688-.045 15.38 1.137 16.089 1.895 17.052 1.895 17.052 1.895 17.052 3.238 7.802 8.035 6.154L11.555 5.278"/>
</g>
<text xml:space="preserve" transform="matrix(1 0 -0 1 0 790)" font-size="18" font-family="OpenSans"><tspan y="-651.0293" x="316.9429 328.0669 338.9029">RPA</tspan></text>
<text xml:space="preserve" transform="matrix(1 0 -0 1 0 790)" font-size="14" font-family="Agenda"><tspan y="-546.0273" x="290.2637 295.0377 298.4257 304.8657 312.01969">right</tspan></text>
<text xml:space="preserve" transform="matrix(1 0 -0 1 0 790)" font-size="14" font-family="MyriadPro"><tspan y="-232.49729" x="502.9937 510.66575 513.9417 521.7677 529.4817">Right</tspan><tspan y="-239.16129" x="1136.0877 1143.7597 1147.0357 1154.8617 1162.5757">Right</tspan><tspan y="-232.49729" x="763.43569 769.84768 776.86166 781.10366">Left</tspan><tspan y="-239.16129" x="877.7317 884.1437 891.15768 895.39968">Left</tspan></text>
<text xml:space="preserve" transform="matrix(1 0 -0 1 0 790)" font-size="14" font-family="Agenda"><tspan y="-546.0273" x="452.0477 455.7297 462.6037 467.2937">left</tspan></text>
<text xml:space="preserve" transform="matrix(1 0 -0 1 0 790)" font-size="18" font-family="OpenSans"><tspan y="-643.293" x="414.4761 423.8181 434.6541">LPA</tspan><tspan y="-608.427" x="963.09817 974.22219 984.1042">RSC</tspan><tspan y="-151.33502" x="121.72412 132.84812 142.73012">RSC</tspan><tspan y="-609.59707" x="1019.6541 1031.0481 1040.93">ASC</tspan><tspan y="-156.46506" x="365.2641 376.6581 386.5401">ASC</tspan><tspan y="-562.41909" x="995.7681 1005.1101 1014.9921">LSC</tspan><tspan y="-154.48508" x="245.07807 254.42006 264.30207">LSC</tspan></text>
<g clip-path="url(#clip_1)">
<path transform="matrix(1,0,0,-1,335.5,209.47461)" stroke-width="1" stroke-linecap="butt" stroke-miterlimit="10" stroke-linejoin="miter" fill="none" stroke="#231f20" d="M0 0V-65.133"/>
<path transform="matrix(1,0,0,-1,331.9551,209.47461)" d="M0 0 3.545 6.141 7.09 0Z" fill="#231f20"/>
<path transform="matrix(1,0,0,-1,339.0449,274.60743)" d="M0 0-3.545-6.141-7.09 0Z" fill="#231f20"/>
<path transform="matrix(1,0,0,-1,440.6777,205.7627)" stroke-width="1" stroke-linecap="butt" stroke-miterlimit="10" stroke-linejoin="miter" fill="none" stroke="#231f20" d="M0 0V-65.133"/>
<path transform="matrix(1,0,0,-1,437.1328,205.7627)" d="M0 0 3.545 6.141 7.09 0Z" fill="#231f20"/>
<path transform="matrix(1,0,0,-1,444.2227,270.8955)" d="M0 0-3.545-6.141-7.09 0Z" fill="#231f20"/>
<path transform="matrix(1,0,0,-1,928.2861,199.86908)" d="M0 0-6.642 3.818-.015 7.66Z" fill="#231f20"/>
<path transform="matrix(1,0,0,-1,1080.8447,199.86908)" d="M0 0 6.642 3.818 .015 7.66Z" fill="#231f20"/>
<path transform="matrix(1,0,0,-1,309.9512,160.39063)" stroke-width="1" stroke-linecap="butt" stroke-miterlimit="10" stroke-linejoin="miter" fill="none" stroke="#231f20" d="M0 0 30.078-9.164"/>
<path transform="matrix(1,0,0,-1,310.2109,163.78131)" d="M0 0-4.842 5.182 2.066 6.782Z" fill="#231f20"/>
<path transform="matrix(1,0,0,-1,341.3184,166.16413)" d="M0 0 4.84-5.182-2.066-6.782Z" fill="#231f20"/>
<path transform="matrix(1,0,0,-1,452.0352,167.54688)" stroke-width="1" stroke-linecap="butt" stroke-miterlimit="10" stroke-linejoin="miter" fill="none" stroke="#231f20" d="M0 0-22.078-9.165"/>
<path transform="matrix(1,0,0,-1,453.4863,170.93848)" d="M0 0 4.84 5.182-2.066 6.782Z" fill="#231f20"/>
<path transform="matrix(1,0,0,-1,428.668,173.32032)" d="M0 0-4.84-5.182 2.066-6.782Z" fill="#231f20"/>
<path transform="matrix(1,0,0,-1,389.8242,165.05573)" stroke-width="1" stroke-linecap="butt" stroke-miterlimit="10" stroke-linejoin="miter" fill="none" stroke="#231f20" d="M0 0V-102.203"/>
<path transform="matrix(1,0,0,-1,386.2793,165.05573)" d="M0 0 3.547 6.141 7.092 0Z" fill="#231f20"/>
<path transform="matrix(1,0,0,-1,393.3711,267.18849)" d="M0 0-3.547-6.141-7.092 0Z" fill="#231f20"/>
<path transform="matrix(1,0,0,-1,308.3437,138.9707)" stroke-width="1" stroke-linecap="butt" stroke-miterlimit="10" stroke-linejoin="miter" fill="none" stroke="#231f20" d="M0 0-.213-.978"/>
<path transform="matrix(1,0,0,-1,307.7227,141.82813)" stroke-width="1" stroke-linecap="butt" stroke-dasharray="1.924,1.924" stroke-miterlimit="10" stroke-linejoin="miter" fill="none" stroke="#231f20" d="M0 0-7.973-36.659"/>
<path transform="matrix(1,0,0,-1,299.5449,179.42682)" stroke-width="1" stroke-linecap="butt" stroke-miterlimit="10" stroke-linejoin="miter" fill="none" stroke="#231f20" d="M0 0-.211-.978"/>
<path transform="matrix(1,0,0,-1,351.5469,151.41309)" stroke-width="1" stroke-linecap="butt" stroke-miterlimit="10" stroke-linejoin="miter" fill="none" stroke="#231f20" d="M0 0-.213-.977"/>
<path transform="matrix(1,0,0,-1,350.9258,154.26947)" stroke-width="1" stroke-linecap="butt" stroke-dasharray="1.924,1.924" stroke-miterlimit="10" stroke-linejoin="miter" fill="none" stroke="#231f20" d="M0 0-7.973-36.659"/>
<path transform="matrix(1,0,0,-1,342.75,191.86908)" stroke-width="1" stroke-linecap="butt" stroke-miterlimit="10" stroke-linejoin="miter" fill="none" stroke="#231f20" d="M0 0-.213-.977"/>
<path transform="matrix(1,0,0,-1,414.6641,160.7041)" stroke-width="1" stroke-linecap="butt" stroke-miterlimit="10" stroke-linejoin="miter" fill="none" stroke="#231f20" d="M0 0 .432-.902"/>
<path transform="matrix(1,0,0,-1,415.9277,163.3418)" stroke-width="1" stroke-linecap="butt" stroke-dasharray="1.924,1.924" stroke-miterlimit="10" stroke-linejoin="miter" fill="none" stroke="#231f20" d="M0 0 16.205-33.834"/>
<path transform="matrix(1,0,0,-1,432.5488,198.04303)" stroke-width="1" stroke-linecap="butt" stroke-miterlimit="10" stroke-linejoin="miter" fill="none" stroke="#231f20" d="M0 0 .432-.902"/>
<path transform="matrix(1,0,0,-1,451.4199,150.03522)" stroke-width="1" stroke-linecap="butt" stroke-miterlimit="10" stroke-linejoin="miter" fill="none" stroke="#231f20" d="M0 0 .432-.901"/>
<path transform="matrix(1,0,0,-1,452.6816,152.67188)" stroke-width="1" stroke-linecap="butt" stroke-dasharray="1.924,1.924" stroke-miterlimit="10" stroke-linejoin="miter" fill="none" stroke="#231f20" d="M0 0 16.207-33.834"/>
<path transform="matrix(1,0,0,-1,469.3047,187.37403)" stroke-width="1" stroke-linecap="butt" stroke-miterlimit="10" stroke-linejoin="miter" fill="none" stroke="#231f20" d="M0 0 .432-.901"/>
<path transform="matrix(1,0,0,-1,1104.3486,203.96918)" stroke-width="2" stroke-linecap="butt" stroke-miterlimit="10" stroke-linejoin="miter" fill="none" stroke="#231f20" d="M0 0C0-47.43-44.19-82.236-87.785-82.236-110.607-82.236-146.168-73.152-169.326-53.089-190.404-34.828-200.208-6.639-200.208 15.96-200.208 63.389-136.363 110.34-86.396 107.911-42.854 105.794 0 62.108 0 0Z"/>
<path transform="matrix(1,0,0,-1,1088.041,189.04932)" stroke-width="2" stroke-linecap="butt" stroke-miterlimit="10" stroke-linejoin="miter" fill="none" stroke="#231f20" d="M0 0C12.603-59.597-37.594-80.153-83.969-80.153-130.345-80.153-167.938-44.268-167.938 0-167.938 44.267-120.056 75.642-77.03 78.07-30.729 80.684-8.095 38.284 0 0Z"/>
<path transform="matrix(1,0,0,-1,1005.6338,151.93512)" stroke-width="2" stroke-linecap="butt" stroke-miterlimit="10" stroke-linejoin="miter" fill="none" stroke="#231f20" d="M0 0C0 0 24.981 21.514 44.065 0 44.065 0 77.028-42.331 37.473-55.863 37.473-55.863 45.107-71.825 30.882-78.071 30.882-78.071 13.532-98.196-26.024-85.357-26.024-85.357-45.803-79.806-40.25-64.191-40.25-64.191-74.602-53.436-63.499-28.452-63.499-28.452-43.72 34.351 0 0Z"/>
<path transform="matrix(1,0,0,-1,965.3838,216.12598)" stroke-width="2" stroke-linecap="butt" stroke-miterlimit="10" stroke-linejoin="miter" fill="none" stroke="#231f20" d="M0 0 41.117 26.101 77.723 8.328"/>
<path transform="matrix(1,0,0,-1,1005.6338,151.93512)" stroke-width="2" stroke-linecap="butt" stroke-miterlimit="10" stroke-linejoin="miter" fill="none" stroke="#231f20" d="M0 0 .867-38.09"/>
<path transform="matrix(1,0,0,-1,1028.1865,97.31738)" stroke-width="2" stroke-linecap="butt" stroke-miterlimit="10" stroke-linejoin="miter" fill="none" stroke="#231f20" d="M0 0 71.532-72.408"/>
<path transform="matrix(1,0,0,-1,1049.6065,104.96631)" stroke-width="2" stroke-linecap="butt" stroke-miterlimit="10" stroke-linejoin="miter" fill="none" stroke="#231f20" d="M0 0 41.317-42.527"/>
<path transform="matrix(1,0,0,-1,1084.5391,175.35742)" stroke-width="2" stroke-linecap="butt" stroke-miterlimit="10" stroke-linejoin="miter" fill="none" stroke="#231f20" d="M0 0 19.461-18.967"/>
<path transform="matrix(1,0,0,-1,1006.0674,96.36572)" stroke-width="2" stroke-linecap="butt" stroke-miterlimit="10" stroke-linejoin="miter" fill="none" stroke="#231f20" d="M0 0 14.639-14.737"/>
<path transform="matrix(1,0,0,-1,1089.7598,200.68018)" stroke-width="2" stroke-linecap="butt" stroke-miterlimit="10" stroke-linejoin="miter" fill="none" stroke="#231f20" d="M0 0 13.854-13.792"/>
<path transform="matrix(1,0,0,-1,989.5869,99.39398)" stroke-width="2" stroke-linecap="butt" stroke-miterlimit="10" stroke-linejoin="miter" fill="none" stroke="#231f20" d="M0 0 12.374-12.512"/>
<path transform="matrix(1,0,0,-1,1088.8779,217.44342)" stroke-width="2" stroke-linecap="butt" stroke-miterlimit="10" stroke-linejoin="miter" fill="none" stroke="#231f20" d="M0 0 11.256-11.306"/>
<path transform="matrix(1,0,0,-1,976.1758,103.84961)" stroke-width="2" stroke-linecap="butt" stroke-miterlimit="10" stroke-linejoin="miter" fill="none" stroke="#231f20" d="M0 0 11.155-11.243"/>
<path transform="matrix(1,0,0,-1,1084.5986,231.88483)" stroke-width="2" stroke-linecap="butt" stroke-miterlimit="10" stroke-linejoin="miter" fill="none" stroke="#231f20" d="M0 0 9.649-9.689"/>
<path transform="matrix(1,0,0,-1,963.1025,109.88568)" stroke-width="2" stroke-linecap="butt" stroke-miterlimit="10" stroke-linejoin="miter" fill="none" stroke="#231f20" d="M0 0 10.217-10.258"/>
<path transform="matrix(1,0,0,-1,1077.418,242.84857)" stroke-width="2" stroke-linecap="butt" stroke-miterlimit="10" stroke-linejoin="miter" fill="none" stroke="#231f20" d="M0 0 9.477-9.472"/>
<path transform="matrix(1,0,0,-1,951.3506,116.84082)" stroke-width="2" stroke-linecap="butt" stroke-miterlimit="10" stroke-linejoin="miter" fill="none" stroke="#231f20" d="M0 0 9.61-9.606"/>
<path transform="matrix(1,0,0,-1,1067.7002,251.82032)" stroke-width="2" stroke-linecap="butt" stroke-miterlimit="10" stroke-linejoin="miter" fill="none" stroke="#231f20" d="M0 0 10.113-10.145"/>
<path transform="matrix(1,0,0,-1,940.8213,124.520999)" stroke-width="2" stroke-linecap="butt" stroke-miterlimit="10" stroke-linejoin="miter" fill="none" stroke="#231f20" d="M0 0 8.962-9"/>
<path transform="matrix(1,0,0,-1,1055.5029,259.02003)" stroke-width="2" stroke-linecap="butt" stroke-miterlimit="10" stroke-linejoin="miter" fill="none" stroke="#231f20" d="M0 0 11.416-11.485"/>
<path transform="matrix(1,0,0,-1,930.7422,133.52149)" stroke-width="2" stroke-linecap="butt" stroke-miterlimit="10" stroke-linejoin="miter" fill="none" stroke="#231f20" d="M0 0 9.265-9.318"/>
<path transform="matrix(1,0,0,-1,1043.46,263.65583)" stroke-width="2" stroke-linecap="butt" stroke-miterlimit="10" stroke-linejoin="miter" fill="none" stroke="#231f20" d="M0 0 12.952-12.943"/>
<path transform="matrix(1,0,0,-1,922.0254,142.83942)" stroke-width="2" stroke-linecap="butt" stroke-miterlimit="10" stroke-linejoin="miter" fill="none" stroke="#231f20" d="M0 0 10.093-9.552"/>
<path transform="matrix(1,0,0,-1,1027.2373,267.4082)" stroke-width="2" stroke-linecap="butt" stroke-miterlimit="10" stroke-linejoin="miter" fill="none" stroke="#231f20" d="M0 0 14.901-14.884"/>
<path transform="matrix(1,0,0,-1,914.1904,154.47803)" stroke-width="2" stroke-linecap="butt" stroke-miterlimit="10" stroke-linejoin="miter" fill="none" stroke="#231f20" d="M0 0 10.774-10.761"/>
<path transform="matrix(1,0,0,-1,1010.4883,269.0703)" stroke-width="2" stroke-linecap="butt" stroke-miterlimit="10" stroke-linejoin="miter" fill="none" stroke="#231f20" d="M0 0 16.611-16.465"/>
<path transform="matrix(1,0,0,-1,907.9736,167.45612)" stroke-width="2" stroke-linecap="butt" stroke-miterlimit="10" stroke-linejoin="miter" fill="none" stroke="#231f20" d="M0 0 12.79-12.678"/>
<path transform="matrix(1,0,0,-1,989.2598,267.9604)" stroke-width="2" stroke-linecap="butt" stroke-miterlimit="10" stroke-linejoin="miter" fill="none" stroke="#231f20" d="M0 0 17.241-17.575"/>
<path transform="matrix(1,0,0,-1,904.5273,181.57862)" stroke-width="2" stroke-linecap="butt" stroke-miterlimit="10" stroke-linejoin="miter" fill="none" stroke="#231f20" d="M0 0 16.095-16.409"/>
<path transform="matrix(1,0,0,-1,963.082,259.02003)" stroke-width="2" stroke-linecap="butt" stroke-miterlimit="10" stroke-linejoin="miter" fill="none" stroke="#231f20" d="M0 0 22.893-23.035"/>
<path transform="matrix(1,0,0,-1,905.2363,200.68018)" stroke-width="2" stroke-linecap="butt" stroke-miterlimit="10" stroke-linejoin="miter" fill="none" stroke="#231f20" d="M0 0 23.371-23.556"/>
<path transform="matrix(1,0,0,-1,913.1826,227.57129)" stroke-width="2" stroke-linecap="butt" stroke-miterlimit="10" stroke-linejoin="miter" fill="none" stroke="#231f20" d="M0 0 42.974-43.45"/>
<path transform="matrix(1,0,0,-1,809.9707,313.7632)" stroke-width="2" stroke-linecap="butt" stroke-miterlimit="10" stroke-linejoin="miter" fill="none" stroke="#231f20" d="M0 0C0-55.485-51.695-96.203-102.693-96.203-129.392-96.203-170.99-85.576-198.082-62.105-222.739-40.742-234.208-7.766-234.208 18.671-234.208 74.153-159.521 129.078-101.068 126.236-50.131 123.76 0 72.656 0 0Z"/>
<path transform="matrix(1,0,0,-1,790.8936,296.3096)" stroke-width="2" stroke-linecap="butt" stroke-miterlimit="10" stroke-linejoin="miter" fill="none" stroke="#231f20" d="M0 0C14.743-69.718-43.978-93.765-98.229-93.765-152.48-93.765-196.458-51.786-196.458 0-196.458 51.784-140.443 88.488-90.111 91.328-35.947 94.386-9.47 44.785 0 0Z"/>
<path transform="matrix(1,0,0,-1,694.4922,252.89258)" stroke-width="2" stroke-linecap="butt" stroke-miterlimit="10" stroke-linejoin="miter" fill="none" stroke="#231f20" d="M0 0C0 0 29.224 25.168 51.549 0 51.549 0 90.109-49.52 43.836-65.35 43.836-65.35 52.768-84.022 36.126-91.33 36.126-91.33 15.83-114.873-30.444-99.853-30.444-99.853-53.582-93.359-47.086-75.092-47.086-75.092-87.271-62.511-74.283-33.284-74.283-33.284-51.145 40.185 0 0Z"/>
<path transform="matrix(1,0,0,-1,647.4062,327.9844)" stroke-width="2" stroke-linecap="butt" stroke-miterlimit="10" stroke-linejoin="miter" fill="none" stroke="#231f20" d="M0 0 48.1 30.533 90.922 9.742"/>
<path transform="matrix(1,0,0,-1,694.4922,252.89258)" stroke-width="2" stroke-linecap="butt" stroke-miterlimit="10" stroke-linejoin="miter" fill="none" stroke="#231f20" d="M0 0 1.014-44.559"/>
<path transform="matrix(1,0,0,-1,720.875,188.99951)" stroke-width="2" stroke-linecap="butt" stroke-miterlimit="10" stroke-linejoin="miter" fill="none" stroke="#231f20" d="M0 0 83.68-84.704"/>
<path transform="matrix(1,0,0,-1,745.9316,197.94733)" stroke-width="2" stroke-linecap="butt" stroke-miterlimit="10" stroke-linejoin="miter" fill="none" stroke="#231f20" d="M0 0 48.334-49.749"/>
<path transform="matrix(1,0,0,-1,786.7969,280.2925)" stroke-width="2" stroke-linecap="butt" stroke-miterlimit="10" stroke-linejoin="miter" fill="none" stroke="#231f20" d="M0 0 22.766-22.188"/>
<path transform="matrix(1,0,0,-1,694.999,187.88623)" stroke-width="2" stroke-linecap="butt" stroke-miterlimit="10" stroke-linejoin="miter" fill="none" stroke="#231f20" d="M0 0 17.125-17.24"/>
<path transform="matrix(1,0,0,-1,792.9043,309.916)" stroke-width="2" stroke-linecap="butt" stroke-miterlimit="10" stroke-linejoin="miter" fill="none" stroke="#231f20" d="M0 0 16.207-16.135"/>
<path transform="matrix(1,0,0,-1,675.7197,191.42871)" stroke-width="2" stroke-linecap="butt" stroke-miterlimit="10" stroke-linejoin="miter" fill="none" stroke="#231f20" d="M0 0 14.476-14.637"/>
<path transform="matrix(1,0,0,-1,791.873,329.5259)" stroke-width="2" stroke-linecap="butt" stroke-miterlimit="10" stroke-linejoin="miter" fill="none" stroke="#231f20" d="M0 0 13.167-13.226"/>
<path transform="matrix(1,0,0,-1,660.0312,196.64112)" stroke-width="2" stroke-linecap="butt" stroke-miterlimit="10" stroke-linejoin="miter" fill="none" stroke="#231f20" d="M0 0 13.05-13.152"/>
<path transform="matrix(1,0,0,-1,786.8672,346.4194)" stroke-width="2" stroke-linecap="butt" stroke-miterlimit="10" stroke-linejoin="miter" fill="none" stroke="#231f20" d="M0 0 11.287-11.335"/>
<path transform="matrix(1,0,0,-1,644.7373,203.70209)" stroke-width="2" stroke-linecap="butt" stroke-miterlimit="10" stroke-linejoin="miter" fill="none" stroke="#231f20" d="M0 0 11.952-12"/>
<path transform="matrix(1,0,0,-1,778.4668,359.2456)" stroke-width="2" stroke-linecap="butt" stroke-miterlimit="10" stroke-linejoin="miter" fill="none" stroke="#231f20" d="M0 0 11.086-11.08"/>
<path transform="matrix(1,0,0,-1,630.9902,211.83838)" stroke-width="2" stroke-linecap="butt" stroke-miterlimit="10" stroke-linejoin="miter" fill="none" stroke="#231f20" d="M0 0 11.242-11.237"/>
<path transform="matrix(1,0,0,-1,767.0986,369.7407)" stroke-width="2" stroke-linecap="butt" stroke-miterlimit="10" stroke-linejoin="miter" fill="none" stroke="#231f20" d="M0 0 11.831-11.868"/>
<path transform="matrix(1,0,0,-1,618.6729,220.82282)" stroke-width="2" stroke-linecap="butt" stroke-miterlimit="10" stroke-linejoin="miter" fill="none" stroke="#231f20" d="M0 0 10.483-10.529"/>
<path transform="matrix(1,0,0,-1,752.8301,378.1631)" stroke-width="2" stroke-linecap="butt" stroke-miterlimit="10" stroke-linejoin="miter" fill="none" stroke="#231f20" d="M0 0 13.354-13.436"/>
<path transform="matrix(1,0,0,-1,606.8818,231.35211)" stroke-width="2" stroke-linecap="butt" stroke-miterlimit="10" stroke-linejoin="miter" fill="none" stroke="#231f20" d="M0 0 10.838-10.9"/>
<path transform="matrix(1,0,0,-1,738.7422,383.5859)" stroke-width="2" stroke-linecap="butt" stroke-miterlimit="10" stroke-linejoin="miter" fill="none" stroke="#231f20" d="M0 0 15.151-15.141"/>
<path transform="matrix(1,0,0,-1,596.6846,242.25238)" stroke-width="2" stroke-linecap="butt" stroke-miterlimit="10" stroke-linejoin="miter" fill="none" stroke="#231f20" d="M0 0 11.807-11.174"/>
<path transform="matrix(1,0,0,-1,719.7637,387.9756)" stroke-width="2" stroke-linecap="butt" stroke-miterlimit="10" stroke-linejoin="miter" fill="none" stroke="#231f20" d="M0 0 17.433-17.411"/>
<path transform="matrix(1,0,0,-1,587.519,255.86719)" stroke-width="2" stroke-linecap="butt" stroke-miterlimit="10" stroke-linejoin="miter" fill="none" stroke="#231f20" d="M0 0 12.604-12.588"/>
<path transform="matrix(1,0,0,-1,700.1709,389.9199)" stroke-width="2" stroke-linecap="butt" stroke-miterlimit="10" stroke-linejoin="miter" fill="none" stroke="#231f20" d="M0 0 19.432-19.261"/>
<path transform="matrix(1,0,0,-1,580.2466,271.04933)" stroke-width="2" stroke-linecap="butt" stroke-miterlimit="10" stroke-linejoin="miter" fill="none" stroke="#231f20" d="M0 0 14.962-14.831"/>
<path transform="matrix(1,0,0,-1,675.3369,388.6221)" stroke-width="2" stroke-linecap="butt" stroke-miterlimit="10" stroke-linejoin="miter" fill="none" stroke="#231f20" d="M0 0 20.169-20.559"/>
<path transform="matrix(1,0,0,-1,576.2148,287.5703)" stroke-width="2" stroke-linecap="butt" stroke-miterlimit="10" stroke-linejoin="miter" fill="none" stroke="#231f20" d="M0 0 18.828-19.196"/>
<path transform="matrix(1,0,0,-1,644.7139,378.1631)" stroke-width="2" stroke-linecap="butt" stroke-miterlimit="10" stroke-linejoin="miter" fill="none" stroke="#231f20" d="M0 0 26.78-26.946"/>
<path transform="matrix(1,0,0,-1,577.0444,309.916)" stroke-width="2" stroke-linecap="butt" stroke-miterlimit="10" stroke-linejoin="miter" fill="none" stroke="#231f20" d="M0 0 27.34-27.556"/>
<path transform="matrix(1,0,0,-1,586.3403,341.3735)" stroke-width="2" stroke-linecap="butt" stroke-miterlimit="10" stroke-linejoin="miter" fill="none" stroke="#231f20" d="M0 0 50.271-50.83"/>
</g>
<text xml:space="preserve" transform="matrix(1 0 -0 1 0 790)" font-size="14" font-family="Agenda"><tspan y="-572.5566" x="1126.2935 1129.8915 1136.9755 1141.8755 1148.7495 1153.5236 1160.6076 1166.9916">Internal</tspan><tspan y="-555.7566" x="1125.5094 1134.1754 1141.2594 1148.3434 1155.4274 1159.1094 1166.1934">Annulus</tspan></text>
<g clip-path="url(#clip_2)">
<path transform="matrix(1,0,0,-1,927.0723,196.03913)" stroke-width="1" stroke-linecap="butt" stroke-miterlimit="10" stroke-linejoin="miter" fill="none" stroke="#231f20" d="M0 0H1"/>
<path transform="matrix(1,0,0,-1,930.085,196.03913)" stroke-width="1" stroke-linecap="butt" stroke-dasharray="2.013,2.013" stroke-miterlimit="10" stroke-linejoin="miter" fill="none" stroke="#231f20" d="M0 0H147.927"/>
<path transform="matrix(1,0,0,-1,1079.0176,196.03913)" stroke-width="1" stroke-linecap="butt" stroke-miterlimit="10" stroke-linejoin="miter" fill="none" stroke="#231f20" d="M0 0H1"/>
</g>
<text xml:space="preserve" transform="matrix(1 0 -0 1 0 790)" font-size="18" font-family="Agenda"><tspan y="-299.4004" x="190.1152 198.52121 207.62921 212.3632 226.43921 236.35721 245.46521 253.67322 259.81123 268.43324 272.57325 282.07725 290.28526 295.01927 303.04728">Pulmonary Valve</tspan><tspan y="-277.80039" x="199.6012 204.4612 208.8172 217.9252 224.2252 233.0632 239.2012 243.5572 253.4752 259.61323 263.75325 272.14125 276.49723 285.06526 297.53926">(interior view)</tspan></text>
<g clip-path="url(#clip_3)">
<path transform="matrix(1,0,0,-1,69.002,557.33206)" stroke-width="2" stroke-linecap="butt" stroke-miterlimit="10" stroke-linejoin="miter" fill="none" stroke="#231f20" d="M0 0C0 0 6.029 13.666 21.707 15.275 21.707 15.275 293.842 30.146 367.402 10.049 367.402 10.049 377.437-2.412 380.861-10.854L377.051-170.033 368.607-173.648H8.441L-2.781-167.623 0 0Z"/>
<path transform="matrix(1,0,0,-1,77.4434,730.98049)" stroke-width="2" stroke-linecap="butt" stroke-miterlimit="10" stroke-linejoin="miter" fill="none" stroke="#231f20" d="M0 0 2.814 166.414C2.814 166.414 6.834 177.266 23.715 179.678 23.715 179.678 300.273 194.551 351.727 172.844 351.727 172.844 361.775 162.795 363.383 157.971L360.166 0"/>
<path transform="matrix(1,0,0,-1,201.7637,634.7285)" stroke-width="2" stroke-linecap="butt" stroke-miterlimit="10" stroke-linejoin="miter" fill="none" stroke="#231f20" d="M0 0C-7.119-45.006-31.512-78.166-60.508-78.166-89.762-78.166-114.33-44.414-121.201 1.205-121.197 1.176-118.699-.479-118.656-.479-116.258-7.856-113.299-12.851-108.572-19.008-102.725-26.625-95.063-34.426-84.688-33.805-81.436-33.609-78.264-32.709-75.225-31.574-71.695-30.256-68.15-29-64.945-26.982-62.209-29.824-57.771-31.59-54.125-32.908-45.322-36.092-35.18-35.035-26.928-30.727-20.937-27.596-15.832-22.373-12.064-16.801-9.564-13.104-7.059-9.415-4.559-5.718-3.119-3.59-1.906-1.691 0 0Z"/>
<path transform="matrix(1,0,0,-1,322.5371,635.0781)" stroke-width="2" stroke-linecap="butt" stroke-miterlimit="10" stroke-linejoin="miter" fill="none" stroke="#231f20" d="M0 0C-7.096-45.004-31.4-78.164-60.297-78.164-89.447-78.164-112.697-44.064-119.545 1.555-119.541 1.525-118.281-.477-118.238-.477-115.85-7.856-112.9-12.851-108.189-19.008-102.361-26.623-94.729-34.424-84.391-33.803-77.83-33.408-70.248-30.479-64.717-26.984-61.922-29.844-57.639-31.562-53.936-32.908-45.164-36.09-35.057-35.033-26.834-30.725-20.865-27.596-15.777-22.371-12.023-16.799-9.533-13.103-7.035-9.413-4.547-5.718-3.109-3.59-1.9-1.689 0 0Z"/>
<path transform="matrix(1,0,0,-1,438.1934,636.6504)" stroke-width="2" stroke-linecap="butt" stroke-miterlimit="10" stroke-linejoin="miter" fill="none" stroke="#231f20" d="M0 0C-6.801-42.857-30.1-74.434-57.799-74.434-85.742-74.434-107.777-40.662-114.342 2.777-114.336 2.752-113.385-.455-113.342-.455-111.053-7.479-108.227-12.237-103.711-18.1-98.123-25.354-90.805-32.781-80.896-32.189-77.789-32.006-74.758-31.146-71.855-30.066-68.494-28.814-65.092-27.607-62.037-25.695-59.32-28.459-55.287-30.045-51.699-31.338-43.293-34.369-33.604-33.361-25.721-29.258-19.998-26.279-15.123-21.305-11.523-15.998-9.137-12.479-6.742-8.966-4.355-5.446-2.979-3.419-1.82-1.609 0 0Z"/>
<path transform="matrix(1,0,0,-1,439.6191,632.2969)" stroke-width="2" stroke-linecap="butt" stroke-miterlimit="10" stroke-linejoin="miter" fill="none" stroke="#231f20" d="M0 0 8.498-8.847"/>
<path transform="matrix(1,0,0,-1,439.6191,642.9248)" stroke-width="2" stroke-linecap="butt" stroke-miterlimit="10" stroke-linejoin="miter" fill="none" stroke="#231f20" d="M0 0 8.498-8.849"/>
<path transform="matrix(1,0,0,-1,439.1855,653.5996)" stroke-width="2" stroke-linecap="butt" stroke-miterlimit="10" stroke-linejoin="miter" fill="none" stroke="#231f20" d="M0 0 8.422-8.783"/>
<path transform="matrix(1,0,0,-1,439.1855,665.1602)" stroke-width="2" stroke-linecap="butt" stroke-miterlimit="10" stroke-linejoin="miter" fill="none" stroke="#231f20" d="M0 0 8.422-8.932"/>
<path transform="matrix(1,0,0,-1,438.7227,676.3242)" stroke-width="2" stroke-linecap="butt" stroke-miterlimit="10" stroke-linejoin="miter" fill="none" stroke="#231f20" d="M0 0 7.969-8.299"/>
<path transform="matrix(1,0,0,-1,438.1934,687.3672)" stroke-width="2" stroke-linecap="butt" stroke-miterlimit="10" stroke-linejoin="miter" fill="none" stroke="#231f20" d="M0 0 8.498-8.85"/>
<path transform="matrix(1,0,0,-1,438.1934,697.373)" stroke-width="2" stroke-linecap="butt" stroke-miterlimit="10" stroke-linejoin="miter" fill="none" stroke="#231f20" d="M0 0 8.498-8.846"/>
<path transform="matrix(1,0,0,-1,438.1934,708.8184)" stroke-width="2" stroke-linecap="butt" stroke-miterlimit="10" stroke-linejoin="miter" fill="none" stroke="#231f20" d="M0 0 8.1-8.436"/>
<path transform="matrix(1,0,0,-1,437.8184,720.7617)" stroke-width="2" stroke-linecap="butt" stroke-miterlimit="10" stroke-linejoin="miter" fill="none" stroke="#231f20" d="M0 0 7.256-7.557"/>
<path transform="matrix(1,0,0,-1,79.0566,635.502)" stroke-width="2" stroke-linecap="butt" stroke-miterlimit="10" stroke-linejoin="miter" fill="none" stroke="#231f20" d="M0 0-11.486-8.046"/>
<path transform="matrix(1,0,0,-1,79.0566,647.4131)" stroke-width="2" stroke-linecap="butt" stroke-miterlimit="10" stroke-linejoin="miter" fill="none" stroke="#231f20" d="M0 0-11.486-8.046"/>
<path transform="matrix(1,0,0,-1,79.0566,658.3184)" stroke-width="2" stroke-linecap="butt" stroke-miterlimit="10" stroke-linejoin="miter" fill="none" stroke="#231f20" d="M0 0-11.486-8.047"/>
<path transform="matrix(1,0,0,-1,78.4688,670.3008)" stroke-width="2" stroke-linecap="butt" stroke-miterlimit="10" stroke-linejoin="miter" fill="none" stroke="#231f20" d="M0 0-11.48-8.422"/>
<path transform="matrix(1,0,0,-1,78.2773,681.7031)" stroke-width="2" stroke-linecap="butt" stroke-miterlimit="10" stroke-linejoin="miter" fill="none" stroke="#231f20" d="M0 0-11.486-8.777"/>
<path transform="matrix(1,0,0,-1,77.7051,693.8379)" stroke-width="2" stroke-linecap="butt" stroke-miterlimit="10" stroke-linejoin="miter" fill="none" stroke="#231f20" d="M0 0-11.484-8.049"/>
<path transform="matrix(1,0,0,-1,77.7051,705.1973)" stroke-width="2" stroke-linecap="butt" stroke-miterlimit="10" stroke-linejoin="miter" fill="none" stroke="#231f20" d="M0 0-11.484-8.045"/>
<path transform="matrix(1,0,0,-1,77.7051,716.2578)" stroke-width="2" stroke-linecap="butt" stroke-miterlimit="10" stroke-linejoin="miter" fill="none" stroke="#231f20" d="M0 0-11.484-8.049"/>
<path transform="matrix(1,0,0,-1,545.2871,515.8291)" stroke-width="2" stroke-linecap="butt" stroke-miterlimit="10" stroke-linejoin="miter" fill="none" stroke="#000000" d="M0 0C9.402-6.887 18.35-14.507 29.309-18.829 42.506-24.03 56.729-25.554 70.506-28.526 85.998-31.868 101.199-36.077 116.832-38.985 131.264-41.671 143.758-37.612 157.621-33.659 166.4-31.157 175.459-28.229 183.248-23.388 187.789-20.565 190.916-16.296 193.852-11.933 195.402-9.626 198.51-2.201 201.5-1.803 203.43-1.545 222.988-5.404 220.93-16.341L204.33-40.274C204.33-40.274 203.172-43.36 207.033-45.29 207.033-45.29 233.41-56.099 233.797-62.019 233.797-62.019 230.58-81.446 216.039-80.419 215-80.345 212.613-77.69 211.764-77.101 208.684-74.954 205.383-73.005 201.904-71.583 193.635-68.2 184.992-68.126 176.682-71.462 169.365-74.401 160.26-77.13 156.684-84.884 152.898-93.087 155.59-103.54 155.695-112.22 155.879-127.484 156.047-142.739 156.09-158.007 156.098-160.751 156.078-163.497 156.078-166.241 156.078-166.241 163.283-183.61 163.154-187.085 163.027-190.56 163.154-203.298 163.154-203.298 163.154-203.298 159.852-223.456 112.459-221.698 112.459-221.698 60.99-222.212 64.336-197.251 64.336-197.251 66.523-174.476 70.512-168.429 71.387-167.101 70.18-161.401 70.104-159.731 69.961-156.575 69.822-153.419 69.691-150.263 69.451-144.485 69.213-138.708 68.996-132.93 68.635-123.291 68.352-113.618 68.455-103.96 68.551-94.952 73.006-83.187 65.639-75.745 59.564-69.608 48.479-69.206 40.576-66.935 31.15-64.226 25.6-60.698 15.895-64.37 9.592-66.755 2.746-75.247-4.246-75.015-4.246-75.015-18.658-69.353-16.986-58.802-16.986-58.802-15.955-56.228-12.354-54.04-12.354-54.04 12.352-40.53 7.076-32.81 7.076-32.81-15.055-17.886-14.926-11.837-14.926-11.837-10.809 .127 0 0Z"/>
<path transform="matrix(1,0,0,-1,541.1035,525.80276)" stroke-width="2" stroke-linecap="butt" stroke-miterlimit="10" stroke-linejoin="miter" fill="none" stroke="#000000" d="M0 0C-3.262-3.271-7.006-4.826-8.365-3.473-9.723-2.119-8.182 1.63-4.92 4.901-1.66 8.173 2.086 9.728 3.443 8.374 4.803 7.021 3.26 3.271 0 0Z"/>
<path transform="matrix(1,0,0,-1,531.1523,530.10159)" stroke-width="2" stroke-linecap="butt" stroke-miterlimit="10" stroke-linejoin="miter" fill="none" stroke="#000000" d="M0 0C0 0 7.787-6.355 16.584 12.472"/>
<path transform="matrix(1,0,0,-1,706.8984,717.4551)" stroke-width="2" stroke-linecap="butt" stroke-miterlimit="10" stroke-linejoin="miter" fill="none" stroke="#000000" d="M0 0C0-10.232-21.287-18.527-47.545-18.527-73.803-18.527-95.088-10.232-95.088 0-95.088 10.234-73.803 18.529-47.545 18.529-21.287 18.529 0 10.234 0 0Z"/>
<path transform="matrix(1,0,0,-1,695.207,717.8125)" stroke-width="2" stroke-linecap="butt" stroke-miterlimit="10" stroke-linejoin="miter" fill="none" stroke="#000000" d="M0 0C0-6.523-16.422-11.811-36.682-11.811-45.049-11.811-53.809-11.133-61.842-8.625-66.938-7.033-78.352-1.416-70.371 4.693-61.504 11.484-47.387 11.811-36.68 11.811-16.422 11.811 0 6.521 0 0Z"/>
<path transform="matrix(1,0,0,-1,615.7988,684.2578)" stroke-width="2" stroke-linecap="butt" stroke-miterlimit="10" stroke-linejoin="miter" fill="none" stroke="#000000" d="M0 0C0 0 41.174 27.793 85.566 2.188"/>
<path transform="matrix(1,0,0,-1,624.0039,679.5059)" stroke-width="2" stroke-linecap="butt" stroke-miterlimit="10" stroke-linejoin="miter" fill="none" stroke="#000000" d="M0 0C0 0-4.346-14.225-5.76-28.637"/>
<path transform="matrix(1,0,0,-1,634.7129,675.2559)" stroke-width="2" stroke-linecap="butt" stroke-miterlimit="10" stroke-linejoin="miter" fill="none" stroke="#000000" d="M0 0C0 0-1.926-16.035 .646-26.199"/>
<path transform="matrix(1,0,0,-1,649.873,671.7754)" stroke-width="2" stroke-linecap="butt" stroke-miterlimit="10" stroke-linejoin="miter" fill="none" stroke="#000000" d="M0 0C0 0 7.486-12.609 9.48-27.15"/>
<path transform="matrix(1,0,0,-1,668.9512,671.416)" stroke-width="2" stroke-linecap="butt" stroke-miterlimit="10" stroke-linejoin="miter" fill="none" stroke="#000000" d="M0 0C0 0 10.025-8.467 10.539-28.926"/>
<path transform="matrix(1,0,0,-1,688.9297,676.1504)" stroke-width="2" stroke-linecap="butt" stroke-miterlimit="10" stroke-linejoin="miter" fill="none" stroke="#000000" d="M0 0C0 0 8.131-13.104 7.23-29.574"/>
<path transform="matrix(1,0,0,-1,678.8184,586.72659)" stroke-width="2" stroke-linecap="butt" stroke-miterlimit="10" stroke-linejoin="miter" fill="none" stroke="#000000" d="M0 0-.229-2.744"/>
<path transform="matrix(1,0,0,-1,682,585.74026)" stroke-width="2" stroke-linecap="butt" stroke-miterlimit="10" stroke-linejoin="miter" fill="none" stroke="#000000" d="M0 0 2.467-1.973"/>
<path transform="matrix(1,0,0,-1,762.6816,528.0801)" stroke-width="2" stroke-linecap="butt" stroke-miterlimit="10" stroke-linejoin="miter" fill="none" stroke="#000000" d="M0 0C-.9-1.609-5.115-1.729-9.193 .555-13.27 2.836-15.846 5.989-14.945 7.599-14.045 9.208-10.01 8.663-5.932 6.38-1.854 4.099 .9 1.609 0 0Z"/>
<path transform="matrix(1,0,0,-1,745.0078,519.04006)" stroke-width="2" stroke-linecap="butt" stroke-miterlimit="10" stroke-linejoin="miter" fill="none" stroke="#000000" d="M0 0C0 0 .025-14.271 21.256-12.856"/>
<path transform="matrix(1,0,0,-1,538.9434,579.76956)" stroke-width="2" stroke-linecap="butt" stroke-miterlimit="10" stroke-linejoin="miter" fill="none" stroke="#000000" d="M0 0C2.93-2.904 4.191-6.385 2.816-7.771 1.443-9.158-2.049-7.928-4.98-5.023-7.91-2.117-9.172 1.361-7.797 2.75-6.422 4.137-2.932 2.906 0 0Z"/>
<path transform="matrix(1,0,0,-1,528.8672,573.9824)" stroke-width="2" stroke-linecap="butt" stroke-miterlimit="10" stroke-linejoin="miter" fill="none" stroke="#000000" d="M0 0C0 0 3.088 .902 6.562-.9 10.037-2.701 17.514-8.947 14.771-16.26"/>
<path transform="matrix(1,0,0,-1,764.5059,592.4395)" stroke-width="2" stroke-linecap="butt" stroke-miterlimit="10" stroke-linejoin="miter" fill="none" stroke="#000000" d="M0 0C1.9-1.248 5.654 1.117 8.387 5.281 11.119 9.443 11.795 13.83 9.895 15.078 7.994 16.324 4.238 13.959 1.506 9.795-1.225 5.633-1.898 1.246 0 0Z"/>
<path transform="matrix(1,0,0,-1,777.6406,575.2324)" stroke-width="2" stroke-linecap="butt" stroke-miterlimit="10" stroke-linejoin="miter" fill="none" stroke="#000000" d="M0 0C0 0-7.221 2.359-13.449-6.09-13.449-6.09-21.17-17.928-14.994-21.016"/>
<path transform="matrix(1,0,0,-1,677.2578,572.1133)" stroke-width="2" stroke-linecap="butt" stroke-miterlimit="10" stroke-linejoin="miter" fill="none" stroke="#000000" d="M0 0C.568-.922-.168-2.408-1.645-3.32-3.121-4.23-4.779-4.221-5.35-3.297-5.918-2.375-5.182-.889-3.705 .023-2.227 .934-.568 .924 0 0Z"/>
<path transform="matrix(1,0,0,-1,675.6582,590.8145)" stroke-width="2" stroke-linecap="butt" stroke-miterlimit="10" stroke-linejoin="miter" fill="none" stroke="#000000" d="M0 0C0 0 2.143 3.125 .449 7.076L-2.773 14.252C-2.773 14.252-1.197 14.689-.045 15.381 1.137 16.09 1.895 17.053 1.895 17.053 1.895 17.053 3.238 7.803 8.035 6.154L11.555 5.279"/>
</g>
<text xml:space="preserve" transform="matrix(1 0 -0 1 0 790)" font-size="18" font-family="Agenda"><tspan y="-301.333" x="600.1294 611.2714 620.3794 626.6794 635.5174 641.6554 646.0114 655.92947 662.06747 666.20748 674.5055 680.6435 689.75149 698.85946">Anterior Trunk</tspan><tspan y="-710.329" x="981.74746 992.88949 1001.99746 1008.2974 1017.13546 1023.27346 1027.6294 1037.5474">Anterior</tspan><tspan y="-616.207" x="666.54946 677.69149 686.79946 693.0994 701.93746 708.07546 712.43148 722.3495">Anterior</tspan><tspan y="-478.48896" x="980.19949 988.19149 998.0015 1004.7515 1011.0515 1019.8895 1026.0276 1030.3836 1040.3015">Posterior</tspan><tspan y="-456.88896" x="922.5995 927.4595 933.4895 939.2675 949.18557 963.26156 967.40158 975.42959 984.2676 993.37557 999.8555 1005.9935 1010.34957 1018.59359 1027.7015 1032.4356 1040.6436 1046.7815 1050.9215 1059.1295 1065.8795 1075.5635 1084.4015 1092.6978 1099.1777">(from ventricular aspect)</tspan><tspan y="-354.00096" x="663.11148 671.10348 680.9135 687.6635 693.9635 702.8015 708.9395 713.29556 723.21359">Posterior</tspan><tspan y="-291.88294" x="959.04946 967.04147 976.8515 983.6015 989.9015 998.7395 1004.8775 1009.2335 1019.15158 1025.2896 1029.4296 1037.7276 1043.8655 1052.9735 1062.0816">Posterior Trunk</tspan></text>
<g clip-path="url(#clip_4)">
<path transform="matrix(1,0,0,-1,1129.1328,507.4316)" stroke-width="2" stroke-linecap="butt" stroke-miterlimit="10" stroke-linejoin="miter" fill="none" stroke="#000000" d="M0 0C-9.844-7.208-19.209-15.183-30.68-19.705-44.494-25.152-59.381-26.748-73.801-29.857-90.018-33.355-105.928-37.76-122.293-40.805-137.396-43.615-150.475-39.367-164.986-35.23-174.176-32.611-183.656-29.545-191.811-24.479-196.562-21.525-199.836-17.056-202.908-12.487-204.531-10.073-207.785-2.303-210.914-1.885-212.934-1.615-233.406-5.656-231.25-17.103L-213.877-42.154C-213.877-42.154-212.664-45.385-216.705-47.404-216.705-47.404-244.314-58.717-244.719-64.912-244.719-64.912-241.352-85.248-226.133-84.172-225.045-84.096-222.545-81.316-221.658-80.699-218.434-78.453-214.979-76.412-211.338-74.924-202.682-71.385-193.635-71.305-184.937-74.799-177.277-77.873-167.748-80.73-164.004-88.846-160.043-97.432-162.861-108.373-162.969-117.459-163.162-133.438-163.338-149.404-163.383-165.385-163.391-168.258-163.371-171.131-163.371-174.004-163.371-174.004-170.912-192.186-170.777-195.822-170.643-199.459-170.777-212.791-170.777-212.791-170.777-212.791-167.32-233.893-117.713-232.051-117.713-232.051-63.84-232.59-67.342-206.461-67.342-206.461-69.633-182.623-73.807-176.293-74.723-174.904-73.459-168.937-73.381-167.189-73.23-163.887-73.086-160.584-72.947-157.281-72.697-151.232-72.447-145.186-72.221-139.138-71.842-129.049-71.545-118.924-71.654-108.814-71.756-99.385-76.418-87.07-68.705-79.279-62.348-72.857-50.746-72.436-42.473-70.059-32.607-67.223-26.797-63.531-16.639-67.375-10.041-69.869-2.875-78.76 4.443-78.516 4.443-78.516 19.527-72.59 17.777-61.545 17.777-61.545 16.699-58.852 12.93-56.563 12.93-56.563-12.93-42.42-7.408-34.34-7.408-34.34 15.758-18.719 15.623-12.39 15.623-12.39 11.313 .135 0 0Z"/>
<path transform="matrix(1,0,0,-1,1133.5117,517.8701)" stroke-width="2" stroke-linecap="butt" stroke-miterlimit="10" stroke-linejoin="miter" fill="none" stroke="#000000" d="M0 0C3.412-3.424 7.332-5.051 8.754-3.635 10.176-2.217 8.561 1.707 5.148 5.13 1.734 8.556-2.184 10.183-3.605 8.767-5.027 7.349-3.414 3.423 0 0Z"/>
<path transform="matrix(1,0,0,-1,1143.9277,522.36819)" stroke-width="2" stroke-linecap="butt" stroke-miterlimit="10" stroke-linejoin="miter" fill="none" stroke="#000000" d="M0 0C0 0-8.152-6.655-17.361 13.054"/>
<path transform="matrix(1,0,0,-1,959.9707,718.4727)" stroke-width="2" stroke-linecap="butt" stroke-miterlimit="10" stroke-linejoin="miter" fill="none" stroke="#000000" d="M0 0C0-10.711 22.281-19.395 49.766-19.395 77.25-19.395 99.529-10.711 99.529 0 99.529 10.711 77.25 19.395 49.766 19.395 22.281 19.395 0 10.711 0 0Z"/>
<path transform="matrix(1,0,0,-1,972.209,718.8477)" stroke-width="2" stroke-linecap="butt" stroke-miterlimit="10" stroke-linejoin="miter" fill="none" stroke="#000000" d="M0 0C0-6.828 17.189-12.363 38.395-12.363 47.154-12.363 56.32-11.652 64.729-9.027 70.064-7.361 82.012-1.482 73.658 4.914 64.375 12.021 49.6 12.363 38.393 12.363 17.189 12.363 0 6.826 0 0Z"/>
<path transform="matrix(1,0,0,-1,1055.3262,683.7246)" stroke-width="2" stroke-linecap="butt" stroke-miterlimit="10" stroke-linejoin="miter" fill="none" stroke="#000000" d="M0 0C0 0-43.098 29.092-89.564 2.289"/>
<path transform="matrix(1,0,0,-1,1046.7383,678.7539)" stroke-width="2" stroke-linecap="butt" stroke-miterlimit="10" stroke-linejoin="miter" fill="none" stroke="#000000" d="M0 0C0 0 4.547-14.887 6.029-29.971"/>
<path transform="matrix(1,0,0,-1,1035.5274,674.3027)" stroke-width="2" stroke-linecap="butt" stroke-miterlimit="10" stroke-linejoin="miter" fill="none" stroke="#000000" d="M0 0C0 0 2.018-16.785-.676-27.424"/>
<path transform="matrix(1,0,0,-1,1019.6602,670.6602)" stroke-width="2" stroke-linecap="butt" stroke-miterlimit="10" stroke-linejoin="miter" fill="none" stroke="#000000" d="M0 0C0 0-7.836-13.199-9.924-28.418"/>
<path transform="matrix(1,0,0,-1,999.6914,670.2852)" stroke-width="2" stroke-linecap="butt" stroke-miterlimit="10" stroke-linejoin="miter" fill="none" stroke="#000000" d="M0 0C0 0-10.494-8.859-11.033-30.275"/>
<path transform="matrix(1,0,0,-1,978.7793,675.2402)" stroke-width="2" stroke-linecap="butt" stroke-miterlimit="10" stroke-linejoin="miter" fill="none" stroke="#000000" d="M0 0C0 0-8.512-13.717-7.568-30.955"/>
<path transform="matrix(1,0,0,-1,901.582,520.2549)" stroke-width="2" stroke-linecap="butt" stroke-miterlimit="10" stroke-linejoin="miter" fill="none" stroke="#000000" d="M0 0C.943-1.684 5.354-1.809 9.621 .58 13.891 2.971 16.586 6.271 15.643 7.954 14.701 9.64 10.477 9.067 6.207 6.679 1.939 4.291-.941 1.686 0 0Z"/>
<path transform="matrix(1,0,0,-1,920.0801,510.791)" stroke-width="2" stroke-linecap="butt" stroke-miterlimit="10" stroke-linejoin="miter" fill="none" stroke="#000000" d="M0 0C0 0-.025-14.938-22.248-13.456"/>
<path transform="matrix(1,0,0,-1,1135.7715,574.35549)" stroke-width="2" stroke-linecap="butt" stroke-miterlimit="10" stroke-linejoin="miter" fill="none" stroke="#000000" d="M0 0C-3.066-3.041-4.389-6.684-2.949-8.135-1.51-9.588 2.145-8.299 5.213-5.258 8.279-2.217 9.602 1.426 8.16 2.877 6.723 4.328 3.068 3.041 0 0Z"/>
<path transform="matrix(1,0,0,-1,1146.3184,568.2988)" stroke-width="2" stroke-linecap="butt" stroke-miterlimit="10" stroke-linejoin="miter" fill="none" stroke="#000000" d="M0 0C0 0-3.232 .943-6.869-.941-10.506-2.828-18.332-9.365-15.463-17.018"/>
<path transform="matrix(1,0,0,-1,899.6719,587.6191)" stroke-width="2" stroke-linecap="butt" stroke-miterlimit="10" stroke-linejoin="miter" fill="none" stroke="#000000" d="M0 0C-1.988-1.305-5.92 1.17-8.779 5.529-11.639 9.887-12.344 14.479-10.357 15.783-8.367 17.088-4.436 14.613-1.576 10.254 1.283 5.896 1.988 1.305 0 0Z"/>
<path transform="matrix(1,0,0,-1,885.9238,569.6074)" stroke-width="2" stroke-linecap="butt" stroke-miterlimit="10" stroke-linejoin="miter" fill="none" stroke="#000000" d="M0 0C0 0 7.559 2.471 14.078-6.373 14.078-6.373 22.158-18.764 15.693-21.996"/>
</g>
<text xml:space="preserve" transform="matrix(1 0 -0 1 0 790)" font-size="18" font-family="OpenSans" font-weight="bold"><tspan y="-746" x="456.02 467.09 478.52 483.542 500.75 511.748 523.178 533.618 541.376 551.024 555.704 566.89999 577.33999 582.36196 591.99197 602.3599 607.0399 614.05996 618.7399 630.1519 641.1499 652.5799 663.7939 675.2239 680.24588 687.3198 691.9998 706.16586 717.3798 726.1458 736.5138 744.2718 753.9018 764.3418 771.4158 776.43777 787.4357 798.8657">Pulmonary Valve / Conduit Observations</tspan></text>
<text xml:space="preserve" transform="matrix(1 0 -0 1 0 790)" font-size="14" font-family="Agenda"><tspan y="-150.4687" x="733.7153 739.98727 743.37527 749.81527 756.1992 767.1472 774.02127 781.1052 786.1452 793.2292">Ligamentum</tspan><tspan y="-133.6687" x="736.71127 745.37728 750.3193 755.21926 762.09329 766.86727 770.25527 777.88528 783.13528 790.21926">Arteriosum</tspan></text>
<text xml:space="preserve" transform="matrix(1 0 -0 1 0 790)" font-size="16" font-family="MyriadPro"><tspan y="-637.6094" x="606.7979 617.1339 622.2859 629.99789 634.8459 640.1419 645.6299 652.9595 660.97549 668.68746 677.0554 685.0714 690.36746 693.75949 704.78347 713.88748 720.22348 728.23947 733.87149 741.5034 749.15139 754.4474 758.1914 766.9754 775.8554">Graft/Leafet Observations</tspan></text>
<text xml:space="preserve" transform="matrix(1 0 -0 1 0 790)" font-size="14" font-family="MyriadPro"><tspan y="-530.9805" x="809.1113 817.0633 824.7773 830.3213 838.2873 843.8313 846.7993 854.3873 861.4013 873.07736 880.6653 887.2593 894.27328">Cusps Removed</tspan></text>
<text xml:space="preserve" transform="matrix(1 0 -0 1 0 790)" font-size="24" font-family="Agenda" font-weight="bold"><tspan y="-500.7441" x="653.625">X</tspan><tspan y="-93.77609" x="128.625">X</tspan><tspan y="-93.65609" x="251.001 372.009">XX</tspan><tspan y="-498.60807" x="719.60098">X</tspan><tspan y="-452.52809" x="687.2009">X</tspan></text>
</g>
<path transform="matrix(1,0,0,-1,0,790)" d="M1122 546H1174.7V582.425H1122Z" fill="#ffffff"/>
<path transform="matrix(1,0,0,-1,0,790)" stroke-width="1.55" stroke-linecap="butt" stroke-miterlimit="10" stroke-linejoin="miter" fill="none" stroke="#ffffff" d="M1122 546H1174.7V582.425H1122Z"/>
<path transform="matrix(1,0,0,-1,0,790)" d="M808 521H904.1V544.25H808Z" fill="#ffffff"/>
<path transform="matrix(1,0,0,-1,0,790)" stroke-width="1.55" stroke-linecap="butt" stroke-miterlimit="10" stroke-linejoin="miter" fill="none" stroke="#ffffff" d="M808 521H904.1V544.25H808Z"/>
<path transform="matrix(1,0,0,-1,0,790)" d="M728 129H811.7V161.55H728Z" fill="#ffffff"/>
<path transform="matrix(1,0,0,-1,0,790)" stroke-width="1.55" stroke-linecap="butt" stroke-miterlimit="10" stroke-linejoin="miter" fill="none" stroke="#ffffff" d="M728 129H811.7V161.55H728Z"/>
</svg>
