<?xml version="1.0" encoding="UTF-8" standalone="no"?>
<svg
   xmlns:dc="http://purl.org/dc/elements/1.1/"
   xmlns:cc="http://creativecommons.org/ns#"
   xmlns:rdf="http://www.w3.org/1999/02/22-rdf-syntax-ns#"
   xmlns:svg="http://www.w3.org/2000/svg"
   xmlns="http://www.w3.org/2000/svg"
   viewBox="0 0 793.70667 1122.52"
   height="1122.52"
   width="793.70667"
   xml:space="preserve"
   id="svg2"
   version="1.1"><metadata
     id="metadata8"><rdf:RDF><cc:Work
         rdf:about=""><dc:format>image/svg+xml</dc:format><dc:type
           rdf:resource="http://purl.org/dc/dcmitype/StillImage" /></cc:Work></rdf:RDF></metadata><defs
     id="defs6"><clipPath
       id="clipPath18"
       clipPathUnits="userSpaceOnUse"><path
         id="path16"
         d="M 0,841.89 H 595.28 V 0 H 0 Z" /></clipPath></defs><g
     transform="matrix(1.3333333,0,0,-1.3333333,0,1122.52)"
     id="g10"><g
       id="g12"><g
         clip-path="url(#clipPath18)"
         id="g14"><g
           transform="translate(321.7998,691.0103)"
           id="g20"><path
             id="path22"
             style="fill:none;stroke:#231f20;stroke-width:2;stroke-linecap:butt;stroke-linejoin:miter;stroke-miterlimit:10;stroke-dasharray:none;stroke-opacity:1"
             d="m 0,0 c -0.249,-18.435 0.83,-46.642 4.9,-67.016 0,0 2.46,-12.752 12.121,-13.523 0,0 11.977,-1.16 11.977,-10.82 0,0 1.935,-13.912 -18.162,-12.752 0,0 -5.796,1.931 -5.023,-13.912 0,0 5.412,-115.928 0,-161.911 0,0 -3.864,-22.798 7.728,-40.187 0,0 11.596,-21.256 115.545,-122.112 0,0 6.956,-7.726 13.911,-11.592 0,0 15.072,-3.476 22.028,-10.818 l 68.401,-56.419 c 0,0 7.341,-8.501 -4.251,-20.097 0,0 -8.891,-8.886 -12.367,-5.021 l -61.059,52.168 c 0,0 -6.18,6.181 -11.976,1.546 0,0 -3.865,-3.481 0.385,-13.912 l 19.707,-37.872 c 0,0 6.572,-15.456 -11.592,-17.774 0,0 -21.256,-1.548 -25.117,17.774 0,0 -7.346,30.531 -14.686,36.712 0,0 -10.048,5.796 -4.637,17.777 0,0 2.705,7.341 -8.891,22.795 0,0 -30.138,42.51 -67.238,81.15 0,0 -31.685,31.688 -35.551,40.962 0,0 -10.049,15.072 -12.367,15.843 0,0 -4.684,5.411 -7.945,-5.022 0,0 -9.441,-18.781 -21.811,-33.234 l -7.598,-8.338 c -5.483,-5.953 -101.541,-113.465 -101.541,-113.465 -9.412,-13.313 -19.435,-70.936 -19.435,-70.936 -21.352,-7.179 -25.71,11.42 -25.71,11.42 l 14.734,51.683 c 0,0 6.616,17.959 -4.59,11.392 l -59.727,-54.102 c 0,0 -8.779,-9.708 -12.538,-6.567 0,0 -17.002,6.567 -21.252,17.774 0,0 -2.707,2.704 5.796,8.886 0,0 97.382,68.015 117.477,91.199 0,0 23.959,25.118 41.349,40.961 0,0 56.033,49.463 62.603,64.534 0,0 11.206,18.934 14.298,68.782 v 147.613 c 0,0 0,6.181 -12.367,5.41 0,0 -21.641,-0.385 -21.641,5.411 0,0 -3.092,13.911 4.638,14.297 0,0 21.64,-1.931 21.64,8.501 0,0 -1.384,35.957 -0.777,67.694 M 24.943,-89.04 c 0.958,0 1.736,-1.386 1.736,-3.091 0,-1.711 -0.778,-3.093 -1.736,-3.093 -0.961,0 -1.74,1.382 -1.74,3.093 0,1.705 0.779,3.091 1.74,3.091 z M -31.489,16.933 c 0,0 0.315,-6.611 -27.702,-11.962 0,0 -5.666,-7.239 0,-11.331 0,0 21.092,1.888 27.702,8.814 0,0 3.148,1.257 3.777,-4.722 l 1.889,-14.795 c 0,0 7.241,-6.611 11.646,0 l -2.832,21.405 10.387,-5.875 c 0,0 9.935,-0.696 8.502,7.134 l -17.629,11.332 m -39.58,-17.721 c -0.546,-2.083 -1.953,-3.519 -3.141,-3.208 -1.189,0.313 -1.708,2.254 -1.159,4.339 0.546,2.082 1.954,3.519 3.142,3.209 1.186,-0.314 1.706,-2.255 1.158,-4.34 z m 34.928,-16.947 c -2.12,0.247 -3.724,1.429 -3.581,2.638 0.142,1.207 1.973,1.985 4.092,1.736 2.121,-0.248 3.725,-1.43 3.583,-2.637 -0.141,-1.209 -1.975,-1.985 -4.094,-1.737 z M -2.665,0.797 C -4.778,-0.036 -6.873,0.263 -7.349,1.467 -7.824,2.671 -6.498,4.322 -4.386,5.156 -2.276,5.989 -0.175,5.69 0.3,4.486 0.773,3.283 -0.554,1.632 -2.665,0.797 Z m -15.418,-40.909 c -1.26,-0.944 -0.787,-2.834 -0.787,-2.834 2.361,-6.292 17.768,-25.338 17.768,-25.338 -2.377,-8.501 -11.787,-5.331 -11.787,-5.331 -3.779,4.43 -17,27.05 -17,27.05 0,0 -2.377,2.517 -3.076,-1.259 m 26.257,-23.869 c -2.027,-0.676 -3.977,-0.284 -4.363,0.87 -0.385,1.153 0.945,2.635 2.97,3.31 2.022,0.676 3.978,0.287 4.363,-0.866 0.382,-1.157 -0.949,-2.639 -2.97,-3.314 z M -50.27,7.255 c 0.734,19.877 2.409,32.764 5.848,45.135 L 4.655,47.754 c 0,0 -3.51,-14.07 -4.459,-41.151" /></g></g></g></g></svg>