<?xml version="1.0" standalone="no"?>
<!DOCTYPE svg PUBLIC "-//W3C//DTD SVG 20010904//EN"
 "http://www.w3.org/TR/2001/REC-SVG-20010904/DTD/svg10.dtd">
<svg version="1.0" xmlns="http://www.w3.org/2000/svg"
 width="2294.000000pt" height="2359.000000pt" viewBox="0 0 2294.000000 2359.000000"
 preserveAspectRatio="xMidYMid meet">

<g transform="translate(0.000000,2359.000000) scale(0.100000,-0.100000)"
fill="#000000" stroke="none">
<path d="M12820 23007 c-40 -14 -70 -63 -70 -114 0 -26 -4 -33 -20 -33 -13 0
-20 -7 -20 -20 0 -13 7 -20 20 -20 19 0 20 -7 20 -110 l0 -110 25 0 25 0 0
110 0 110 34 0 c25 0 35 5 39 19 4 17 -1 20 -32 23 -35 3 -36 4 -35 40 2 51
18 68 65 68 32 0 39 4 39 19 0 11 -9 21 -22 25 -28 7 -26 7 -68 -7z"/>
<path d="M11312 22819 c3 -187 3 -191 27 -210 23 -18 25 -19 43 -2 16 15 17
18 3 25 -13 8 -15 38 -15 193 l0 185 -31 0 -31 0 4 -191z"/>
<path d="M11472 22819 c3 -187 3 -191 27 -210 23 -18 25 -19 43 -2 16 15 17
18 3 25 -13 8 -15 38 -15 193 l0 185 -31 0 -31 0 4 -191z"/>
<path d="M9246 22799 c-42 -99 -76 -184 -76 -190 0 -5 10 -9 23 -9 18 0 28 11
44 50 l21 50 72 0 71 0 21 -50 c18 -44 24 -50 50 -50 16 0 27 3 25 8 -3 4 -39
89 -82 190 -42 100 -80 182 -84 182 -5 0 -43 -81 -85 -181z m108 19 c10 -29
21 -59 23 -65 4 -9 -9 -13 -46 -13 -28 0 -51 3 -51 6 0 13 45 124 50 124 3 0
14 -24 24 -52z"/>
<path d="M10360 22965 c-10 -12 -10 -18 0 -30 16 -19 39 -19 46 0 6 15 -11 45
-26 45 -4 0 -13 -7 -20 -15z"/>
<path d="M10986 22798 c-42 -101 -76 -186 -76 -190 0 -5 10 -8 23 -8 18 0 28
11 44 50 l21 50 72 0 72 0 21 -50 c17 -40 26 -50 45 -50 20 0 23 4 18 23 -11
43 -145 352 -154 355 -5 1 -43 -80 -86 -180z m108 20 c10 -29 21 -59 23 -65 4
-10 -9 -13 -47 -13 -38 0 -51 3 -47 13 2 6 13 36 23 65 10 28 21 52 24 52 3 0
14 -24 24 -52z"/>
<path d="M13382 22965 c-37 -16 -66 -71 -56 -109 8 -32 40 -61 89 -82 55 -22
75 -42 75 -75 0 -53 -64 -74 -137 -44 -43 18 -47 16 -34 -18 7 -17 21 -29 38
-33 15 -3 36 -8 45 -10 30 -9 96 16 117 43 28 34 28 101 1 135 -11 14 -44 36
-75 48 -42 17 -57 29 -62 48 -10 42 8 57 68 56 48 0 68 8 69 28 0 9 -58 28
-84 28 -12 -1 -36 -7 -54 -15z"/>
<path d="M13631 22966 c-15 -18 -3 -46 20 -46 25 0 35 26 19 45 -15 19 -24 19
-39 1z"/>
<path d="M10158 22929 c-11 -6 -18 -22 -18 -39 0 -25 -4 -30 -25 -30 -18 0
-25 -5 -25 -20 0 -15 7 -20 25 -20 25 0 25 -1 25 -88 0 -80 2 -91 23 -110 30
-28 87 -30 87 -3 0 13 -9 20 -30 25 l-30 6 0 84 0 85 42 3 c31 2 44 8 46 21 3
14 -4 17 -42 17 l-46 0 0 40 c0 42 -4 46 -32 29z"/>
<path d="M12988 22928 c-9 -7 -18 -24 -20 -38 -2 -17 -10 -26 -25 -28 -33 -5
-31 -42 2 -42 25 0 25 -1 25 -87 0 -49 4 -93 8 -99 11 -18 48 -34 76 -34 39 0
35 36 -4 44 l-30 6 0 84 0 85 42 3 c31 2 44 8 46 21 3 14 -4 17 -42 17 l-46 0
0 40 c0 42 -6 48 -32 28z"/>
<path d="M9613 22850 c-86 -52 -95 -167 -19 -225 44 -34 130 -35 171 -3 54 42
69 119 35 176 -41 67 -124 91 -187 52z m112 -36 c21 -8 45 -56 45 -89 0 -16
-12 -38 -29 -56 -47 -46 -106 -37 -137 22 -39 76 38 154 121 123z"/>
<path d="M10005 22863 c-11 -3 -28 -12 -37 -21 -16 -14 -18 -14 -18 1 0 11 -8
17 -25 17 l-25 0 0 -130 0 -130 25 0 c24 0 25 2 25 75 0 105 23 145 82 145 14
0 18 5 14 16 -3 9 -6 20 -6 25 0 9 -3 10 -35 2z"/>
<path d="M10564 22856 c-95 -42 -110 -176 -25 -233 57 -38 161 -29 161 14 0 9
-12 11 -42 7 -56 -7 -93 8 -113 46 -42 81 38 156 133 126 14 -5 21 -1 25 14
10 38 -76 53 -139 26z"/>
<path d="M11693 22850 c-86 -52 -95 -167 -19 -225 26 -20 45 -25 88 -25 62 0
97 20 123 70 60 117 -80 249 -192 180z m112 -36 c21 -8 45 -56 45 -89 0 -16
-12 -38 -29 -56 -47 -46 -106 -37 -137 22 -39 76 38 154 121 123z"/>
<path d="M12020 22857 c-49 -24 -60 -88 -23 -129 14 -15 14 -19 -1 -33 -12
-13 -14 -21 -5 -37 9 -16 6 -24 -12 -44 -33 -36 -30 -81 9 -116 27 -24 41 -28
88 -28 48 0 59 4 85 29 17 17 29 40 29 55 0 37 -41 78 -96 96 -60 21 -66 36
-16 44 59 9 85 35 88 85 1 23 4 45 8 48 3 4 6 13 6 22 0 13 -14 16 -68 18 -38
1 -78 -3 -92 -10z m84 -40 c23 -17 18 -55 -9 -73 -44 -29 -97 33 -60 70 20 19
45 21 69 3z m1 -221 c27 -12 35 -21 35 -40 0 -30 -25 -46 -71 -46 -34 0 -69
24 -69 47 0 50 41 65 105 39z"/>
<path d="M12365 22863 c-11 -3 -28 -12 -37 -21 -16 -14 -18 -14 -18 1 0 11 -8
17 -25 17 l-25 0 0 -130 0 -130 25 0 c24 0 25 2 25 75 0 105 23 145 82 145 14
0 18 5 14 16 -3 9 -6 20 -6 25 0 9 -3 10 -35 2z"/>
<path d="M12483 22860 c-13 -6 -23 -18 -23 -30 0 -23 5 -24 49 -9 25 9 36 8
56 -5 14 -9 25 -25 25 -36 0 -16 -7 -20 -35 -20 -93 0 -143 -72 -94 -134 16
-20 29 -26 60 -26 22 0 49 5 59 10 14 7 25 7 39 -2 15 -9 23 -9 35 1 14 11 14
15 1 28 -11 10 -15 37 -15 94 0 76 -2 82 -29 110 -31 31 -81 38 -128 19z m107
-162 c0 -31 -28 -58 -60 -58 -25 0 -40 15 -40 40 0 20 34 40 66 40 28 0 34 -4
34 -22z"/>
<path d="M14104 22860 c-32 -13 -72 -67 -80 -106 -18 -95 73 -175 174 -153 38
8 37 7 46 37 7 20 5 21 -19 12 -47 -18 -94 -12 -120 15 -45 44 -35 55 53 55
47 0 83 5 90 12 15 15 16 63 2 89 -22 40 -95 60 -146 39z m84 -46 c12 -8 22
-24 22 -35 0 -17 -7 -19 -65 -19 -36 0 -65 4 -65 8 0 20 50 61 75 62 6 0 21
-7 33 -16z"/>
<path d="M10350 22730 l0 -130 30 0 30 0 0 130 0 130 -30 0 -30 0 0 -130z"/>
<path d="M13620 22730 l0 -130 30 0 30 0 0 130 0 130 -30 0 -30 0 0 -130z"/>
<path d="M13770 22840 c0 -18 7 -20 54 -20 l54 0 -59 -102 c-32 -57 -59 -106
-59 -110 0 -5 47 -8 105 -8 98 0 105 1 105 20 0 18 -7 20 -66 20 -77 0 -77
-10 0 125 l55 95 -94 0 c-88 0 -95 -1 -95 -20z"/>
<path d="M3445 21373 c-31 -8 -65 -44 -65 -69 0 -33 -10 -54 -26 -54 -8 0 -14
-9 -14 -20 0 -11 7 -20 15 -20 12 0 15 -17 15 -95 0 -95 0 -95 25 -95 25 0 25
0 25 95 l0 95 30 0 c23 0 30 4 30 20 0 16 -7 20 -30 20 -26 0 -30 4 -30 26 0
44 17 64 55 64 37 0 49 22 19 34 -17 6 -18 6 -49 -1z"/>
<path d="M4860 21373 c-29 -11 -60 -47 -60 -69 0 -33 -10 -54 -26 -54 -8 0
-14 -9 -14 -20 0 -11 7 -20 15 -20 12 0 15 -17 15 -95 0 -95 0 -95 25 -95 25
0 25 0 25 95 l0 95 30 0 c23 0 30 4 30 20 0 16 -7 20 -30 20 -26 0 -30 4 -30
26 0 44 17 64 55 64 23 0 35 5 35 14 0 22 -36 32 -70 19z"/>
<path d="M4982 21204 c3 -145 5 -168 20 -178 23 -14 49 7 30 26 -8 8 -12 59
-12 165 0 147 -1 153 -20 153 -20 0 -20 -5 -18 -166z"/>
<path d="M6080 21200 l0 -169 36 -7 c49 -9 112 1 134 21 11 10 24 33 30 51 25
76 -24 143 -110 152 l-50 5 0 58 c0 52 -2 59 -20 59 -19 0 -20 -7 -20 -170z
m140 -10 c26 -26 27 -91 3 -112 -24 -21 -59 -31 -83 -23 -17 6 -20 15 -20 74
0 37 3 71 7 74 14 15 74 6 93 -13z"/>
<path d="M3841 21197 c-68 -83 -123 -156 -122 -162 4 -31 44 6 151 140 66 82
119 154 117 159 -9 26 -31 5 -146 -137z"/>
<path d="M2660 21318 c-57 -39 -75 -72 -75 -138 0 -102 63 -160 174 -160 96 0
111 13 111 96 l0 65 -57 -3 c-46 -2 -59 -7 -61 -20 -3 -15 4 -18 37 -18 40 0
41 -1 41 -34 0 -39 -16 -49 -83 -48 -76 1 -121 55 -114 137 6 67 49 105 118
105 26 0 59 -4 73 -10 22 -8 26 -7 26 10 0 28 -30 40 -98 40 -45 0 -67 -5 -92
-22z"/>
<path d="M4050 21180 l0 -160 95 0 c88 0 95 1 95 20 0 18 -7 20 -70 20 l-70 0
0 140 0 140 -25 0 -25 0 0 -160z"/>
<path d="M5761 21318 c-58 -39 -76 -72 -76 -138 0 -66 18 -99 75 -137 46 -32
134 -32 181 0 37 24 79 97 79 137 0 36 -40 110 -73 134 -18 13 -48 21 -90 24
-52 3 -67 0 -96 -20z m155 -34 c56 -37 70 -117 31 -175 -43 -64 -134 -70 -188
-13 -20 21 -24 36 -24 86 0 55 3 62 33 89 26 23 42 29 78 29 25 0 56 -7 70
-16z"/>
<path d="M7650 21321 c0 -26 17 -36 35 -21 18 15 8 40 -16 40 -12 0 -19 -7
-19 -19z"/>
<path d="M3572 21298 c-7 -7 -12 -20 -12 -30 0 -11 -7 -18 -20 -18 -13 0 -20
-7 -20 -20 0 -13 7 -20 20 -20 18 0 20 -7 20 -75 0 -62 3 -78 21 -96 25 -25
72 -23 77 5 3 11 0 16 -7 12 -6 -4 -20 -2 -31 4 -17 9 -20 21 -20 80 l0 70 40
0 c33 0 40 3 40 20 0 17 -7 20 -40 20 -38 0 -40 2 -40 30 0 32 -9 37 -28 18z"/>
<path d="M5408 21299 c-10 -6 -18 -19 -18 -29 0 -13 -7 -20 -20 -20 -13 0 -20
-7 -20 -20 0 -13 7 -20 20 -20 18 0 20 -7 20 -75 0 -62 3 -78 21 -96 25 -25
72 -23 77 5 3 11 0 16 -7 12 -6 -4 -20 -2 -31 4 -17 9 -20 21 -20 80 l0 70 40
0 c33 0 40 3 40 20 0 17 -7 20 -39 20 -37 0 -40 2 -43 29 -3 25 -6 28 -20 20z"/>
<path d="M7478 21299 c-10 -6 -18 -19 -18 -29 0 -13 -7 -20 -20 -20 -13 0 -20
-7 -20 -20 0 -13 7 -20 20 -20 18 0 20 -7 20 -75 0 -62 3 -78 21 -96 25 -25
72 -23 77 5 3 11 0 16 -7 12 -6 -4 -20 -2 -31 4 -17 9 -20 21 -20 80 l0 70 40
0 c33 0 40 3 40 20 0 17 -7 20 -39 20 -37 0 -40 2 -43 29 -3 25 -6 28 -20 20z"/>
<path d="M2947 21243 c-4 -3 -7 -55 -7 -115 l0 -108 25 0 c24 0 25 2 25 73 0
64 3 76 23 95 13 12 31 22 40 22 21 0 22 29 2 36 -8 4 -26 -1 -40 -10 -23 -15
-26 -15 -31 -1 -6 16 -26 20 -37 8z"/>
<path d="M3134 21236 c-26 -20 -11 -31 37 -27 41 3 69 -11 69 -35 0 -8 -10
-14 -25 -14 -14 0 -41 -6 -60 -14 -68 -29 -55 -118 19 -124 20 -2 44 2 52 9
10 8 17 9 28 0 14 -12 46 -5 46 9 0 5 -4 12 -10 15 -5 3 -10 38 -10 76 0 61
-3 73 -25 94 -28 29 -89 34 -121 11z m106 -131 c0 -21 -38 -57 -57 -53 -26 5
-39 34 -24 52 18 21 81 22 81 1z"/>
<path d="M4344 21240 c-70 -28 -84 -139 -25 -192 24 -22 41 -28 75 -28 56 0
76 8 76 30 0 15 -5 16 -39 7 -32 -9 -44 -8 -65 6 -14 9 -30 26 -36 37 -10 19
-8 20 58 20 80 0 108 18 96 64 -13 53 -81 80 -140 56z m84 -42 c26 -26 13 -38
-43 -38 -59 0 -64 4 -38 32 18 20 63 24 81 6z"/>
<path d="M4555 21237 c-28 -21 -10 -36 35 -30 41 6 70 -8 70 -33 0 -8 -10 -14
-24 -14 -37 0 -86 -20 -96 -40 -15 -29 -12 -65 8 -83 21 -19 82 -23 99 -6 8 8
17 7 32 -3 18 -11 23 -11 31 2 6 9 6 18 0 24 -6 6 -10 41 -10 78 0 60 -3 72
-25 93 -28 28 -89 34 -120 12z m105 -130 c0 -21 -47 -60 -65 -53 -22 8 -29 34
-15 51 16 19 80 20 80 2z"/>
<path d="M5165 21241 c-42 -18 -60 -50 -60 -108 0 -49 3 -58 33 -84 30 -27 39
-30 90 -27 49 3 57 6 60 24 3 20 1 21 -36 11 -33 -9 -45 -8 -66 6 -14 9 -30
26 -36 37 -10 19 -8 20 58 20 80 0 108 18 96 64 -13 53 -81 80 -139 57z m83
-43 c26 -26 13 -38 -43 -38 -59 0 -64 4 -38 32 18 20 63 24 81 6z"/>
<path d="M6355 21225 c-14 -13 -25 -31 -25 -40 0 -19 35 -54 79 -77 28 -16 31
-20 21 -39 -12 -21 -39 -23 -82 -4 -14 5 -18 2 -18 -13 0 -24 18 -32 71 -32
44 0 79 27 79 61 0 22 -54 79 -75 79 -19 0 -35 24 -26 39 6 9 22 12 45 9 29
-3 36 -1 36 13 0 36 -71 39 -105 4z"/>
<path d="M6593 21240 c-32 -13 -63 -68 -63 -113 0 -31 7 -46 35 -74 32 -32 37
-34 92 -31 51 3 58 6 61 25 3 20 1 21 -31 11 -40 -12 -81 3 -105 40 l-14 22
69 0 c81 0 109 18 97 64 -13 54 -80 80 -141 56z m85 -42 c26 -26 13 -38 -43
-38 -59 0 -64 4 -38 32 18 20 63 24 81 6z"/>
<path d="M6807 21243 c-4 -3 -7 -55 -7 -115 l0 -108 25 0 c24 0 25 2 25 75 0
63 3 77 22 95 12 11 30 20 40 20 19 0 25 25 8 35 -6 4 -24 0 -41 -9 -26 -13
-31 -13 -36 0 -5 15 -25 19 -36 7z"/>
<path d="M6970 21243 c-1 -20 86 -223 96 -223 5 0 25 37 44 83 18 45 39 97 47
115 12 29 12 32 -6 32 -14 0 -26 -18 -47 -67 -15 -38 -30 -71 -34 -75 -3 -4
-18 26 -34 67 -22 56 -33 75 -47 75 -11 0 -19 -3 -19 -7z"/>
<path d="M7224 21236 c-26 -20 -11 -31 37 -27 41 3 69 -11 69 -35 0 -8 -10
-14 -25 -14 -14 0 -41 -6 -60 -14 -68 -29 -55 -118 19 -124 20 -2 43 2 51 8
10 8 19 8 34 -2 26 -16 53 4 33 24 -7 7 -12 41 -12 80 0 60 -3 72 -25 93 -28
29 -89 34 -121 11z m106 -131 c0 -21 -38 -57 -57 -53 -26 5 -39 34 -24 52 18
21 81 22 81 1z"/>
<path d="M7650 21135 c0 -108 1 -115 20 -115 19 0 20 7 20 115 0 108 -1 115
-20 115 -19 0 -20 -7 -20 -115z"/>
<path d="M7812 21230 c-36 -22 -52 -54 -52 -107 0 -27 8 -43 34 -69 29 -29 41
-34 83 -34 58 0 90 19 109 67 46 108 -72 205 -174 143z m118 -42 c37 -40 22
-110 -27 -129 -56 -21 -113 34 -97 95 13 55 86 75 124 34z"/>
<path d="M8060 21135 c0 -108 1 -115 20 -115 18 0 20 7 20 76 0 93 10 114 53
114 50 0 57 -14 57 -107 0 -76 2 -83 20 -83 19 0 20 7 20 94 0 90 -1 96 -26
115 -29 23 -74 27 -104 11 -13 -7 -21 -7 -25 0 -3 5 -13 10 -21 10 -11 0 -14
-22 -14 -115z"/>
<path d="M4580 20554 c0 -154 7 -194 35 -194 20 0 29 20 16 33 -7 7 -11 65
-11 164 0 146 -1 153 -20 153 -19 0 -20 -7 -20 -156z"/>
<path d="M5359 20666 c-54 -124 -34 -392 32 -409 10 -3 19 -4 19 -3 0 2 -10
29 -21 62 -31 85 -31 238 -1 314 26 65 27 80 6 80 -8 0 -24 -19 -35 -44z"/>
<path d="M8243 20653 c29 -77 31 -255 4 -323 -24 -60 -25 -74 -5 -78 27 -5 60
97 66 205 6 132 -32 253 -82 253 -2 0 5 -26 17 -57z"/>
<path d="M2652 20619 c-16 -36 -33 -75 -37 -88 -4 -12 -22 -56 -41 -97 -34
-74 -34 -75 -12 -72 16 2 29 16 42 46 l19 42 62 0 62 0 17 -45 c13 -32 23 -45
37 -45 10 0 19 4 19 9 0 13 -120 294 -131 305 -5 5 -21 -18 -37 -55z m78 -136
c0 -2 -20 -3 -45 -3 -25 0 -45 3 -45 7 0 4 10 31 22 60 l22 53 23 -57 c13 -31
23 -58 23 -60z"/>
<path d="M3563 20664 c-7 -18 11 -39 26 -30 17 11 13 46 -4 46 -9 0 -18 -7
-22 -16z"/>
<path d="M4034 20663 c39 -106 121 -303 126 -303 4 0 33 68 66 152 32 83 61
155 62 160 2 4 -5 8 -16 8 -20 0 -23 -5 -105 -220 -4 -12 -7 -11 -12 5 -3 11
-23 63 -43 115 -31 79 -41 96 -61 98 -19 3 -23 0 -17 -15z"/>
<path d="M5493 20664 c-8 -21 13 -42 28 -27 13 13 5 43 -11 43 -6 0 -13 -7
-17 -16z"/>
<path d="M6523 20664 c-7 -18 11 -39 26 -30 17 11 13 46 -4 46 -9 0 -18 -7
-22 -16z"/>
<path d="M7503 20664 c-8 -21 13 -42 28 -27 13 13 5 43 -11 43 -6 0 -13 -7
-17 -16z"/>
<path d="M3398 20639 c-10 -6 -18 -21 -18 -34 0 -18 -5 -25 -20 -25 -11 0 -20
-7 -20 -15 0 -8 9 -15 20 -15 18 0 20 -7 20 -75 0 -63 3 -77 22 -95 26 -24 63
-26 72 -5 3 10 -1 15 -12 15 -32 0 -42 22 -42 92 l0 68 40 0 c54 0 56 27 3 32
-34 3 -39 6 -43 35 -4 27 -8 30 -22 22z"/>
<path d="M5918 20639 c-10 -6 -18 -21 -18 -34 0 -18 -5 -25 -20 -25 -11 0 -20
-7 -20 -15 0 -8 9 -15 19 -15 17 0 19 -9 22 -80 3 -65 8 -82 24 -94 26 -20 61
-20 69 -1 3 10 -1 15 -12 15 -32 0 -42 22 -42 91 l0 68 37 3 c50 4 55 26 6 30
-34 3 -39 6 -43 35 -4 27 -8 30 -22 22z"/>
<path d="M2938 20579 c-15 -6 -37 -26 -49 -45 -66 -107 58 -221 168 -154 56
34 61 126 10 177 -27 28 -87 38 -129 22z m95 -41 c22 -17 36 -68 26 -95 -20
-55 -101 -67 -134 -20 -36 51 0 127 59 127 18 0 40 -6 49 -12z"/>
<path d="M3265 20582 c-11 -2 -26 -9 -34 -16 -11 -8 -15 -8 -18 2 -7 20 -31
13 -35 -10 -2 -13 -2 -62 0 -110 3 -68 7 -88 18 -88 10 0 14 14 15 53 0 80 18
120 57 132 46 13 43 47 -3 37z"/>
<path d="M3744 20580 c-34 -13 -74 -69 -74 -101 0 -72 57 -123 133 -117 31 2
43 8 45 21 3 16 -1 18 -28 12 -83 -18 -140 64 -89 129 19 24 27 27 73 25 40
-2 52 0 54 13 5 25 -68 37 -114 18z"/>
<path d="M4358 20584 c-10 -3 -18 -14 -18 -24 0 -16 4 -18 24 -10 27 10 67 3
78 -14 16 -23 7 -34 -34 -40 -77 -12 -112 -72 -68 -116 22 -22 79 -27 98 -8 8
8 15 8 27 -2 25 -21 31 -2 27 85 -4 98 -20 125 -78 130 -21 2 -47 1 -56 -1z
m90 -137 c5 -23 -35 -59 -61 -55 -15 2 -23 11 -25 30 -3 23 2 28 30 37 41 11
52 9 56 -12z"/>
<path d="M4998 20574 c-76 -41 -74 -159 2 -199 54 -28 130 -16 130 22 0 9 -6
10 -26 3 -42 -16 -64 -12 -97 21 -28 29 -29 32 -13 41 10 6 41 8 69 5 39 -3
54 0 68 14 37 37 -18 110 -83 109 -13 -1 -35 -7 -50 -16z m94 -38 c19 -27 7
-36 -47 -36 -61 0 -68 9 -28 39 27 22 60 20 75 -3z"/>
<path d="M5626 20583 c-3 -4 -6 -55 -6 -115 0 -101 1 -108 20 -108 18 0 20 7
20 78 0 88 12 115 53 115 48 0 57 -17 57 -109 0 -77 2 -84 20 -84 19 0 20 7
20 94 0 90 -1 96 -26 115 -32 25 -71 27 -102 5 -12 -8 -22 -11 -22 -6 0 12
-26 23 -34 15z"/>
<path d="M6118 20574 c-76 -41 -74 -159 2 -199 54 -28 130 -16 130 22 0 9 -6
10 -26 3 -42 -16 -64 -12 -97 21 -28 29 -29 32 -13 41 10 6 41 8 69 5 39 -3
54 0 68 14 37 37 -18 110 -83 109 -13 -1 -35 -7 -50 -16z m94 -38 c19 -27 7
-36 -47 -36 -61 0 -68 9 -28 39 27 22 60 20 75 -3z"/>
<path d="M6405 20574 c-19 -10 -31 -11 -33 -5 -2 6 -10 11 -18 11 -11 0 -14
-22 -14 -110 0 -91 3 -110 15 -110 16 0 18 5 15 66 -2 63 23 113 60 120 33 7
32 6 24 28 -8 20 -12 20 -49 0z"/>
<path d="M6698 20579 c-15 -6 -37 -26 -49 -45 -66 -107 58 -221 168 -154 56
34 61 126 10 177 -27 28 -87 38 -129 22z m95 -41 c22 -17 36 -68 26 -95 -20
-55 -101 -67 -134 -20 -36 51 0 127 59 127 18 0 40 -6 49 -12z"/>
<path d="M7025 20582 c-11 -2 -26 -9 -34 -16 -11 -8 -15 -8 -18 2 -7 20 -31
13 -35 -10 -2 -13 -2 -62 0 -110 3 -68 7 -88 18 -88 10 0 14 14 15 53 0 80 18
120 57 132 46 13 43 47 -3 37z"/>
<path d="M7668 20574 c-33 -17 -58 -62 -58 -101 0 -38 34 -91 66 -103 57 -22
124 -8 124 26 0 9 -8 10 -34 2 -43 -14 -89 3 -104 38 -13 27 -16 26 59 29 74
2 89 9 89 39 0 38 -10 55 -41 71 -35 19 -66 18 -101 -1z m101 -50 c11 -24 10
-24 -49 -24 -33 0 -60 3 -60 8 1 25 50 53 81 45 9 -3 22 -16 28 -29z"/>
<path d="M8143 20578 c-6 -7 -21 -42 -34 -77 l-23 -64 -25 72 c-32 93 -51 95
-83 6 -12 -36 -25 -65 -28 -65 -3 0 -16 29 -28 65 -18 48 -29 65 -42 65 -18 0
-16 -8 15 -92 45 -126 46 -128 54 -128 4 0 20 36 36 79 17 44 32 77 35 75 2
-3 16 -37 30 -77 15 -40 31 -72 36 -72 14 0 86 207 76 217 -5 5 -13 4 -19 -4z"/>
<path d="M3560 20470 c0 -103 1 -110 20 -110 19 0 20 7 20 110 0 103 -1 110
-20 110 -19 0 -20 -7 -20 -110z"/>
<path d="M4700 20577 c0 -1 16 -41 36 -87 19 -47 39 -95 44 -107 5 -13 13 -23
17 -23 7 0 60 122 89 203 12 34 -27 18 -42 -18 -7 -19 -21 -52 -30 -72 l-15
-38 -31 73 c-22 53 -35 72 -49 72 -10 0 -19 -1 -19 -3z"/>
<path d="M5490 20470 c0 -103 1 -110 20 -110 19 0 20 7 20 110 0 103 -1 110
-20 110 -19 0 -20 -7 -20 -110z"/>
<path d="M6520 20470 c0 -103 1 -110 20 -110 19 0 20 7 20 110 0 103 -1 110
-20 110 -19 0 -20 -7 -20 -110z"/>
<path d="M7230 20578 c0 -15 89 -213 96 -215 8 -3 47 86 90 200 13 35 -27 18
-42 -18 -7 -19 -21 -52 -30 -72 l-15 -38 -31 73 c-22 53 -35 72 -49 72 -10 0
-19 -1 -19 -2z"/>
<path d="M7500 20470 c0 -103 1 -110 20 -110 19 0 20 7 20 110 0 103 -1 110
-20 110 -19 0 -20 -7 -20 -110z"/>
<path d="M4920 17390 l0 -160 95 0 c88 0 95 1 95 20 0 18 -7 20 -70 20 l-70 0
0 140 0 140 -25 0 -25 0 0 -160z"/>
<path d="M5214 17531 c-88 -54 -111 -166 -47 -241 35 -42 76 -61 133 -62 63 0
90 9 90 31 0 15 -9 16 -62 13 -97 -5 -148 36 -148 119 0 80 59 125 152 116 51
-4 58 -3 58 13 0 23 -19 30 -88 30 -38 0 -67 -6 -88 -19z"/>
<path d="M7840 17390 l0 -160 25 0 c24 0 25 2 25 70 0 67 1 70 23 70 18 0 36
-17 73 -70 41 -59 54 -70 78 -70 21 0 26 3 19 13 -6 6 -29 38 -52 70 l-42 58
25 30 c64 76 9 149 -114 149 l-60 0 0 -160z m128 104 c44 -31 17 -84 -44 -84
l-34 0 0 50 c0 48 1 50 28 50 15 0 38 -7 50 -16z"/>
<path d="M8174 17531 c-88 -54 -111 -166 -47 -241 35 -42 76 -61 133 -62 63 0
90 9 90 31 0 15 -9 16 -62 13 -97 -5 -148 36 -148 119 0 80 59 125 152 116 51
-4 58 -3 58 13 0 23 -19 30 -88 30 -38 0 -67 -6 -88 -19z"/>
<path d="M6950 14500 c0 -109 3 -132 16 -137 19 -7 41 11 25 21 -7 5 -11 51
-11 127 0 99 -3 119 -15 119 -13 0 -15 -21 -15 -130z"/>
<path d="M7690 14617 c-16 -8 -28 -26 -34 -50 -5 -20 -15 -37 -23 -37 -7 0
-13 -7 -13 -15 0 -8 7 -15 15 -15 12 0 15 -14 15 -70 0 -63 2 -70 20 -70 18 0
20 7 20 70 0 63 2 70 20 70 11 0 20 7 20 15 0 8 -9 15 -21 15 -17 0 -20 5 -17
33 2 27 8 33 31 35 15 2 27 9 27 18 0 17 -27 18 -60 1z"/>
<path d="M7780 14500 c0 -109 3 -132 16 -137 19 -7 41 11 25 21 -7 5 -11 51
-11 127 0 99 -3 119 -15 119 -13 0 -15 -21 -15 -130z"/>
<path d="M4805 14568 c-7 -18 -30 -71 -49 -116 -41 -97 -40 -92 -21 -92 8 0
21 14 30 30 14 27 20 30 63 30 44 0 49 -2 59 -30 6 -17 19 -30 28 -30 20 0 22
-7 -38 137 -23 57 -46 103 -50 103 -4 0 -14 -15 -22 -32z m34 -116 c-43 -7
-48 0 -31 43 l16 39 17 -39 c18 -39 18 -40 -2 -43z"/>
<path d="M5610 14586 c0 -8 4 -17 9 -20 11 -7 33 18 24 27 -12 12 -33 7 -33
-7z"/>
<path d="M6126 14523 c-4 -43 -9 -97 -13 -120 -4 -34 -2 -43 10 -43 17 0 27
41 27 106 0 24 3 44 8 44 4 -1 23 -33 42 -72 20 -40 40 -73 46 -75 5 -2 27 32
48 74 21 43 40 74 42 68 1 -5 5 -40 9 -77 5 -52 10 -68 22 -68 14 0 15 12 9
88 -9 110 -16 152 -27 152 -5 0 -30 -42 -55 -92 l-47 -93 -46 93 c-25 50 -51
92 -57 92 -7 0 -14 -29 -18 -77z"/>
<path d="M6426 14591 c-3 -5 0 -14 8 -20 10 -8 16 -8 25 2 6 8 8 17 4 20 -9
10 -31 9 -37 -2z"/>
<path d="M7128 14480 l3 -120 65 0 c50 0 64 3 64 15 0 11 -12 15 -50 15 l-50
0 0 105 c0 93 -2 105 -17 105 -16 0 -18 -11 -15 -120z"/>
<path d="M5183 14573 c-7 -3 -13 -13 -13 -24 0 -12 -7 -19 -20 -19 -11 0 -20
-7 -20 -15 0 -8 9 -15 20 -15 18 0 20 -7 20 -58 0 -32 5 -63 12 -70 17 -17 58
-15 58 3 0 8 -9 15 -20 15 -18 0 -20 7 -20 54 0 52 1 55 27 58 38 4 42 28 4
28 -24 0 -30 5 -33 23 -2 14 -8 22 -15 20z"/>
<path d="M6543 14573 c-7 -3 -13 -13 -13 -24 0 -12 -7 -19 -20 -19 -11 0 -20
-7 -20 -15 0 -8 9 -15 20 -15 18 0 20 -7 20 -58 0 -32 5 -63 12 -70 17 -17 58
-15 58 3 0 8 -9 15 -20 15 -18 0 -20 7 -20 54 0 52 1 55 27 58 38 4 42 28 4
28 -24 0 -30 5 -33 23 -2 14 -8 22 -15 20z"/>
<path d="M8083 14573 c-7 -3 -13 -13 -13 -24 0 -12 -7 -19 -20 -19 -11 0 -20
-7 -20 -15 0 -8 9 -15 20 -15 18 0 20 -7 20 -58 0 -32 5 -63 12 -70 17 -17 58
-15 58 3 0 8 -9 15 -20 15 -18 0 -20 7 -20 54 0 52 1 55 27 58 38 4 42 28 4
28 -24 0 -30 5 -33 23 -2 14 -8 22 -15 20z"/>
<path d="M4960 14443 c0 -67 3 -83 15 -83 12 0 15 13 15 55 0 65 26 103 60 85
24 -13 32 -40 28 -93 -2 -33 1 -42 15 -45 15 -3 17 6 17 66 0 88 -13 102 -93
100 l-57 -2 0 -83z"/>
<path d="M5295 14498 c-21 -25 -25 -38 -21 -62 9 -48 50 -78 100 -74 27 2 42
8 44 18 2 12 -6 15 -38 12 -41 -4 -70 10 -70 34 0 9 18 14 58 16 50 3 57 6 60
25 5 32 -31 63 -72 63 -26 0 -41 -8 -61 -32z m95 -22 c0 -9 -12 -14 -35 -14
-43 0 -52 12 -24 32 24 17 59 6 59 -18z"/>
<path d="M5480 14445 c0 -69 3 -85 15 -85 11 0 15 13 15 54 0 56 16 86 46 86
8 0 14 7 14 15 0 18 -31 20 -48 3 -9 -9 -12 -9 -12 0 0 7 -7 12 -15 12 -12 0
-15 -16 -15 -85z"/>
<path d="M5610 14445 c0 -69 3 -85 15 -85 12 0 15 16 15 85 0 69 -3 85 -15 85
-12 0 -15 -16 -15 -85z"/>
<path d="M5715 14513 c-27 -27 -37 -63 -25 -96 14 -41 38 -56 87 -57 33 0 46
5 62 26 49 62 10 144 -68 144 -23 0 -46 -7 -56 -17z m97 -30 c36 -33 10 -93
-42 -93 -32 0 -50 17 -50 48 0 57 51 83 92 45z"/>
<path d="M5900 14445 c0 -69 3 -85 15 -85 11 0 15 12 15 51 0 60 13 89 40 89
11 0 20 7 20 15 0 18 -31 20 -48 3 -9 -9 -12 -9 -12 0 0 7 -7 12 -15 12 -12 0
-15 -16 -15 -85z"/>
<path d="M6430 14445 c0 -69 3 -85 15 -85 12 0 15 16 15 85 0 69 -3 85 -15 85
-12 0 -15 -16 -15 -85z"/>
<path d="M6650 14528 c-1 -2 -2 -40 -3 -86 -2 -72 0 -82 16 -82 14 0 17 9 17
51 0 60 13 89 40 89 11 0 20 7 20 15 0 18 -31 20 -48 3 -9 -9 -12 -9 -12 0 0
10 -29 19 -30 10z"/>
<path d="M6775 14520 c-7 -12 7 -18 50 -22 42 -4 40 -32 -3 -36 -21 -2 -38
-12 -48 -28 -15 -22 -15 -26 0 -49 15 -23 22 -25 74 -22 44 2 56 6 53 18 -2 7
-7 39 -10 69 -4 30 -10 61 -14 68 -10 14 -93 16 -102 2z m81 -92 c8 -13 -33
-51 -47 -42 -13 8 -11 42 4 47 21 9 36 7 43 -5z"/>
<path d="M7305 14499 c-21 -26 -26 -39 -21 -63 9 -48 50 -78 100 -74 27 2 42
8 44 18 2 13 -6 15 -39 12 -33 -3 -46 0 -56 14 -21 29 -16 34 42 34 64 0 78
16 54 59 -11 20 -24 27 -55 29 -36 3 -45 -1 -69 -29z m95 -14 c7 -8 11 -15 9
-16 -19 -5 -89 -5 -89 0 0 29 59 41 80 16z"/>
<path d="M7475 14520 c-8 -12 20 -24 39 -17 19 7 51 -17 42 -31 -4 -7 -20 -12
-36 -12 -20 0 -35 -8 -46 -25 -15 -23 -15 -27 0 -50 15 -23 22 -25 74 -22 44
2 56 6 53 18 -3 7 -7 39 -9 69 -2 35 -9 60 -20 68 -19 14 -88 16 -97 2z m81
-92 c8 -13 -33 -51 -47 -42 -16 9 -10 42 9 47 29 8 31 7 38 -5z"/>
<path d="M7890 14505 c-57 -61 -12 -149 74 -143 27 2 42 8 44 18 2 12 -6 15
-38 12 -42 -4 -70 10 -70 34 0 10 15 14 55 14 64 0 78 16 54 59 -22 38 -85 42
-119 6z m95 -31 c0 -11 -51 -18 -73 -9 -15 6 -14 9 7 26 21 17 26 18 45 6 12
-8 21 -18 21 -23z"/>
<path d="M4150 14303 c-36 -20 -85 -47 -109 -61 l-45 -25 115 -58 c63 -32 117
-58 122 -58 4 -1 7 53 7 119 0 90 -3 120 -12 120 -7 -1 -42 -17 -78 -37z"/>
<path d="M4250 14200 c0 -5 9 -10 20 -10 11 0 20 5 20 10 0 6 -9 10 -20 10
-11 0 -20 -4 -20 -10z"/>
<path d="M4380 14200 c0 -6 15 -9 35 -7 51 6 56 17 7 17 -23 0 -42 -5 -42 -10z"/>
<path d="M4543 14204 c10 -11 77 -13 77 -3 0 5 -19 9 -42 9 -23 0 -38 -3 -35
-6z"/>
<path d="M4714 14202 c7 -12 76 -14 76 -2 0 5 -18 10 -41 10 -22 0 -38 -4 -35
-8z"/>
<path d="M4885 14200 c3 -5 19 -10 35 -10 16 0 32 5 35 10 4 6 -10 10 -35 10
-25 0 -39 -4 -35 -10z"/>
<path d="M5055 14200 c3 -5 22 -10 41 -10 19 0 34 5 34 10 0 6 -18 10 -41 10
-24 0 -38 -4 -34 -10z"/>
<path d="M5220 14200 c0 -5 15 -10 34 -10 19 0 38 5 41 10 4 6 -10 10 -34 10
-23 0 -41 -4 -41 -10z"/>
<path d="M5390 14200 c0 -5 15 -10 34 -10 19 0 38 5 41 10 4 6 -10 10 -34 10
-23 0 -41 -4 -41 -10z"/>
<path d="M5560 14200 c0 -5 16 -10 35 -10 19 0 35 5 35 10 0 6 -16 10 -35 10
-19 0 -35 -4 -35 -10z"/>
<path d="M5720 14200 c0 -5 18 -10 40 -10 22 0 40 5 40 10 0 6 -18 10 -40 10
-22 0 -40 -4 -40 -10z"/>
<path d="M5902 14200 c17 -11 53 -9 64 3 4 4 -13 7 -37 7 -33 -1 -40 -3 -27
-10z"/>
<path d="M6060 14200 c0 -5 18 -10 40 -10 22 0 40 5 40 10 0 6 -18 10 -40 10
-22 0 -40 -4 -40 -10z"/>
<path d="M6235 14200 c3 -5 19 -8 36 -6 46 5 47 16 0 16 -25 0 -40 -4 -36 -10z"/>
<path d="M6400 14200 c0 -5 16 -10 35 -10 19 0 35 5 35 10 0 6 -16 10 -35 10
-19 0 -35 -4 -35 -10z"/>
<path d="M6565 14200 c3 -5 22 -10 41 -10 19 0 34 5 34 10 0 6 -18 10 -41 10
-24 0 -38 -4 -34 -10z"/>
<path d="M6735 14200 c3 -5 22 -10 41 -10 19 0 34 5 34 10 0 6 -18 10 -41 10
-24 0 -38 -4 -34 -10z"/>
<path d="M6900 14200 c0 -5 15 -10 34 -10 19 0 38 5 41 10 4 6 -10 10 -34 10
-23 0 -41 -4 -41 -10z"/>
<path d="M7070 14200 c0 -5 18 -9 40 -8 22 1 40 5 40 10 0 4 -18 8 -40 8 -22
0 -40 -4 -40 -10z"/>
<path d="M7240 14200 c0 -5 15 -10 34 -10 19 0 38 5 41 10 4 6 -10 10 -34 10
-23 0 -41 -4 -41 -10z"/>
<path d="M7410 14200 c0 -5 16 -10 35 -10 19 0 35 5 35 10 0 6 -16 10 -35 10
-19 0 -35 -4 -35 -10z"/>
<path d="M7574 14202 c7 -12 64 -14 71 -2 4 6 -10 10 -35 10 -23 0 -39 -4 -36
-8z"/>
<path d="M7740 14200 c0 -5 18 -10 40 -10 22 0 40 5 40 10 0 6 -18 10 -40 10
-22 0 -40 -4 -40 -10z"/>
<path d="M7914 14203 c10 -11 65 -12 71 -2 4 5 -13 9 -36 9 -23 0 -39 -3 -35
-7z"/>
<path d="M8085 14200 c3 -5 22 -10 41 -10 19 0 34 5 34 10 0 6 -18 10 -41 10
-24 0 -38 -4 -34 -10z"/>
<path d="M8250 14200 c0 -5 15 -10 34 -10 19 0 38 5 41 10 4 6 -10 10 -34 10
-23 0 -41 -4 -41 -10z"/>
<path d="M8420 14200 c0 -5 16 -10 35 -10 19 0 35 5 35 10 0 6 -16 10 -35 10
-19 0 -35 -4 -35 -10z"/>
<path d="M8580 14200 c0 -5 9 -10 20 -10 11 0 20 5 20 10 0 6 -9 10 -20 10
-11 0 -20 -4 -20 -10z"/>
<path d="M9650 8765 c0 -168 1 -175 20 -175 17 0 20 7 20 50 0 28 3 50 6 50 3
0 26 -23 52 -51 37 -40 53 -50 72 -48 24 4 24 5 -22 55 -27 28 -48 54 -48 57
0 3 21 29 46 59 41 48 43 53 24 56 -16 3 -36 -13 -75 -55 l-54 -58 -1 118 c0
110 -1 117 -20 117 -19 0 -20 -7 -20 -175z"/>
<path d="M3410 8745 c0 -168 1 -175 20 -175 17 0 20 7 20 50 0 28 3 50 6 50 3
0 26 -22 51 -50 30 -34 53 -50 69 -50 13 0 24 3 24 7 0 4 -21 28 -46 54 -52
52 -51 53 9 118 43 46 44 51 16 51 -12 0 -42 -23 -75 -57 l-54 -58 0 118 c0
110 -1 117 -20 117 -19 0 -20 -7 -20 -175z"/>
<path d="M6790 8751 l0 -161 25 0 c24 0 25 2 25 70 l0 70 36 0 c65 0 103 33
104 91 0 57 -35 82 -120 87 l-70 4 0 -161z m130 99 c11 -11 20 -24 20 -30 0
-21 -41 -50 -70 -50 -29 0 -30 1 -30 50 0 49 1 50 30 50 17 0 39 -9 50 -20z"/>
<path d="M8071 8896 c-9 -10 -8 -16 4 -26 19 -15 47 3 38 26 -7 18 -27 18 -42
0z"/>
<path d="M8710 8891 c0 -17 8 -20 53 -23 l52 -3 3 -137 c2 -130 4 -138 22
-138 19 0 20 7 20 140 l0 140 50 0 c43 0 50 3 50 20 0 19 -7 20 -125 20 -117
0 -125 -1 -125 -19z"/>
<path d="M15892 8858 c-11 -29 -41 -101 -66 -160 -45 -107 -45 -108 -22 -108
18 0 28 9 40 40 l16 40 63 0 64 0 18 -40 c13 -30 24 -40 41 -40 l23 0 -35 83
c-20 45 -50 117 -67 160 -18 42 -37 77 -43 77 -6 0 -20 -24 -32 -52z m78 -144
c0 -2 -21 -4 -46 -4 -33 0 -45 4 -41 13 3 6 13 32 23 56 l17 44 24 -53 c13
-29 23 -54 23 -56z"/>
<path d="M16957 8896 c-9 -22 19 -42 37 -26 19 15 10 40 -14 40 -10 0 -20 -6
-23 -14z"/>
<path d="M763 8837 c-11 -28 -42 -100 -66 -159 -45 -107 -45 -108 -22 -108 17
0 27 9 39 40 l16 40 63 0 64 0 18 -40 c13 -30 24 -40 41 -40 22 0 22 2 -23
108 -24 59 -55 131 -66 159 -12 29 -26 53 -32 53 -5 0 -20 -24 -32 -53z m77
-143 c0 -2 -20 -4 -45 -4 -25 0 -45 2 -45 4 0 2 6 19 14 37 7 19 16 43 20 54
7 17 12 11 32 -34 13 -29 24 -55 24 -57z"/>
<path d="M1837 8876 c-9 -22 19 -42 37 -26 19 15 10 40 -14 40 -10 0 -20 -6
-23 -14z"/>
<path d="M2480 8871 c0 -17 8 -20 53 -23 l52 -3 3 -137 c2 -130 4 -138 22
-138 19 0 20 7 20 140 l0 140 50 0 c43 0 50 3 50 20 0 19 -7 20 -125 20 -117
0 -125 -1 -125 -19z"/>
<path d="M7502 8868 c-7 -7 -12 -20 -12 -30 0 -11 -7 -18 -20 -18 -13 0 -20
-7 -20 -20 0 -13 7 -20 20 -20 18 0 20 -7 20 -75 0 -62 3 -78 21 -96 25 -25
72 -23 77 5 3 11 0 16 -7 12 -6 -4 -20 -2 -31 4 -17 9 -20 21 -20 80 l0 70 40
0 c33 0 40 3 40 20 0 17 -7 20 -40 20 -38 0 -40 2 -40 30 0 32 -9 37 -28 18z"/>
<path d="M16398 8869 c-10 -6 -18 -19 -18 -29 0 -13 -7 -20 -20 -20 -13 0 -20
-7 -20 -20 0 -13 7 -20 20 -20 18 0 20 -7 20 -75 0 -62 3 -78 21 -96 24 -24
72 -23 77 3 2 12 -1 16 -11 12 -29 -11 -47 24 -47 92 l0 64 40 0 c33 0 40 3
40 20 0 17 -7 20 -39 20 -37 0 -40 2 -43 29 -3 25 -6 28 -20 20z"/>
<path d="M1262 8848 c-7 -7 -12 -20 -12 -30 0 -11 -7 -18 -20 -18 -13 0 -20
-7 -20 -20 0 -13 7 -20 20 -20 18 0 20 -7 20 -75 0 -62 3 -78 21 -96 25 -25
72 -23 77 5 3 11 0 16 -7 12 -6 -4 -20 -2 -31 4 -17 9 -20 21 -20 80 l0 70 40
0 c33 0 40 3 40 20 0 17 -7 20 -40 20 -38 0 -40 2 -40 30 0 32 -9 37 -28 18z"/>
<path d="M7052 8800 c-36 -22 -52 -54 -52 -107 0 -27 8 -43 34 -69 30 -30 41
-34 84 -34 59 0 95 24 112 75 16 49 4 89 -36 125 -42 36 -93 40 -142 10z m118
-40 c37 -37 22 -112 -27 -131 -56 -21 -113 34 -97 95 13 53 85 75 124 36z"/>
<path d="M7291 8794 c-12 -15 -21 -31 -21 -36 0 -23 24 -50 61 -68 31 -16 40
-26 37 -43 -2 -17 -9 -22 -33 -21 -16 0 -38 4 -47 8 -14 6 -18 3 -18 -12 0
-24 18 -32 71 -32 100 0 104 102 7 139 -19 7 -28 18 -28 32 0 19 5 21 40 17
32 -3 40 0 40 13 0 38 -80 40 -109 3z"/>
<path d="M7693 8810 c-32 -13 -63 -68 -63 -113 0 -31 7 -46 34 -73 29 -29 41
-34 79 -34 58 0 77 8 77 30 0 16 -4 17 -35 9 -41 -12 -79 3 -103 39 l-14 22
69 0 c81 0 109 18 97 64 -13 54 -80 80 -141 56z m85 -42 c26 -26 13 -38 -43
-38 -59 0 -64 4 -38 32 18 20 63 24 81 6z"/>
<path d="M7897 8813 c-4 -3 -7 -55 -7 -115 l0 -108 25 0 c24 0 25 2 25 75 0
63 3 77 22 95 12 11 30 20 40 20 22 0 24 28 3 36 -8 4 -26 -1 -40 -10 -23 -15
-26 -15 -31 -1 -6 16 -26 20 -37 8z"/>
<path d="M8070 8705 c0 -108 1 -115 20 -115 19 0 20 7 20 115 0 108 -1 115
-20 115 -19 0 -20 -7 -20 -115z"/>
<path d="M8222 8800 c-36 -22 -52 -54 -52 -107 0 -27 8 -43 34 -69 30 -30 40
-34 86 -34 43 0 56 5 80 28 101 102 -25 257 -148 182z m115 -42 c44 -42 22
-119 -39 -134 -22 -5 -34 0 -59 25 -26 27 -30 37 -25 64 12 63 78 87 123 45z"/>
<path d="M8467 8813 c-4 -3 -7 -55 -7 -115 l0 -108 25 0 c24 0 25 2 25 73 0
64 3 76 23 95 13 12 31 22 40 22 18 0 23 25 7 35 -6 4 -24 0 -41 -9 -26 -13
-31 -13 -36 0 -5 15 -25 19 -36 7z"/>
<path d="M8977 8813 c-4 -3 -7 -55 -7 -115 l0 -108 25 0 c24 0 25 2 25 75 0
63 3 77 22 95 12 11 30 20 40 20 22 0 24 28 3 36 -8 4 -26 -1 -40 -10 -23 -15
-26 -15 -31 -1 -6 16 -26 20 -37 8z"/>
<path d="M9140 8727 c0 -85 2 -96 23 -115 25 -24 84 -30 118 -12 13 7 19 7 19
0 0 -5 7 -10 15 -10 12 0 15 19 15 115 0 108 -1 115 -20 115 -17 0 -19 -8 -22
-87 -3 -83 -4 -88 -29 -102 -24 -13 -29 -13 -53 2 -25 17 -26 22 -26 102 0 78
-2 85 -20 85 -19 0 -20 -7 -20 -93z"/>
<path d="M9400 8705 c0 -108 1 -115 20 -115 18 0 20 7 20 76 0 93 10 114 53
114 50 0 57 -14 57 -107 0 -76 2 -83 20 -83 19 0 20 7 20 93 0 50 -4 97 -8
103 -20 31 -86 44 -122 24 -13 -7 -21 -7 -25 0 -3 5 -13 10 -21 10 -11 0 -14
-22 -14 -115z"/>
<path d="M16110 8705 c0 -108 1 -115 20 -115 18 0 20 7 20 76 0 93 10 114 53
114 50 0 57 -14 57 -107 0 -76 2 -83 20 -83 19 0 20 7 20 94 0 90 -1 96 -26
115 -29 23 -74 27 -104 11 -13 -7 -21 -7 -25 0 -3 5 -13 10 -21 10 -11 0 -14
-22 -14 -115z"/>
<path d="M16595 8811 c-37 -15 -58 -49 -63 -101 -4 -46 -2 -52 31 -85 34 -34
39 -36 94 -33 51 3 58 6 61 25 3 20 1 21 -31 11 -40 -12 -81 3 -105 40 l-14
22 69 0 c81 0 109 18 97 64 -13 53 -81 80 -139 57z m83 -43 c26 -26 13 -38
-43 -38 -59 0 -64 4 -38 32 18 20 63 24 81 6z"/>
<path d="M16787 8813 c-4 -3 -7 -55 -7 -115 l0 -108 25 0 c24 0 25 2 25 73 0
64 3 76 23 95 13 12 31 22 40 22 18 0 23 25 7 35 -6 4 -24 0 -41 -9 -26 -13
-31 -13 -36 0 -5 15 -25 19 -36 7z"/>
<path d="M16960 8705 c0 -108 1 -115 20 -115 19 0 20 7 20 115 0 108 -1 115
-20 115 -19 0 -20 -7 -20 -115z"/>
<path d="M17118 8804 c-35 -18 -58 -62 -58 -110 0 -28 8 -44 34 -70 30 -30 41
-34 84 -34 59 0 95 24 112 75 16 49 4 89 -36 125 -39 34 -90 40 -136 14z m109
-46 c40 -37 26 -110 -24 -129 -36 -13 -78 5 -93 40 -32 79 56 146 117 89z"/>
<path d="M17357 8813 c-4 -3 -7 -55 -7 -115 l0 -108 25 0 c24 0 25 2 25 73 0
79 20 117 60 117 23 0 27 28 5 36 -8 4 -26 -1 -40 -10 -23 -15 -26 -15 -31 -1
-6 16 -26 20 -37 8z"/>
<path d="M980 8685 c0 -108 1 -115 20 -115 18 0 20 7 20 76 0 93 10 114 53
114 50 0 57 -14 57 -107 0 -76 2 -83 20 -83 19 0 20 7 20 94 0 90 -1 96 -26
115 -29 23 -74 27 -104 11 -13 -7 -21 -7 -25 0 -3 5 -13 10 -21 10 -11 0 -14
-22 -14 -115z"/>
<path d="M1439 8772 c-26 -23 -33 -38 -37 -80 -4 -49 -2 -54 31 -87 34 -34 39
-36 94 -33 51 3 58 6 61 25 3 20 1 21 -31 11 -40 -12 -81 3 -105 40 l-14 22
69 0 c81 0 109 18 97 64 -16 67 -109 88 -165 38z m109 -24 c26 -26 13 -38 -43
-38 -59 0 -64 4 -38 32 18 20 63 24 81 6z"/>
<path d="M1657 8793 c-4 -3 -7 -55 -7 -115 l0 -108 25 0 c24 0 25 2 25 73 0
64 3 76 23 95 13 12 31 22 40 22 21 0 22 29 2 36 -8 4 -26 -1 -40 -10 -23 -15
-26 -15 -31 -1 -6 16 -26 20 -37 8z"/>
<path d="M1840 8685 c0 -108 1 -115 20 -115 19 0 20 7 20 115 0 108 -1 115
-20 115 -19 0 -20 -7 -20 -115z"/>
<path d="M1992 8780 c-36 -22 -52 -54 -52 -107 0 -27 8 -43 34 -69 30 -30 41
-34 84 -34 59 0 95 24 112 75 16 49 4 89 -36 125 -42 36 -93 40 -142 10z m118
-42 c25 -27 26 -78 2 -109 -44 -54 -141 -4 -128 65 12 62 85 88 126 44z"/>
<path d="M2227 8793 c-4 -3 -7 -55 -7 -115 l0 -108 25 0 c24 0 25 2 25 75 0
63 3 77 22 95 12 11 30 20 40 20 11 0 18 7 18 20 0 24 -26 26 -58 4 -20 -14
-23 -14 -28 0 -6 16 -26 21 -37 9z"/>
<path d="M2747 8793 c-4 -3 -7 -55 -7 -115 l0 -108 25 0 c24 0 25 2 25 73 0
64 3 76 23 95 13 12 31 22 40 22 21 0 22 29 2 36 -8 4 -26 -1 -40 -10 -23 -15
-26 -15 -31 -1 -6 16 -26 20 -37 8z"/>
<path d="M2910 8707 c0 -85 2 -96 23 -115 25 -24 84 -30 118 -12 13 7 19 7 19
0 0 -5 7 -10 15 -10 12 0 15 19 15 115 0 108 -1 115 -20 115 -18 0 -20 -7 -20
-84 0 -76 -2 -86 -22 -100 -30 -21 -44 -20 -68 4 -17 17 -20 33 -20 100 0 73
-2 80 -20 80 -19 0 -20 -7 -20 -93z"/>
<path d="M3160 8685 c0 -108 1 -115 20 -115 18 0 20 7 20 76 0 93 10 114 53
114 50 0 57 -14 57 -107 0 -76 2 -83 20 -83 19 0 20 7 20 94 0 90 -1 96 -26
115 -29 23 -74 27 -104 11 -13 -7 -21 -7 -25 0 -3 5 -13 10 -21 10 -11 0 -14
-22 -14 -115z"/>
<path d="M15340 6111 l0 -161 25 0 c24 0 25 2 25 70 0 67 1 70 23 70 18 0 36
-17 73 -70 41 -58 54 -70 78 -70 l28 0 -26 35 c-14 19 -38 51 -52 70 l-26 35
26 31 c33 38 33 79 2 116 -21 25 -31 28 -100 31 l-76 4 0 -161z m128 103 c44
-31 17 -84 -44 -84 l-34 0 0 50 c0 48 1 50 28 50 15 0 38 -7 50 -16z"/>
<path d="M15674 6251 c-88 -54 -111 -166 -47 -241 35 -42 75 -61 131 -62 61
-1 92 9 92 31 0 15 -9 16 -62 13 -97 -5 -148 36 -148 119 0 80 59 125 152 116
51 -4 58 -3 58 13 0 23 -19 30 -88 30 -38 0 -67 -6 -88 -19z"/>
<path d="M15970 6248 c-57 -39 -75 -72 -75 -138 0 -66 18 -99 75 -138 29 -19
45 -22 105 -20 65 3 70 5 73 26 3 20 0 23 -17 17 -67 -21 -153 6 -178 56 -17
33 -16 84 2 119 23 45 68 63 137 57 51 -4 58 -3 58 13 0 23 -19 30 -89 30 -44
0 -66 -6 -91 -22z"/>
<path d="M16930 6110 l0 -160 95 0 c88 0 95 1 95 20 0 18 -7 20 -70 20 l-70 0
0 140 0 140 -25 0 -25 0 0 -160z"/>
<path d="M17210 6248 c-47 -32 -71 -68 -77 -116 -7 -53 1 -83 33 -122 36 -42
77 -61 134 -62 63 0 90 9 90 31 0 15 -9 16 -62 13 -97 -5 -148 36 -148 119 0
80 59 125 152 116 51 -4 58 -3 58 13 0 23 -19 30 -89 30 -44 0 -66 -6 -91 -22z"/>
<path d="M17500 6248 c-57 -39 -75 -72 -75 -138 0 -98 64 -160 166 -160 69 0
89 7 89 29 0 14 -9 16 -62 13 -97 -5 -148 36 -148 119 0 80 59 125 152 116 51
-4 58 -3 58 13 0 23 -19 30 -89 30 -44 0 -66 -6 -91 -22z"/>
<path d="M18805 5570 c3 -5 10 -10 16 -10 5 0 9 5 9 10 0 6 -7 10 -16 10 -8 0
-12 -4 -9 -10z"/>
<path d="M19510 5560 c0 -5 11 -10 25 -10 14 0 25 5 25 10 0 6 -11 10 -25 10
-14 0 -25 -4 -25 -10z"/>
<path d="M15810 4630 l0 -160 25 0 25 0 0 120 0 120 110 -122 c61 -68 115
-124 120 -126 6 -2 10 62 10 162 l0 166 -25 0 c-24 0 -24 0 -27 -111 l-3 -110
-99 110 c-58 66 -107 111 -118 111 -17 0 -18 -11 -18 -160z"/>
<path d="M16930 4768 c-57 -39 -75 -72 -75 -138 0 -98 64 -160 166 -160 71 0
89 7 89 32 0 15 -5 18 -20 13 -96 -31 -190 26 -190 115 0 81 58 126 152 117
51 -4 58 -3 58 13 0 23 -19 30 -89 30 -44 0 -66 -6 -91 -22z"/>
<path d="M17220 4768 c-57 -39 -75 -72 -75 -138 0 -98 64 -160 166 -160 71 0
89 7 89 32 0 15 -5 18 -20 13 -66 -21 -152 6 -177 56 -17 33 -16 84 2 119 23
45 68 63 137 57 51 -4 58 -3 58 13 0 23 -19 30 -89 30 -44 0 -66 -6 -91 -22z"/>
<path d="M16214 4690 c-38 -15 -64 -59 -64 -107 0 -38 5 -50 34 -79 30 -30 40
-34 86 -34 43 0 56 5 80 28 77 77 25 203 -82 201 -18 0 -43 -4 -54 -9z m103
-52 c28 -26 30 -77 5 -109 -44 -54 -141 -4 -128 65 12 62 79 86 123 44z"/>
<path d="M16440 4585 c0 -108 1 -115 20 -115 18 0 20 7 20 76 0 93 10 114 53
114 50 0 57 -14 57 -107 0 -76 2 -83 20 -83 19 0 20 7 20 95 0 84 -2 96 -22
115 -24 22 -77 27 -109 10 -13 -7 -19 -7 -19 0 0 5 -9 10 -20 10 -19 0 -20 -7
-20 -115z"/>
<path d="M16680 4610 c0 -18 7 -20 60 -20 53 0 60 2 60 20 0 18 -7 20 -60 20
-53 0 -60 -2 -60 -20z"/>
<path d="M21510 1960 c0 -109 3 -132 16 -137 19 -7 41 11 25 21 -7 5 -11 51
-11 127 0 99 -3 119 -15 119 -13 0 -15 -21 -15 -130z"/>
<path d="M22253 2075 c-12 -9 -25 -31 -29 -50 -3 -20 -12 -35 -20 -35 -8 0
-14 -7 -14 -15 0 -8 7 -15 15 -15 12 0 15 -14 15 -70 0 -63 2 -70 20 -70 18 0
20 7 20 70 0 63 2 70 20 70 11 0 20 7 20 15 0 8 -9 15 -21 15 -17 0 -20 5 -17
32 2 28 8 34 32 38 17 3 29 10 28 15 -2 17 -46 17 -69 0z"/>
<path d="M22340 1960 c0 -109 3 -132 16 -137 19 -7 41 11 25 21 -7 5 -11 51
-11 127 0 99 -3 119 -15 119 -13 0 -15 -21 -15 -130z"/>
<path d="M19375 2028 c-7 -18 -30 -71 -49 -116 -20 -46 -36 -86 -36 -88 0 -2
8 -4 18 -4 10 0 22 12 29 30 10 28 15 30 60 30 45 0 49 -2 60 -30 6 -17 19
-30 28 -30 20 0 22 -8 -38 137 -23 57 -46 103 -50 103 -4 0 -14 -15 -22 -32z
m34 -116 c-43 -7 -48 0 -31 43 l16 39 17 -39 c18 -39 18 -40 -2 -43z"/>
<path d="M20170 2046 c0 -8 4 -17 9 -20 11 -7 33 18 24 27 -12 12 -33 7 -33
-7z"/>
<path d="M20686 1983 c-4 -43 -9 -97 -13 -120 -4 -35 -2 -43 10 -43 17 0 26
30 29 103 1 26 4 47 7 46 3 0 22 -32 42 -72 20 -39 41 -73 46 -74 5 -2 26 32
47 74 21 43 40 74 42 68 1 -5 5 -40 9 -77 5 -51 10 -68 22 -68 13 0 14 13 9
93 -8 112 -15 147 -27 147 -5 0 -30 -42 -55 -92 l-47 -93 -46 93 c-25 50 -51
92 -57 92 -7 0 -14 -29 -18 -77z"/>
<path d="M20990 2046 c0 -8 4 -17 9 -20 11 -7 33 18 24 27 -12 12 -33 7 -33
-7z"/>
<path d="M21699 1965 c-1 -52 -1 -102 -1 -110 0 -8 0 -19 1 -25 0 -5 30 -10
65 -10 48 0 65 4 70 15 4 12 -5 15 -49 15 l-55 0 0 105 c0 87 -3 105 -15 105
-12 0 -15 -18 -16 -95z"/>
<path d="M19753 2033 c-7 -3 -13 -13 -13 -24 0 -12 -7 -19 -20 -19 -11 0 -20
-7 -20 -15 0 -8 9 -15 20 -15 18 0 20 -7 20 -58 0 -32 5 -63 12 -70 17 -17 58
-15 58 3 0 8 -9 15 -20 15 -18 0 -20 7 -20 54 0 52 1 55 27 58 38 4 42 28 4
28 -24 0 -30 5 -33 23 -2 14 -8 22 -15 20z"/>
<path d="M21103 2033 c-7 -3 -13 -13 -13 -24 0 -12 -7 -19 -20 -19 -11 0 -20
-7 -20 -15 0 -8 9 -15 20 -15 18 0 20 -7 20 -58 0 -32 5 -63 12 -70 17 -17 58
-15 58 3 0 8 -9 15 -20 15 -18 0 -20 7 -20 54 0 52 1 55 27 58 38 4 42 28 4
28 -24 0 -30 5 -33 23 -2 14 -8 22 -15 20z"/>
<path d="M22653 2033 c-7 -3 -13 -13 -13 -24 0 -12 -7 -19 -20 -19 -11 0 -20
-7 -20 -15 0 -8 9 -15 20 -15 18 0 20 -7 20 -58 0 -63 11 -82 47 -82 28 0 31
26 3 33 -17 4 -20 14 -20 55 0 47 2 51 27 54 38 4 42 28 4 28 -24 0 -30 5 -33
23 -2 14 -8 22 -15 20z"/>
<path d="M19530 1903 c0 -67 3 -83 15 -83 11 0 15 12 15 51 0 81 32 117 70 79
15 -15 20 -34 20 -75 0 -42 3 -55 15 -55 21 0 21 117 0 148 -14 19 -24 21 -75
20 l-60 -2 0 -83z"/>
<path d="M19870 1965 c-57 -61 -11 -149 74 -143 27 2 42 8 44 18 2 12 -6 15
-38 12 -41 -4 -70 10 -70 34 0 9 18 14 58 16 50 3 57 6 60 25 8 58 -84 85
-128 38z m78 -7 c24 -24 14 -39 -24 -36 -44 3 -51 12 -22 32 27 19 31 19 46 4z"/>
<path d="M20039 1968 c-5 -142 -4 -148 14 -148 14 0 17 9 17 54 0 56 16 86 46
86 8 0 14 7 14 15 0 18 -31 20 -48 3 -9 -9 -12 -9 -12 0 0 23 -30 12 -31 -10z"/>
<path d="M20170 1905 c0 -69 3 -85 15 -85 12 0 15 16 15 85 0 69 -3 85 -15 85
-12 0 -15 -16 -15 -85z"/>
<path d="M20273 1968 c-28 -31 -35 -60 -23 -93 15 -39 38 -54 83 -55 51 0 87
35 87 85 0 50 -36 85 -88 85 -27 0 -45 -7 -59 -22z m99 -25 c37 -33 10 -93
-43 -93 -31 0 -49 23 -49 64 0 43 57 61 92 29z"/>
<path d="M20468 1963 c-7 -61 3 -143 18 -143 10 0 14 14 14 54 0 56 16 86 46
86 8 0 14 7 14 15 0 18 -31 20 -48 3 -9 -9 -12 -9 -12 0 0 25 -29 11 -32 -15z"/>
<path d="M20990 1905 c0 -69 3 -85 15 -85 12 0 15 16 15 85 0 69 -3 85 -15 85
-12 0 -15 -16 -15 -85z"/>
<path d="M21220 1905 c0 -69 3 -85 15 -85 11 0 15 12 15 51 0 60 13 89 40 89
11 0 20 7 20 15 0 18 -31 20 -48 3 -9 -9 -12 -9 -12 0 0 7 -7 12 -15 12 -12 0
-15 -16 -15 -85z"/>
<path d="M21335 1980 c-8 -12 20 -24 39 -17 19 7 51 -17 42 -31 -4 -7 -20 -12
-36 -12 -20 0 -35 -8 -46 -25 -15 -23 -15 -27 0 -50 14 -21 23 -24 72 -23 54
2 75 10 54 23 -5 3 -10 30 -10 60 0 35 -5 59 -16 69 -17 18 -89 22 -99 6z m85
-94 c0 -17 -39 -48 -52 -40 -12 8 -10 42 5 47 24 10 47 7 47 -7z"/>
<path d="M21870 1965 c-57 -61 -11 -149 74 -143 27 2 42 8 44 18 2 13 -6 15
-39 12 -33 -3 -46 0 -56 14 -21 29 -16 33 45 36 50 3 57 6 60 25 8 58 -84 85
-128 38z m78 -7 c24 -24 14 -39 -24 -36 -44 3 -51 12 -22 32 27 19 31 19 46 4z"/>
<path d="M22045 1981 c-8 -14 12 -23 33 -17 22 7 58 -17 48 -32 -4 -7 -20 -12
-36 -12 -35 0 -62 -34 -54 -67 7 -27 23 -32 87 -31 47 1 67 11 47 23 -5 3 -10
32 -10 64 0 31 -5 62 -12 69 -14 14 -94 16 -103 3z m85 -94 c0 -19 -37 -50
-49 -42 -15 9 -14 42 2 48 24 10 47 7 47 -6z"/>
<path d="M22453 1968 c-29 -33 -35 -57 -23 -93 7 -21 21 -37 39 -45 38 -15 95
-9 99 10 2 12 -6 15 -38 12 -41 -4 -70 10 -70 34 0 9 18 14 58 16 50 3 57 6
60 25 8 55 -84 85 -125 41z m92 -34 c0 -5 -19 -10 -42 -10 -48 -2 -54 7 -21
30 19 13 25 14 43 2 11 -7 20 -17 20 -22z"/>
<path d="M18980 1688 l-115 -62 120 -58 c66 -31 123 -57 128 -57 4 -1 7 21 7
48 0 44 2 49 20 44 11 -3 20 -1 20 5 0 6 -10 12 -22 14 -21 3 -23 9 -26 66 -2
34 -6 62 -10 62 -4 -1 -59 -29 -122 -62z"/>
<path d="M19250 1610 c0 -5 16 -10 35 -10 19 0 35 5 35 10 0 6 -16 10 -35 10
-19 0 -35 -4 -35 -10z"/>
<path d="M19410 1610 c0 -5 18 -10 40 -10 22 0 40 5 40 10 0 6 -18 10 -40 10
-22 0 -40 -4 -40 -10z"/>
<path d="M19575 1610 c3 -5 22 -10 41 -10 19 0 34 5 34 10 0 6 -18 10 -41 10
-24 0 -38 -4 -34 -10z"/>
<path d="M19740 1610 c0 -5 16 -10 35 -10 19 0 35 5 35 10 0 6 -16 10 -35 10
-19 0 -35 -4 -35 -10z"/>
<path d="M19900 1610 c0 -5 18 -10 40 -10 22 0 40 5 40 10 0 6 -18 10 -40 10
-22 0 -40 -4 -40 -10z"/>
<path d="M20060 1610 c0 -5 18 -10 40 -10 22 0 40 5 40 10 0 6 -18 10 -40 10
-22 0 -40 -4 -40 -10z"/>
<path d="M20230 1610 c0 -5 16 -10 35 -10 19 0 35 5 35 10 0 6 -16 10 -35 10
-19 0 -35 -4 -35 -10z"/>
<path d="M20390 1610 c0 -5 15 -10 34 -10 19 0 38 5 41 10 4 6 -10 10 -34 10
-23 0 -41 -4 -41 -10z"/>
<path d="M20550 1610 c0 -5 18 -10 40 -10 22 0 40 5 40 10 0 6 -18 10 -40 10
-22 0 -40 -4 -40 -10z"/>
<path d="M20720 1610 c0 -5 16 -10 35 -10 19 0 35 5 35 10 0 6 -16 10 -35 10
-19 0 -35 -4 -35 -10z"/>
<path d="M20880 1610 c0 -5 16 -10 35 -10 19 0 35 5 35 10 0 6 -16 10 -35 10
-19 0 -35 -4 -35 -10z"/>
<path d="M21040 1610 c0 -5 18 -10 40 -10 22 0 40 5 40 10 0 6 -18 10 -40 10
-22 0 -40 -4 -40 -10z"/>
<path d="M21205 1610 c3 -5 22 -10 41 -10 19 0 34 5 34 10 0 6 -18 10 -41 10
-24 0 -38 -4 -34 -10z"/>
<path d="M21370 1610 c0 -5 16 -10 35 -10 19 0 35 5 35 10 0 6 -16 10 -35 10
-19 0 -35 -4 -35 -10z"/>
<path d="M21535 1610 c3 -5 22 -10 41 -10 19 0 34 5 34 10 0 6 -18 10 -41 10
-24 0 -38 -4 -34 -10z"/>
<path d="M21695 1610 c3 -5 22 -10 41 -10 19 0 34 5 34 10 0 6 -18 10 -41 10
-24 0 -38 -4 -34 -10z"/>
<path d="M21860 1610 c0 -5 16 -10 35 -10 19 0 35 5 35 10 0 6 -16 10 -35 10
-19 0 -35 -4 -35 -10z"/>
<path d="M22020 1610 c0 -5 15 -10 34 -10 19 0 38 5 41 10 4 6 -10 10 -34 10
-23 0 -41 -4 -41 -10z"/>
<path d="M22180 1610 c0 -5 18 -10 40 -10 22 0 40 5 40 10 0 6 -18 10 -40 10
-22 0 -40 -4 -40 -10z"/>
<path d="M22345 1610 c3 -5 22 -10 41 -10 19 0 34 5 34 10 0 6 -18 10 -41 10
-24 0 -38 -4 -34 -10z"/>
<path d="M22510 1610 c0 -5 16 -10 35 -10 19 0 35 5 35 10 0 6 -16 10 -35 10
-19 0 -35 -4 -35 -10z"/>
<path d="M22670 1610 c0 -5 15 -10 34 -10 19 0 38 5 41 10 4 6 -10 10 -34 10
-23 0 -41 -4 -41 -10z"/>
<path d="M22830 1610 c0 -5 9 -10 20 -10 11 0 20 5 20 10 0 6 -9 10 -20 10
-11 0 -20 -4 -20 -10z"/>
<path d="M15770 351 l0 -161 25 0 c24 0 25 2 25 70 l0 70 38 0 c35 0 77 20 94
44 4 6 8 27 8 47 0 57 -35 82 -120 87 l-70 4 0 -161z m130 99 c11 -11 20 -24
20 -30 0 -21 -41 -50 -70 -50 -29 0 -30 1 -30 50 0 49 1 50 30 50 17 0 39 -9
50 -20z"/>
<path d="M17047 496 c-9 -22 19 -42 37 -26 19 15 10 40 -14 40 -10 0 -20 -6
-23 -14z"/>
<path d="M16482 468 c-7 -7 -12 -20 -12 -30 0 -11 -7 -18 -20 -18 -13 0 -20
-7 -20 -20 0 -13 7 -20 20 -20 18 0 20 -7 20 -75 0 -62 3 -78 21 -96 25 -25
72 -23 77 5 3 11 0 16 -7 12 -6 -4 -20 -2 -31 4 -17 9 -20 21 -20 80 l0 70 40
0 c33 0 40 3 40 20 0 17 -7 20 -40 20 -38 0 -40 2 -40 30 0 32 -9 37 -28 18z"/>
<path d="M16032 400 c-36 -22 -52 -54 -52 -107 0 -27 8 -43 34 -69 30 -30 41
-34 84 -34 59 0 95 24 112 75 16 49 4 89 -36 125 -42 36 -93 40 -142 10z m118
-40 c25 -25 26 -80 2 -111 -44 -54 -141 -4 -128 65 12 61 85 87 126 46z"/>
<path d="M16271 394 c-11 -15 -21 -31 -21 -36 0 -23 24 -49 60 -68 47 -24 56
-36 39 -56 -13 -15 -45 -15 -81 1 -14 5 -18 2 -18 -13 0 -24 18 -32 71 -32 45
0 79 27 79 64 0 30 -23 54 -67 73 -22 9 -33 20 -33 34 0 19 5 21 40 17 36 -3
40 -1 38 17 -2 16 -12 21 -44 23 -35 3 -45 -1 -63 -24z"/>
<path d="M16685 411 c-37 -15 -58 -49 -63 -101 -4 -46 -2 -52 31 -85 34 -34
39 -36 94 -33 51 3 58 6 61 25 3 20 1 21 -31 11 -40 -12 -81 3 -105 40 l-14
22 69 0 c81 0 109 18 97 64 -13 53 -81 80 -139 57z m83 -43 c26 -26 13 -38
-43 -38 -59 0 -64 4 -38 32 18 20 63 24 81 6z"/>
<path d="M16877 413 c-4 -3 -7 -55 -7 -115 l0 -108 25 0 c24 0 25 2 25 73 0
79 20 117 60 117 23 0 27 28 5 36 -8 4 -26 -1 -40 -10 -23 -15 -26 -15 -31 -1
-6 16 -26 20 -37 8z"/>
<path d="M17050 305 c0 -108 1 -115 20 -115 19 0 20 7 20 115 0 108 -1 115
-20 115 -19 0 -20 -7 -20 -115z"/>
<path d="M17202 400 c-36 -22 -52 -54 -52 -107 0 -27 8 -43 34 -69 30 -30 41
-34 84 -34 59 0 95 24 112 75 16 49 4 89 -36 125 -42 36 -93 40 -142 10z m118
-40 c37 -37 22 -112 -27 -131 -56 -21 -113 34 -97 95 13 53 85 75 124 36z"/>
<path d="M17447 413 c-4 -3 -7 -55 -7 -115 l0 -108 25 0 c24 0 25 2 25 75 0
63 3 77 22 95 12 11 30 20 40 20 11 0 18 7 18 20 0 24 -26 26 -58 4 -20 -14
-23 -14 -28 0 -6 16 -26 21 -37 9z"/>
</g>
</svg>
